<svg width="35" height="24" viewBox="0 0 35 24" xmlns="http://www.w3.org/2000/svg">
<path d="M34.9871 15.4364L34.9797 15.4047C34.972 15.373 34.9619 15.3421 34.9419 15.2928C34.9258 15.2562 34.9066 15.2203 34.8828 15.1819C34.8138 15.0717 34.7225 14.9693 34.6161 14.8507C34.4386 14.6525 34.2374 14.4269 34.0662 14.0823C33.8979 13.744 33.7918 13.3593 33.7428 12.9062C33.536 11.0051 33.7323 9.90649 34.0893 8.84485C34.1303 8.73362 34.1702 8.6238 34.209 8.51468L34.2164 8.49285C34.2934 8.27532 34.3637 8.06412 34.4253 7.86313L34.4372 7.823C34.4624 7.74028 34.4859 7.65932 34.5076 7.58047L34.524 7.52169C34.5485 7.43157 34.5713 7.34393 34.5909 7.25839C34.6105 7.17461 34.6266 7.09506 34.6409 7.01833L34.6511 6.95849C34.6605 6.90146 34.6689 6.84725 34.6756 6.78812L34.6819 6.73532C34.6889 6.66738 34.6927 6.60226 34.6927 6.54313C34.6927 6.44457 34.6941 6.33826 34.6955 6.22633C34.7074 5.23122 34.7256 3.72748 33.8786 2.86508C33.354 2.33109 32.5626 2.11321 31.5259 2.21881C30.3825 2.33461 29.1788 2.5078 27.9048 2.69084C25.486 3.03826 22.9852 3.39765 20.6465 3.39765C18.6519 3.39765 17.5091 3.12556 16.5004 2.88549C15.693 2.6933 14.9961 2.52716 14.028 2.52716C13.4173 2.52716 12.8517 2.55989 12.3046 2.59193C11.823 2.62009 11.368 2.64649 10.9351 2.64649C9.98204 2.64649 9.31879 2.51449 8.71749 2.20543C8.62404 2.15756 8.52569 2.10089 8.41404 2.03013C8.31814 1.96924 8.22259 1.90412 8.12844 1.83548C7.87399 1.65068 7.62759 1.4437 7.39729 1.24412C7.55759 0.835798 7.60309 0.31343 7.60519 0.289846L7.62024 0.110325L6.55764 0.528502C6.11839 0.184246 5.81004 0.0371094 5.53319 0.0371094C5.34349 0.0371094 5.17339 0.111029 5.02779 0.257109C4.24974 1.03996 3.87769 1.26172 3.87419 1.26418L3.84514 1.28812C3.72124 1.43349 2.63449 2.72815 2.63449 3.34169C2.63449 3.731 1.56664 4.87042 0.877494 5.51317C0.747294 5.54345 0.272344 5.6765 0.0808938 6.03202C-0.0244562 6.22738 -0.0269063 6.45161 0.0735437 6.69836C0.455394 7.63538 0.994044 7.8318 1.37869 7.8318C1.72064 7.8318 1.99854 7.68009 2.10039 7.61637C2.43849 7.67551 4.50349 8.03173 4.95219 8.03173C5.35434 8.03173 5.76244 7.84201 5.91679 7.7621C6.14674 7.93247 7.08054 8.69983 7.69619 10.3187C7.75604 10.476 7.81729 10.6415 7.88099 10.8132C8.03114 11.2177 8.20159 11.6767 8.38884 12.128C8.41929 12.2008 8.45009 12.274 8.48159 12.3473L8.89039 13.2114L9.29709 13.9063C9.32089 13.9425 9.34504 13.9777 9.36919 14.0126L9.42624 14.0935C9.45109 14.1284 9.47664 14.1625 9.50219 14.1967L9.56029 14.2727C9.58689 14.3065 9.61349 14.3392 9.64079 14.3723L9.70029 14.4434C9.72864 14.4762 9.75734 14.5078 9.79724 14.5515L9.84554 14.6036C9.87634 14.6356 9.90749 14.6662 9.93969 14.6976L9.99709 14.7532C10.0321 14.7856 10.0678 14.8162 10.1203 14.8612L10.1549 14.8912C10.1987 14.9267 10.2431 14.9602 10.2981 15.0006L10.3194 15.0165C10.3765 15.0566 10.4342 15.0946 10.4937 15.1295C10.801 15.3118 11.1297 15.4156 11.4723 15.4399C11.4625 15.6029 11.452 15.7891 11.4412 15.9838L11.4188 16.4079L11.3764 17.4572C11.3757 17.51 11.375 17.5583 11.375 17.6009C11.375 18.1926 11.6512 18.4696 11.7646 18.5586C11.7926 18.7589 11.8836 19.6006 11.5742 20.3531C11.5542 20.4021 11.529 20.4535 11.501 20.5073C11.4884 20.5309 11.4737 20.5562 11.4496 20.5985L11.4076 20.6706C11.381 20.7146 11.3519 20.7601 11.3162 20.8143L11.3012 20.8375C11.2651 20.8913 11.2273 20.9463 11.1874 21.0019C10.5655 21.8727 9.51899 22.9224 9.50849 22.9326L9.31669 23.1248L12.481 23.1244L12.4551 22.9907C12.4065 22.7386 12.3844 22.2835 12.5321 22.1346C12.7631 21.9026 13.0046 21.7604 13.0071 21.7594L13.0606 21.7281L13.173 18.1933L13.2153 18.1348C13.23 18.1137 13.2468 18.0894 13.2647 18.0627L13.3074 17.9954C13.4771 17.7241 13.6794 17.3108 13.6794 16.8835C13.6794 16.7624 13.6875 16.5783 13.7032 16.3322C13.7582 16.5896 13.8026 16.7877 13.8359 16.9247C14.0004 17.6026 14.3969 18.0387 14.5215 18.1634V20.3056C14.5215 20.8889 13.4747 22.4092 13.0715 22.9453L12.936 23.1244H16.4157L16.3685 22.9773C16.0213 21.9009 16.2134 21.5756 16.3111 21.5422L16.4343 21.5158L16.3933 21.3961C16.3902 21.387 16.0815 20.4728 15.9544 19.4855L15.9275 19.2718C15.8508 18.6456 15.8312 18.3253 15.8263 18.207C15.9215 18.1218 16.0857 17.9004 16.0857 17.384C16.0857 17.1059 16.0251 16.7318 15.9555 16.2988C15.8645 15.7342 15.7619 15.0978 15.7521 14.4554C17.1731 14.2628 18.7418 14.2745 20.3525 14.4906C21.2135 14.606 22.028 14.6645 22.7728 14.6645C25.024 14.6645 26.0943 14.1414 26.432 13.932C26.5409 14.1632 26.8317 14.6381 27.5034 15.0203C27.2363 15.4568 27.1222 15.7669 27.1646 15.9422C27.1807 16.0084 27.2174 16.0598 27.272 16.0915C27.3021 16.1091 27.3371 16.1179 27.3756 16.1179C27.6399 16.1179 28.1432 15.6451 28.3815 15.3801C28.4333 15.3945 28.4869 15.4086 28.5415 15.4216C28.4676 15.6399 28.4106 15.8261 28.3717 15.9771C28.3164 16.1922 28.3301 16.3682 28.4102 16.4723C28.4561 16.5318 28.5212 16.5649 28.594 16.5649C28.7326 16.5649 28.8729 16.4491 28.9895 16.2379C29.0833 16.0682 29.1872 15.8324 29.2996 15.536C29.414 15.5427 29.5243 15.5427 29.63 15.5378C29.5946 16.7071 29.4623 18.6769 28.9818 19.6439C28.2174 21.1825 26.7747 22.9227 26.7603 22.94L26.607 23.1244H29.6125L29.5796 22.9858C29.4753 22.5461 29.3972 21.8572 29.5498 21.7038C29.7784 21.4739 30.2204 21.47 30.225 21.47L30.3104 21.4697L30.3324 21.387C30.3398 21.3613 31.0335 18.7843 31.4178 17.8184C31.5627 17.4541 31.8469 16.8518 32.2417 16.0693C32.3687 16.3076 32.4916 16.5582 32.5826 16.8138C32.5931 16.8433 32.6029 16.8736 32.6123 16.9032L32.6351 16.9739C32.6438 17.0035 32.6522 17.0338 32.6645 17.0788L32.6802 17.138C32.6876 17.1686 32.6946 17.1996 32.7016 17.2313L32.718 17.3101C32.724 17.3397 32.7289 17.3699 32.7345 17.4006L32.7709 17.6825L32.8818 17.672H32.8822L32.773 17.7058L32.7789 17.7719C32.7821 17.8142 32.7842 17.8585 32.7863 17.9025L32.7901 17.9775C32.7926 18.0486 32.7943 18.1222 32.7943 18.1986C32.7943 18.2598 32.7912 18.327 32.7859 18.4059L32.7842 18.433C32.7789 18.5027 32.7719 18.5766 32.7628 18.654L32.7572 18.6966C32.7474 18.7776 32.7359 18.8617 32.7208 18.961C32.7068 19.05 32.6911 19.1423 32.6743 19.2366L32.7838 19.2567L32.6683 19.2679C32.6508 19.364 32.6319 19.4626 32.6116 19.5626L32.7212 19.5847L32.6046 19.597C32.5423 19.8998 32.4664 20.2352 32.3785 20.5939C32.0758 21.8259 31.7139 23.0034 31.71 23.015L31.6645 23.1635L34.1891 23.1223L34.1597 22.9882C34.0519 22.4915 34.0099 21.8808 34.1296 21.7604C34.3536 21.5355 34.6402 21.368 34.643 21.3662L34.6987 21.3335V17.2714C34.6987 16.8529 34.7806 16.5836 34.86 16.3227C34.9321 16.0862 35 15.8627 35 15.5582C35 15.516 34.9948 15.4758 34.9871 15.4364Z"/>
</svg>
