<svg width="22" height="29" viewBox="0 0 22 29" fill="none" xmlns="http://www.w3.org/2000/svg">
<path d="M1.92235 24.1919L2.18895 24.1916V11.1567V11.0374V10.8466C2.12832 10.8321 2.06904 10.8142 2.01134 10.793C1.70467 10.6804 1.44256 10.4756 1.25859 10.2121C1.25858 10.2121 1.25856 10.2121 1.25854 10.2121C1.07967 9.95589 0.974691 9.64433 0.974463 9.30833L0.974463 9.30765L1.04297 10.3635C1.26012 10.6728 1.56717 10.908 1.92235 11.0374V24.1919ZM1.92235 24.1919H2.18895M1.92235 24.1919C1.92383 25.3906 2.40074 26.5397 3.24833 27.3873C4.09611 28.2349 5.24545 28.7116 6.44419 28.7129M2.18895 24.1919L20.0778 11.0374V24.1919M2.18895 24.1919L2.18896 24.1933C2.19066 25.3208 2.63923 26.4018 3.43652 27.1991L3.43663 27.1992C4.23409 27.9964 5.31537 28.4451 6.44322 28.4462H6.4442L6.44419 28.7129M2.18895 24.1919L15.5566 28.4462L15.5566 28.7129M6.44419 28.7129H15.5566M6.44419 28.7129L6.44446 28.4462H15.5563L15.5566 28.7129M15.5566 28.7129C16.7553 28.7116 17.9044 28.2349 18.752 27.3873C19.5996 26.5397 20.0765 25.3904 20.0778 24.1919M20.0778 24.1919H19.8112L21.0257 9.30766V9.30832C21.0254 9.64434 20.9204 9.95589 20.7416 10.2121C20.7416 10.2121 20.7415 10.2121 20.7415 10.2121C20.5576 10.4756 20.2955 10.6804 19.9888 10.793C19.931 10.8143 19.8715 10.8322 19.8107 10.8467L19.8108 11.0374L19.8108 11.1567L19.8112 24.1916L20.0778 24.1919ZM19.0778 10.8895H18.8108H3.18895H2.92235V11.0374V11.1567V24.1912L19.0778 10.8895ZM19.0778 10.8895V11.0374V11.1567V24.1908L19.0778 24.1918L19.0778 24.1919V10.8895ZM6.44393 27.7129C6.44402 27.7129 6.4441 27.7129 6.44419 27.7129L6.44393 27.7129ZM6.44393 27.7129C5.51056 27.7115 4.61566 27.3402 3.95545 26.6802M6.44393 27.7129L3.95545 26.6802M3.95545 26.6802C3.95544 26.6802 3.95543 26.6802 3.95543 26.6802L3.95545 26.6802ZM20.2924 9.30766C20.2924 9.30772 20.2924 9.30777 20.2924 9.30783C20.2913 9.48008 20.2376 9.64803 20.1388 9.78872L20.1386 9.78898C20.0393 9.93049 19.8987 10.0383 19.7356 10.0977L19.5736 10.1567H19.4446H19.4442H18.8108H3.18895H2.55592H2.55556H2.42654L2.26457 10.0977C2.10146 10.0383 1.96079 9.93046 1.86149 9.78898L1.86129 9.7887C1.76251 9.64805 1.70882 9.48008 1.70773 9.30784C1.70773 9.30778 1.70772 9.30772 1.70772 9.30766H20.2924ZM15.5555 27.7129H6.44523L19.0778 24.1954C19.0755 25.1273 18.7042 26.0209 18.0449 26.6802C18.0449 26.6802 18.0449 26.6802 18.0449 26.6802C17.3857 27.3394 16.4924 27.7106 15.5602 27.7129C15.559 27.7129 15.5578 27.7129 15.5566 27.7129C15.5562 27.7129 15.5559 27.7129 15.5555 27.7129Z" fill="#253E89" stroke="#253E89" stroke-width="2"/>
</svg>
