<svg width="18" height="24" viewBox="0 0 18 24" fill="none" xmlns="http://www.w3.org/2000/svg">
<path d="M1.97487 5.36428H1.97464L1.97463 7.59391C1.97477 7.8038 2.13856 7.96841 2.33381 7.96867H15.6664C15.8616 7.9684 16.0254 7.80379 16.0256 7.59391V5.36428V5.35748L16.0258 5.35749C16.0331 5.2506 15.9978 5.14573 15.929 5.06708L1.97487 5.36428ZM1.97487 5.36428L1.97441 5.3575M1.97487 5.36428L1.97441 5.3575M1.97441 5.3575C1.96714 5.25057 2.00247 5.14567 2.07128 5.06701M1.97441 5.3575L2.07128 5.06701M2.07128 5.06701C2.13977 4.98889 2.23511 4.9436 2.33532 4.94011M2.07128 5.06701L2.33532 4.94011M2.33532 4.94011H15.6649C15.7651 4.94361 15.8604 4.98889 15.9289 5.06701L2.33532 4.94011ZM14.3324 21.5339C14.7941 21.0567 15.0579 20.4115 15.0668 19.7357L15.0664 9.20244H2.93344L2.93344 19.7362L2.93344 19.7363M14.3324 21.5339L2.83344 19.7363H2.93344M14.3324 21.5339C13.8707 22.0107 13.248 22.2821 12.5967 22.2912H5.40347C4.74983 22.2906 4.12233 22.0218 3.65898 21.5432M14.3324 21.5339L3.65898 21.5432M2.93344 19.7363C2.93447 20.4147 3.19573 21.0645 3.65898 21.5432M2.93344 19.7363L3.65898 21.5432M2.33355 3.70666L2.33294 3.70666C1.91023 3.70925 1.50704 3.88748 1.21409 4.20019L1.21407 4.20021C0.92172 4.51244 0.76353 4.93245 0.774564 5.36557L0.774564 7.59398L0.774565 7.59425C0.775455 7.92223 0.873755 8.24259 1.05654 8.5115C1.22606 8.76108 1.46097 8.95556 1.73348 9.07256L1.73348 19.7364L1.73348 19.7365C1.73469 20.7399 2.12096 21.7023 2.80845 22.4127L2.88031 22.3432L2.80846 22.4127C3.49622 23.1232 4.42932 23.5235 5.40325 23.5245H5.40336H12.5974H12.5975C13.5714 23.5235 14.5043 23.1232 15.1919 22.4127C15.8794 21.7023 16.2657 20.7397 16.2667 19.7365V19.7364V9.07257C16.5392 8.95557 16.7741 8.76108 16.9437 8.5115C17.1264 8.24258 17.2247 7.92223 17.2256 7.59425V7.59398V5.36558C17.2367 4.93246 17.0785 4.51244 16.7861 4.20021L16.7861 4.20019C16.4932 3.8875 16.09 3.70927 15.6673 3.70666H15.6666H15.6665H12.1314C12.081 2.632 11.5027 1.65356 10.5918 1.11732C9.65274 0.564539 8.50064 0.564539 7.56162 1.11732C6.6507 1.65356 6.0724 2.632 6.02201 3.70666L2.33355 3.70666ZM10.3726 2.48116C10.6965 2.80679 10.8946 3.24251 10.9313 3.70666H7.2222C7.25902 3.2425 7.4571 2.80676 7.78096 2.48116L7.78097 2.48116C8.12851 2.13172 8.59333 1.93648 9.0768 1.93594C9.56027 1.93647 10.0251 2.1317 10.3726 2.48116L10.4435 2.41064L10.3726 2.48116Z"  stroke="#253E89" stroke-width="0.2"/>
</svg>
