<svg width="12" height="18" viewBox="0 0 12 18" fill="none" xmlns="http://www.w3.org/2000/svg">
<path d="M5.9998 0.536133C5.7282 0.536133 5.46783 0.643991 5.27569 0.835955C5.08373 1.0281 4.97587 1.28845 4.97587 1.56007V14.3601L2.61299 12.097H2.61281C2.34853 11.8436 1.96924 11.7506 1.61761 11.8527C1.266 11.9551 0.995668 12.237 0.90849 12.5928C0.821167 12.9483 0.930277 13.3233 1.19456 13.5767L5.29065 17.4959V17.4961C5.48137 17.6792 5.73548 17.7813 5.99977 17.7813C6.26407 17.7813 6.51817 17.6792 6.70889 17.4961L10.805 13.5769V13.5767C11.0693 13.3233 11.1784 12.9483 11.0911 12.5928C11.0039 12.2371 10.7336 11.9551 10.3819 11.8527C10.0303 11.7506 9.65105 11.8436 9.38673 12.097L7.02372 14.3601V1.56007C7.02372 1.28846 6.91586 1.02809 6.7239 0.835955C6.53175 0.643991 6.2714 0.536133 5.99978 0.536133L5.9998 0.536133Z" fill="#253E89"/>
</svg>
