<svg width="30" height="29" viewBox="0 0 30 29" fill="none" xmlns="http://www.w3.org/2000/svg">
<path d="M0.199562 21.9557V27.7998C0.199562 28.118 0.325994 28.4234 0.55099 28.6484C0.775987 28.8734 1.08135 28.9998 1.39956 28.9998H7.2437C8.20212 29.0022 9.12221 28.6222 9.79956 27.944L27.9436 9.79997C28.6287 9.12363 29.0144 8.20088 29.0144 7.23793C29.0144 6.27526 28.6287 5.35249 27.9436 4.6759L24.5115 1.2559C23.8215 0.596701 22.9038 0.228699 21.9495 0.228699C20.9951 0.228699 20.0774 0.596735 19.3874 1.2559L1.25508 19.3999C0.583562 20.0816 0.204567 20.9987 0.199219 21.9558L0.199562 21.9557ZM21.0919 2.96004C21.318 2.72539 21.63 2.5928 21.9558 2.5928C22.2817 2.5928 22.5938 2.72539 22.8199 2.96004L26.2399 6.38004C26.4745 6.60611 26.6071 6.91816 26.6071 7.24417C26.6071 7.56989 26.4745 7.88194 26.2399 8.10804L23.6599 10.688L18.512 5.5401L21.0919 2.96004ZM2.59956 21.9557C2.59769 21.631 2.7276 21.3193 2.95956 21.0918L16.8192 7.23217L21.9671 12.3801L8.10749 26.2398C7.88008 26.4717 7.5683 26.6016 7.24363 26.5998H2.59949L2.59956 21.9557Z" fill="#243F8A"/>
</svg>
