<svg width="37" height="37" viewBox="0 0 37 37" xmlns="http://www.w3.org/2000/svg">
<path d="M34.8 17C34.4818 17 34.1764 17.1264 33.9514 17.3514C33.7264 17.5764 33.6 17.8818 33.6 18.2V30.2C33.6 31.1549 33.2207 32.0704 32.5457 32.7457C31.8704 33.4207 30.9549 33.8 30 33.8H6C5.04507 33.8 4.12958 33.4207 3.45429 32.7457C2.77928 32.0705 2.4 31.1549 2.4 30.2V6.20001C2.4 5.24509 2.77928 4.32959 3.45429 3.6543C4.12956 2.97929 5.04507 2.60001 6 2.60001H18C18.4288 2.60001 18.825 2.37126 19.0393 2.00001C19.2536 1.62876 19.2536 1.17126 19.0393 0.800012C18.825 0.428766 18.4288 0.200012 18 0.200012H6C4.40866 0.200012 2.88267 0.832159 1.75742 1.95743C0.63216 3.0827 0 4.60867 0 6.20001V30.2C0 31.7913 0.632146 33.3173 1.75742 34.4426C2.88269 35.5678 4.40866 36.2 6 36.2H30C31.5913 36.2 33.1173 35.5679 34.2426 34.4426C35.3678 33.3173 36 31.7913 36 30.2V18.2C36 17.8818 35.8736 17.5764 35.6486 17.3514C35.4236 17.1264 35.1182 17 34.8 17Z"/>
<path d="M7.19956 21.9557V27.7998C7.19956 28.118 7.32599 28.4234 7.55099 28.6484C7.77599 28.8734 8.08135 28.9998 8.39956 28.9998H14.2437C15.2021 29.0022 16.1222 28.6222 16.7996 27.944L34.9436 9.79997C35.6287 9.12363 36.0144 8.20088 36.0144 7.23793C36.0144 6.27526 35.6287 5.35249 34.9436 4.6759L31.5115 1.2559C30.8215 0.596701 29.9038 0.228699 28.9495 0.228699C27.9951 0.228699 27.0774 0.596735 26.3874 1.2559L8.25508 19.3999C7.58356 20.0816 7.20457 20.9987 7.19922 21.9558L7.19956 21.9557ZM28.0919 2.96004C28.318 2.72539 28.63 2.5928 28.9558 2.5928C29.2817 2.5928 29.5938 2.72539 29.8199 2.96004L33.2399 6.38004C33.4745 6.60611 33.6071 6.91816 33.6071 7.24417C33.6071 7.56989 33.4745 7.88194 33.2399 8.10804L30.6599 10.688L25.512 5.5401L28.0919 2.96004ZM9.59956 21.9557C9.59769 21.631 9.7276 21.3193 9.95956 21.0918L23.8192 7.23217L28.9671 12.3801L15.1075 26.2398C14.8801 26.4717 14.5683 26.6016 14.2436 26.5998H9.59949L9.59956 21.9557Z"/>
</svg>
