<svg width="18" height="18" viewBox="0 0 18 18" xmlns="http://www.w3.org/2000/svg">
<path fill-rule="evenodd" clip-rule="evenodd" d="M17.2567 5.36546C17.191 4.01125 16.8742 2.81169 15.8582 1.82338C14.846 0.835068 13.6174 0.525749 12.2305 0.457849C10.801 0.378634 6.51654 0.378634 5.08709 0.457849C3.70401 0.521977 2.47546 0.831296 1.45939 1.81961C0.443322 2.80792 0.130389 4.00748 0.0608481 5.36169C-0.0202827 6.7574 -0.0202827 10.9408 0.0608481 12.3365C0.126525 13.6907 0.443322 14.8902 1.45939 15.8785C2.47546 16.8669 3.70014 17.1762 5.08709 17.2441C6.51654 17.3233 10.801 17.3233 12.2305 17.2441C13.6174 17.1799 14.846 16.8706 15.8582 15.8785C16.8704 14.8902 17.1872 13.6907 17.2567 12.3365C17.3378 10.9408 17.3378 6.76117 17.2567 5.36546ZM13.2811 5.34997C13.8529 5.34997 14.3165 4.90109 14.3165 4.33905C14.3165 3.78079 13.8529 3.32814 13.2811 3.32814C12.7093 3.32814 12.2457 3.78079 12.2457 4.33905C12.2457 4.89732 12.7055 5.34997 13.2811 5.34997ZM8.66079 4.51715C6.20367 4.51715 4.22176 6.45227 4.22176 8.85137C4.22176 11.2505 6.20367 13.1856 8.66079 13.1856C11.1179 13.1856 13.0998 11.2505 13.0998 8.85137C13.0998 6.45227 11.1179 4.51715 8.66079 4.51715ZM8.66061 11.669C7.07277 11.669 5.77467 10.4053 5.77467 8.85115C5.77467 7.29701 7.0689 6.03334 8.66061 6.03334C10.2523 6.03334 11.5466 7.29701 11.5466 8.85115C11.5466 10.4053 10.2485 11.669 8.66061 11.669ZM13.7642 15.4415C14.5253 15.1435 15.1087 14.5739 15.41 13.8346C15.7977 12.8834 15.7762 10.8027 15.7622 9.45385C15.7598 9.23012 15.7577 9.02652 15.7577 8.85156C15.7577 8.67657 15.7598 8.473 15.7622 8.24934C15.7762 6.90126 15.7977 4.82296 15.41 3.86852C15.1048 3.1254 14.5215 2.5558 13.7642 2.26157C12.7869 1.88508 10.6456 1.90514 9.26458 1.91807C9.04054 1.92017 8.83651 1.92208 8.66071 1.92208C8.48149 1.92208 8.273 1.92002 8.04393 1.91775C6.66326 1.90409 4.53471 1.88304 3.5572 2.26157C2.79611 2.55958 2.21274 3.12917 1.9114 3.86852C1.5258 4.82274 1.54634 6.91355 1.55959 8.26195C1.56174 8.4807 1.56369 8.67991 1.56369 8.85156C1.56369 9.02656 1.56158 9.23012 1.55926 9.45378C1.54527 10.8019 1.52371 12.8802 1.9114 13.8346C2.2166 14.5777 2.79997 15.1473 3.5572 15.4415C4.53449 15.818 6.67585 15.798 8.05685 15.7851C8.28089 15.783 8.48491 15.781 8.66071 15.781C8.83994 15.781 9.04842 15.7831 9.27749 15.7854C10.6582 15.799 12.7867 15.8201 13.7642 15.4415Z"/>
</svg>
