<svg width="28" height="25" viewBox="0 0 28 25" xmlns="http://www.w3.org/2000/svg">
<path d="M27.3657 2.47292C23.9771 2.47292 19.1895 2.75165 16.7434 5.15543C15.6841 6.19674 15.1552 7.89424 15.2925 9.81546C15.3104 10.0693 15.4819 10.2855 15.7286 10.3654C15.9741 10.4441 16.2436 10.3704 16.4115 10.1767C17.7719 8.60302 19.4631 7.34158 21.4417 6.42793C21.6094 6.34925 21.8078 6.34297 21.9885 6.40533C22.1475 6.46162 22.272 6.56793 22.337 6.70416C22.4717 6.98415 22.4285 7.35285 21.9808 7.56043C21.9555 7.57299 21.9325 7.5891 21.9072 7.6004C21.8983 7.60417 21.888 7.60291 21.8806 7.60668C17.0056 9.85918 14.609 13.7893 13.5203 17.8302C12.7265 12.77 11.0507 9.7913 9.46759 7.96239C8.32198 6.50237 7.19551 5.72854 6.54432 5.29118C6.42362 5.20999 6.05856 4.96495 5.90724 4.81616C5.65925 4.57237 5.65925 4.17625 5.90724 3.93245C6.15523 3.68992 6.55947 3.68992 6.83553 3.95987C6.90301 4.01867 7.01093 4.09359 7.14822 4.18357L7.26146 4.25848C8.18212 4.87851 9.89609 6.02964 11.4168 8.50837C11.5528 8.72956 11.8161 8.84842 12.0716 8.80092C12.331 8.75593 12.5343 8.55964 12.5852 8.30601C12.917 6.63985 12.7683 4.16723 11.2565 2.68106C8.81025 0.27873 4.0231 0 0.635823 0C0.284813 0 0 0.279994 0 0.625066C0 3.95632 0.283532 8.66285 2.72868 11.0676C3.74851 12.0702 5.32134 12.5201 6.88398 12.5201C8.15922 12.5201 9.40918 12.2064 10.3666 11.6626C11.6725 14.3225 12.7152 18.2962 12.7152 24.3749C12.7152 24.72 13 25 13.351 25C13.702 25 13.9868 24.72 13.9868 24.3749C13.9868 20.9836 14.5782 16.9136 16.7764 13.5638C17.6576 14.41 19.1745 14.9464 20.8553 14.9962C20.9391 14.9987 21.0219 14.9999 21.1045 14.9999C22.8121 14.9999 24.3215 14.4736 25.2713 13.5387C27.7178 11.1336 28 6.42767 28 3.0961C28.0011 2.75102 27.7175 2.47226 27.3654 2.47226L27.3657 2.47292Z"/>
</svg>
