<svg width="14" height="17" viewBox="0 0 14 17" fill="none" xmlns="http://www.w3.org/2000/svg">
<path d="M7.04099 16.775C6.80235 16.7715 6.56812 16.7175 6.35791 16.6173C6.1477 16.5172 5.96762 16.3738 5.83275 16.1993C3.6956 13.5741 0.109863 8.80163 0.109863 6.29161C0.120155 4.66794 0.854731 3.11379 2.15327 1.96836C3.45181 0.822935 5.20888 0.179229 7.04099 0.177734C8.87759 0.179256 10.6386 0.826125 11.9378 1.97652C13.2371 3.12692 13.9687 4.68697 13.9721 6.31464C13.9721 8.82466 10.3864 13.5972 8.24922 16.2223C8.11152 16.3926 7.9302 16.5315 7.72016 16.6275C7.51012 16.7236 7.27735 16.7741 7.04099 16.775ZM7.04099 1.32912C5.54896 1.33064 4.11843 1.85621 3.06279 2.79068C2.00715 3.72515 1.41248 4.99233 1.40904 6.31464C1.40904 7.88628 3.45525 11.3404 6.88509 15.5257C6.98902 15.6524 7.09295 15.6524 7.19689 15.5257C10.6267 11.3174 12.6729 7.86325 12.6729 6.31464C12.6695 4.99233 12.0748 3.72515 11.0192 2.79068C9.96355 1.85621 8.53302 1.33064 7.04099 1.32912ZM7.04099 9.6882C6.09569 9.68668 5.1896 9.35321 4.52117 8.76082C3.85274 8.16843 3.47646 7.36541 3.47474 6.52764C3.47817 5.69088 3.85521 4.88933 4.52345 4.29819C5.1917 3.70704 6.09681 3.37435 7.04099 3.37284C7.98457 3.37436 8.88901 3.70723 9.55622 4.29854C10.2234 4.88985 10.599 5.6914 10.6007 6.52764C10.6007 7.36488 10.2259 8.16791 9.55851 8.76046C8.89111 9.35302 7.98569 9.68668 7.04099 9.6882ZM7.04099 4.50696C6.44085 4.50695 5.86519 4.71784 5.44022 5.09339C5.01525 5.46894 4.77564 5.9785 4.77392 6.51037C4.77563 7.04277 5.01503 7.55293 5.43982 7.92939C5.86461 8.30586 6.44025 8.51803 7.04099 8.51954C7.64113 8.51802 8.21609 8.30567 8.63985 7.92904C9.0636 7.55241 9.30156 7.04224 9.30156 6.51037C9.29642 5.98203 9.05599 5.47688 8.6326 5.10489C8.20922 4.73291 7.63717 4.52421 7.04099 4.52423V4.50696Z" fill="white"/>
</svg>
