<svg width="20" height="16" viewBox="0 0 20 16" xmlns="http://www.w3.org/2000/svg">
<path d="M19.0749 0.994141V1.32561C18.6342 1.75235 18.2028 2.19038 17.7487 2.60239C17.5129 2.81551 17.4218 3.0414 17.4237 3.36796C17.4372 5.98928 17.4319 8.61059 17.431 11.2319C17.431 12.0913 17.4204 12.9506 17.431 13.81C17.4419 13.948 17.4994 14.0778 17.5939 14.1773C18.014 14.6173 18.444 15.0472 18.884 15.4669C19.0252 15.6019 19.0662 15.7394 19.0199 15.9231H11.8017C11.7492 15.7325 11.7983 15.6004 11.9333 15.4718C12.3735 15.0529 12.8011 14.6178 13.2349 14.195C13.299 14.1355 13.3495 14.0624 13.3828 13.9809C13.4161 13.8993 13.4315 13.8113 13.4278 13.7231C13.4242 10.9486 13.4233 8.17387 13.4249 5.39901C13.4249 5.35629 13.4162 5.31406 13.4056 5.21977C13.3627 5.31799 13.34 5.36709 13.3208 5.41915C12.0089 8.81111 10.6958 12.2029 9.38168 15.5945C9.25971 15.9088 9.25971 15.8951 8.92997 15.9147C8.74533 15.925 8.67206 15.8504 8.60071 15.6913C7.06127 12.263 5.51861 8.83648 3.97274 5.41178C3.94671 5.35384 3.91778 5.29785 3.89031 5.24138C3.86743 5.26866 3.85555 5.30375 3.85704 5.33959C3.85704 7.73404 3.85543 10.1283 3.85222 12.5224C3.85351 12.7517 3.93564 12.9729 4.08362 13.1456C4.71033 13.9166 5.33221 14.6905 5.96373 15.4536C6.0804 15.595 6.08377 15.732 6.04617 15.9039H5.82248C4.29236 15.9039 2.76192 15.9039 1.23115 15.9039C1.00843 15.9039 0.785709 15.9088 0.562988 15.9113V15.5798C0.573847 15.575 0.583926 15.5686 0.592877 15.5607C1.25268 14.7468 1.91153 13.9326 2.56941 13.1181C2.70861 12.9452 2.77974 12.7257 2.76899 12.5023C2.76465 12.3673 2.76079 12.2322 2.76079 12.0972C2.76079 9.40809 2.76079 6.71917 2.76079 4.03041C2.76545 3.83227 2.69875 3.63925 2.57326 3.48778C2.0208 2.81453 1.47267 2.13735 0.914906 1.46851C0.800171 1.33052 0.776549 1.19302 0.81849 1.00544H1.0282C2.66727 1.00544 4.30634 1.00543 5.94541 1.00151C6.0992 1.00151 6.17488 1.04374 6.24093 1.19155C7.55862 4.14286 8.8808 7.09254 10.2075 10.0406C10.235 10.102 10.2653 10.1619 10.3073 10.2493C10.3468 10.1511 10.3724 10.0912 10.3969 10.0293C11.5594 7.08288 12.7204 4.13648 13.88 1.19008C13.9354 1.04816 14.0043 1.00102 14.1543 1.00151C15.721 1.0074 17.2878 1.00544 18.8541 1.00445C18.9302 1.00642 19.003 0.99856 19.0749 0.994141Z"/>
</svg>
