<svg width="26" height="22" viewBox="0 0 26 22" xmlns="http://www.w3.org/2000/svg">
<path d="M0.940893 0H0.927835C0.415121 0 0 0.447509 0 1.00018C0 1.55285 0.415139 2.00036 0.927835 2.00036H0.941619H25.0591H25.0722C25.5849 2.00036 26 1.55285 26 1.00018C26 0.447509 25.5849 0 25.0722 0H25.0584H0.940893ZM0.940893 9.99982H0.927835C0.415121 9.99982 0 10.4473 0 11C0 11.5527 0.415139 12.0002 0.927835 12.0002H0.941619H25.0591H25.0722C25.5849 12.0002 26 11.5527 26 11C26 10.4473 25.5849 9.99982 25.0722 9.99982H25.0584H0.940893ZM0.940893 19.9996H0.927835C0.415121 19.9996 0 20.4471 0 20.9998C0 21.5525 0.415139 22 0.927835 22H0.941619H25.0591H25.0722C25.5849 22 26 21.5525 26 20.9998C26 20.4471 25.5849 19.9996 25.0722 19.9996H25.0584H0.940893Z"/>
</svg>
