<svg width="17" height="30" viewBox="0 0 17 30" xmlns="http://www.w3.org/2000/svg">
<path d="M0.476339 29.0879H16.035C16.298 29.0879 16.5113 28.8745 16.5113 28.6115L16.5116 10.601C16.5116 8.32407 14.7699 6.44645 12.5491 6.23002L12.2405 3.41344H12.9543C13.2173 3.41344 13.4307 3.20031 13.4307 2.93711C13.4307 2.67391 13.2173 2.46078 12.9543 2.46078H11.5758V2.16478C11.5758 0.971055 10.6048 0 9.41105 0H7.10051C5.90701 0 4.93573 0.971055 4.93573 2.16478V2.46078H3.55744C3.29424 2.46078 3.08111 2.67391 3.08111 2.93711C3.08111 3.20031 3.29424 3.41344 3.55744 3.41344H4.27106L3.96244 6.23002C1.74139 6.44647 0 8.32413 0 10.601V28.6115C0 28.8745 0.213131 29.0879 0.476333 29.0879H0.476339ZM3.53487 17.6191C3.72962 16.7058 4.6298 16.1194 5.54368 16.3157C5.6549 16.3394 5.7639 16.3797 5.87157 16.4285C5.91323 16.3673 5.9582 16.3086 6.00451 16.2508C5.50004 15.918 5.08994 15.3187 5.21336 14.4009C5.24859 14.1401 5.48986 13.9589 5.74907 13.9921C6.00984 14.0273 6.19284 14.267 6.15783 14.5278C6.06058 15.2492 6.50833 15.496 6.7731 15.5786C7.2069 15.317 7.71313 15.1634 8.25575 15.1634C8.79788 15.1634 9.30348 15.3165 9.73703 15.5777C10.0162 15.4891 10.4493 15.2365 10.3541 14.5278C10.3191 14.267 10.5016 14.0271 10.7626 13.9921C11.0262 13.9573 11.2629 14.1401 11.2983 14.4008C11.4217 15.3185 11.0118 15.9178 10.5072 16.2505C10.5532 16.3081 10.5982 16.3669 10.6399 16.428C10.7473 16.3793 10.8563 16.3389 10.9675 16.3155C11.4104 16.2202 11.8626 16.3048 12.2424 16.5512C12.6217 16.7976 12.8827 17.1764 12.9766 17.6188C13.0167 17.8056 13.0222 18.0041 12.993 18.2088C12.973 18.3475 12.8937 18.4702 12.7752 18.5447C12.6013 18.6548 12.4172 18.7308 12.2293 18.7709C12.1105 18.7964 11.9911 18.8088 11.8726 18.8088C11.6036 18.8088 11.3406 18.7407 11.0996 18.6156C10.9992 19.4974 10.707 20.8256 10.2856 21.9705C10.2165 22.1582 10.0381 22.2825 9.83827 22.2825H6.67294C6.47332 22.2825 6.29475 22.1582 6.22585 21.9707C5.80445 20.826 5.51223 19.4976 5.41184 18.6156C5.17079 18.741 4.90781 18.8088 4.63884 18.8088C4.52031 18.8088 4.4009 18.7964 4.28236 18.7709C4.09449 18.7308 3.91082 18.6548 3.73646 18.5451C3.61815 18.4707 3.53861 18.3479 3.51868 18.2095C3.48943 18.0052 3.49475 17.8065 3.53485 17.619L3.53487 17.6191ZM5.88864 2.16421C5.88864 1.49603 6.43232 0.952111 7.10051 0.952111H9.41106C10.0792 0.952111 10.6229 1.4958 10.6229 2.16421V2.46021H5.88858L5.88864 2.16421Z"/>
</svg>
