<svg width="21" height="19" viewBox="0 0 21 19" xmlns="http://www.w3.org/2000/svg">
<path d="M20.6545 2.25157C20.5095 2.85793 20.36 3.46024 20.2199 4.06659C19.1711 8.60111 18.1232 13.1358 17.076 17.6706C16.8406 18.6893 15.8201 19.04 15.0176 18.3781C13.8125 17.3826 12.6114 16.3818 11.4143 15.3756C11.2966 15.2771 11.2251 15.2659 11.099 15.3635C10.0775 16.1507 9.0495 16.9299 8.02353 17.7101C7.95997 17.7606 7.8979 17.8111 7.83185 17.8531C7.40925 18.136 6.98764 17.992 6.861 17.4948C6.72245 16.9496 6.61668 16.3953 6.49998 15.844C6.17851 14.3281 5.85887 12.8122 5.54105 11.2963C5.51423 11.168 5.44819 11.1084 5.33645 11.0589C3.93936 10.4404 2.54326 9.81903 1.14816 9.19483C0.446962 8.88053 0.163407 8.14533 0.479739 7.48087C0.645106 7.13272 0.926676 6.9306 1.28373 6.81287C2.12397 6.53394 2.96222 6.24997 3.80147 5.96852L18.9099 0.901426C19.7392 0.623513 20.3501 0.937302 20.6277 1.78266C20.6311 1.79327 20.6455 1.80085 20.6545 1.80995V2.25157ZM19.4746 1.98831L1.50273 8.01699C1.62042 8.07611 1.67753 8.10844 1.73712 8.13472C3.09034 8.73754 4.44506 9.33783 5.7963 9.9457C5.85664 9.97659 5.92395 9.99067 5.99138 9.9865C6.05881 9.98233 6.12395 9.96005 6.18017 9.92195C9.14286 8.24201 12.1075 6.56527 15.0742 4.89174C15.1651 4.83736 15.2615 4.79314 15.3617 4.75986C15.477 4.72684 15.5995 4.7306 15.7126 4.77063C15.8258 4.81065 15.9241 4.88502 15.9944 4.9837C16.0627 5.07947 16.101 5.194 16.1043 5.31229C16.1076 5.43057 16.0757 5.54711 16.0128 5.64665C15.9495 5.74077 15.8781 5.82888 15.7992 5.90991C13.8228 8.01463 11.8458 10.1185 9.86839 12.2215C9.81873 12.2721 9.76907 12.3282 9.71097 12.3928L15.8817 17.5312C17.0824 12.3383 18.2728 7.18679 19.4746 1.98831ZM7.50111 14.8117L7.54035 14.8066C7.55227 14.7697 7.56567 14.7334 7.5761 14.696C7.78715 13.9481 7.98828 13.1968 8.21522 12.454C8.27691 12.2508 8.38206 12.0641 8.52311 11.9073C9.71097 10.6268 10.9103 9.35804 12.1061 8.0852C12.1557 8.03467 12.2004 7.97757 12.2476 7.92351L12.2188 7.89369L6.69613 11.0144C6.96827 12.2968 7.23494 13.5545 7.50111 14.8117ZM9.15627 13.4979L8.50076 15.8278L10.3054 14.4539L9.15627 13.4979Z"/>
</svg>
