<svg version="1.0" xmlns="http://www.w3.org/2000/svg"
 width="980.000000pt" height="696.000000pt" viewBox="0 0 980.000000 696.000000"
 preserveAspectRatio="xMidYMid meet">

<path d="M9022 6930 c-167 -45 54 167 -2872 -2757 l-2675 -2673 -1245 1243
c-1154 1153 -1250 1246 -1315 1279 -192 98 -383 101 -570 9 -198 -98 -327
-291 -342 -514 -7 -107 15 -207 68 -317 l41 -85 1502 -1502 c1421 -1421 1505
-1503 1572 -1536 111 -56 180 -70 314 -65 98 4 126 9 192 35 42 17 105 51 140
76 35 26 1330 1313 2953 2939 2436 2437 2897 2903 2928 2958 139 241 105 536
-83 733 -124 130 -248 187 -425 193 -88 3 -125 0 -183 -16z"/>

</svg>
