<svg width="22" height="17" viewBox="0 0 22 17" xmlns="http://www.w3.org/2000/svg">
<path d="M19.2367 4.54833C19.2498 4.7271 19.2498 4.90592 19.2498 5.0847C19.2498 10.5376 14.9917 16.8206 7.20906 16.8206C4.81138 16.8206 2.58405 16.1438 0.710449 14.9689C1.05111 15.0072 1.37863 15.02 1.7324 15.02C3.71078 15.02 5.53199 14.3687 6.98631 13.2577C5.12583 13.2194 3.56668 12.0318 3.02949 10.3972C3.29155 10.4354 3.55357 10.461 3.82874 10.461C4.20869 10.461 4.58867 10.4099 4.94241 10.3205C3.00331 9.93739 1.54894 8.27727 1.54894 6.27233V6.22127C2.11231 6.52776 2.76747 6.71931 3.46182 6.74482C2.32194 6.00413 1.57516 4.73988 1.57516 3.30959C1.57516 2.54339 1.78475 1.84102 2.15163 1.22804C4.23486 3.73102 7.36626 5.3656 10.8776 5.54441C10.8121 5.23792 10.7727 4.91869 10.7727 4.59943C10.7727 2.32629 12.6595 0.474609 15.0047 0.474609C16.2232 0.474609 17.3237 0.972651 18.0968 1.77718C19.0532 1.59841 19.9703 1.25359 20.7827 0.781099C20.4682 1.7389 19.8 2.54343 18.9222 3.0542C19.7739 2.96486 20.5993 2.73494 21.3592 2.41571C20.7828 3.23298 20.0621 3.96086 19.2367 4.54833Z"/>
</svg>
