<svg width="28" height="22" viewBox="0 0 28 22" fill="none" xmlns="http://www.w3.org/2000/svg">
<path d="M11.0343 8.63342L8.68066 13.7039L12.9938 18.8059C14.2418 19.9444 15.5007 19.4911 15.9277 18.5951C16.1247 18.1523 17.1756 15.907 17.1756 15.907L11.0343 8.63342Z" fill="url(#paint0_linear_331_4943)"/>
<path d="M21.9044 5.86102C19.496 11.0052 16.2338 17.8994 15.9382 18.6056C15.6864 19.217 14.745 19.8074 12.9277 18.7216C13.7269 19.7019 14.2961 20.3239 14.8982 20.8193C15.8397 21.6099 16.7921 21.8419 17.6897 21.8419C19.507 21.8419 20.9082 20.8088 21.576 19.3119C22.1014 18.1207 24.4222 13.2084 26.4693 8.73884C28.3413 4.58551 26.1519 5.13366 21.9044 5.86102Z" fill="url(#paint1_linear_331_4943)"/>
<path d="M15.0303 0.864423L19.2778 5.90324C19.2778 5.90324 24.5105 5.90323 25.4738 5.91378C26.5138 5.92432 27.2911 7.05225 26.4481 8.73888C26.7656 7.99044 27.7837 6.17731 27.8165 5.21804C27.8384 4.53285 27.8275 4.1639 27.5319 3.38383C27.0502 2.10831 25.4957 0.853882 23.6785 0.853882C21.1607 0.864423 15.0303 0.864423 15.0303 0.864423Z" fill="url(#paint2_linear_331_4943)"/>
<path d="M16.7927 13.2084L19.1463 8.13796L14.8332 3.0359C13.5852 1.89743 12.3263 2.35071 11.8993 3.24673C11.7023 3.68947 10.6514 5.9348 10.6514 5.9348L16.7927 13.2084Z" fill="url(#paint3_linear_331_4943)"/>
<path d="M5.94441 15.9492C8.35278 10.8155 11.6041 3.9425 11.8997 3.24677C12.1514 2.63536 13.0929 2.04504 14.9101 3.13081C14.111 2.15046 13.5417 1.52851 12.9396 1.03306C11.9982 0.242453 11.0567 0 10.1481 0C8.33088 0 6.92965 1.03306 6.27282 2.52995C5.74736 3.71059 3.39372 8.73886 1.37945 13.0925C1.14956 13.5985 0.985352 13.862 0.985352 14.3258C0.985352 17.2985 5.05769 15.9492 5.94441 15.9492Z" fill="url(#paint4_linear_331_4943)"/>
<path d="M12.7974 20.9775L8.54987 15.9387C8.54987 15.9387 3.31714 15.9387 2.35379 15.9281C1.31381 15.9176 0.536566 14.7897 1.3795 13.103C1.06203 13.8515 0.0439447 15.6646 0.0111033 16.6239C-0.010791 17.3091 0.000156121 17.678 0.295729 18.4581C0.766456 19.7125 2.32095 20.9775 4.13818 20.9775C6.66696 20.9775 12.7974 20.9775 12.7974 20.9775Z" fill="url(#paint5_linear_331_4943)"/>
<defs>
<linearGradient id="paint0_linear_331_4943" x1="8.8681" y1="10.9968" x2="17.2368" y2="18.8258" gradientUnits="userSpaceOnUse">
<stop stop-color="#77C8B0"/>
<stop offset="1" stop-color="#253E89"/>
</linearGradient>
<linearGradient id="paint1_linear_331_4943" x1="14.2732" y1="21.4067" x2="27.2579" y2="5.11011" gradientUnits="userSpaceOnUse">
<stop stop-color="#77C8B0"/>
<stop offset="1" stop-color="#253E89"/>
</linearGradient>
<linearGradient id="paint2_linear_331_4943" x1="28.3759" y1="5.63675" x2="14.3559" y2="1.37028" gradientUnits="userSpaceOnUse">
<stop stop-color="#77C8B0"/>
<stop offset="0.9102" stop-color="#253E89"/>
</linearGradient>
<linearGradient id="paint3_linear_331_4943" x1="10.6387" y1="7.78031" x2="19.1429" y2="7.78031" gradientUnits="userSpaceOnUse">
<stop offset="0.1475" stop-color="#253E89"/>
<stop offset="0.2335" stop-color="#2E528F"/>
<stop offset="0.3859" stop-color="#41719A"/>
<stop offset="0.5333" stop-color="#548DA2"/>
<stop offset="0.672" stop-color="#62A5A9"/>
<stop offset="0.7999" stop-color="#6EB7AC"/>
<stop offset="0.9132" stop-color="#75C2AE"/>
<stop offset="1" stop-color="#77C8B0"/>
</linearGradient>
<linearGradient id="paint4_linear_331_4943" x1="0.988811" y1="8.12894" x2="14.9078" y2="8.12894" gradientUnits="userSpaceOnUse">
<stop offset="0.1475" stop-color="#253E89"/>
<stop offset="0.1668" stop-color="#27458B"/>
<stop offset="0.2527" stop-color="#366094"/>
<stop offset="0.3429" stop-color="#46789C"/>
<stop offset="0.4356" stop-color="#548EA3"/>
<stop offset="0.5314" stop-color="#60A2A8"/>
<stop offset="0.6315" stop-color="#6AB1AB"/>
<stop offset="0.7377" stop-color="#72BDAD"/>
<stop offset="0.8541" stop-color="#76C4AF"/>
<stop offset="1" stop-color="#77C8B0"/>
</linearGradient>
<linearGradient id="paint5_linear_331_4943" x1="0.000156117" y1="17.0353" x2="12.7937" y2="17.0353" gradientUnits="userSpaceOnUse">
<stop stop-color="#77C8B0"/>
<stop offset="1" stop-color="#253E89"/>
</linearGradient>
</defs>
</svg>
