<svg width="296" height="37" viewBox="0 0 296 37" fill="none" xmlns="http://www.w3.org/2000/svg">
<path d="M117.584 19.5733L112.959 3.75184H104.737L99.8486 19.3764L95.2273 3.75184H89.3996H86.0178H74.6039H67.8402H65.8878V16.2363L55.9873 3.9753C55.874 3.83516 55.7059 3.75184 55.5267 3.75184H49.0555C48.7228 3.75184 48.4561 4.02835 48.4561 4.37304V31.2321H57.1719V18.7476L67.2515 31.2321H67.8402H74.6039H89.8932V24.2436H76.6291V20.6301H87.8458V13.956H76.6291V10.7364H88.1748L94.5034 31.2283H104.09L108.597 16.5469L112.879 31.2283H122.465L133.944 3.74805H124.859L117.584 19.5733Z" fill="#54EDC1"/>
<path d="M223.634 10.085C222.347 7.89943 220.567 6.19114 218.293 4.96012C216.018 3.72909 213.456 3.11548 210.6 3.11548C207.745 3.11548 205.182 3.72909 202.908 4.96012C200.7 6.15705 198.956 7.80095 197.676 9.89937C197.486 9.45242 197.263 9.0206 197.004 8.61152C196.02 7.04339 194.616 5.83892 192.799 5.00182C190.982 4.16473 188.847 3.74426 186.394 3.74426H173.623V6.30858C172.709 5.57754 171.7 4.96015 170.582 4.47153C168.523 3.57004 166.191 3.11548 163.591 3.11548C160.71 3.11548 158.129 3.72533 155.841 4.94121C153.556 6.15708 151.771 7.86156 150.499 10.0471C149.223 12.2326 148.587 14.7136 148.587 17.4863C148.587 18.0696 148.616 18.6415 148.675 19.1983L142.156 3.74805H133.363L121.182 31.2283H130.011L132.135 26.4405H142.723L144.503 31.2283H153.749L151.947 26.9595C153.011 28.1981 154.29 29.2207 155.786 30.0313C158.034 31.2472 160.572 31.857 163.401 31.857C165.397 31.857 167.43 31.554 169.503 30.9555C171.013 30.5161 172.384 29.9404 173.623 29.2245V31.2321H182.566V24.3231H184.99L189.498 31.2321H199.047L193.476 22.7513C194.448 22.2323 195.282 21.5998 195.98 20.8612C196.294 22.2967 196.821 23.6414 197.559 24.8913C198.846 27.0769 200.63 28.7851 202.904 30.0162C205.178 31.2472 207.741 31.8608 210.597 31.8608C213.452 31.8608 216.015 31.2472 218.289 30.0162C220.563 28.7851 222.343 27.0769 223.63 24.8913C224.921 22.7058 225.564 20.24 225.564 17.4901C225.564 14.7364 224.921 12.2705 223.634 10.085ZM135.071 19.7854L137.966 13.297L140.259 19.7589L135.071 19.7854ZM167.189 16.7363V23.6868C166.154 24.1338 165.068 24.3535 163.931 24.3535C162.012 24.3535 160.476 23.7247 159.328 22.4672C158.177 21.2096 157.603 19.5506 157.603 17.4825C157.603 15.3613 158.184 13.6871 159.347 12.4561C160.509 11.2251 162.074 10.6115 164.045 10.6115C166.344 10.6115 168.326 11.619 169.993 13.6341L173.62 10.3236V16.7363H167.189ZM188.555 16.4825C187.948 17.0469 187.037 17.3272 185.827 17.3272H182.57V10.888H185.827C187.041 10.888 187.948 11.1683 188.555 11.7326C189.161 12.297 189.465 13.0887 189.465 14.1076C189.465 15.1265 189.158 15.9219 188.555 16.4825ZM215.752 21.1149C215.222 22.149 214.509 22.9482 213.609 23.5088C212.714 24.0732 211.708 24.3535 210.597 24.3535C209.485 24.3535 208.48 24.0732 207.584 23.5088C206.688 22.9482 205.972 22.149 205.442 21.1149C204.912 20.0809 204.645 18.8726 204.645 17.4825C204.645 16.0924 204.912 14.8841 205.442 13.85C205.972 12.816 206.685 12.0167 207.584 11.4561C208.48 10.8955 209.485 10.6115 210.597 10.6115C211.708 10.6115 212.714 10.8918 213.609 11.4561C214.505 12.0205 215.218 12.816 215.752 13.85C216.282 14.8841 216.549 16.0962 216.549 17.4825C216.549 18.8688 216.282 20.0809 215.752 21.1149Z" fill="white"/>
<path d="M13.9741 14.3728L10.998 21.2855L16.4639 28.2398C18.0433 29.7928 19.641 29.1716 20.1857 27.9481C20.438 27.3497 21.7724 24.2778 21.7724 24.2778L13.9741 14.3728Z" fill="url(#paint0_linear_351_4774)"/>
<path d="M27.7425 10.5812C24.697 17.5886 20.5583 26.986 20.1818 27.9443C19.8564 28.7739 18.6683 29.5768 16.3613 28.111C17.3814 29.4518 18.1016 30.2965 18.8511 30.9707C20.0466 32.0465 21.2458 32.3722 22.3864 32.3722C24.6934 32.3722 26.4664 30.9594 27.3037 28.9253C27.9691 27.308 30.9158 20.6112 33.4969 14.5205C35.9099 8.84263 33.1241 9.59264 27.7425 10.5812Z" fill="url(#paint1_linear_351_4774)"/>
<path d="M19.041 3.78223L24.4192 10.6494C24.4192 10.6494 31.0512 10.657 32.265 10.6684C33.5884 10.6835 34.5609 12.2214 33.5007 14.5168C33.9065 13.4941 35.1934 11.0245 35.2373 9.72525C35.2702 8.79346 35.2555 8.28587 34.8825 7.22908C34.2756 5.49807 32.3051 3.78223 29.9982 3.78223C26.7992 3.78223 19.041 3.78223 19.041 3.78223Z" fill="url(#paint2_linear_351_4774)"/>
<path d="M21.2739 20.596L24.2498 13.6834L18.7841 6.72905C17.2047 5.17606 15.607 5.79726 15.0622 7.02071C14.81 7.61918 13.4756 10.691 13.4756 10.691L21.2739 20.596Z" fill="url(#paint3_linear_351_4774)"/>
<path d="M7.52393 24.3422C10.5694 17.3387 14.6861 7.9829 15.0627 7.0246C15.3881 6.19508 16.5763 5.39205 18.8833 6.85791C17.8633 5.51704 17.143 4.6724 16.3935 3.99818C15.198 2.92245 13.9988 2.59668 12.8617 2.59668C10.5548 2.59668 8.78175 4.00955 7.94452 6.04358C7.27912 7.66095 4.30315 14.5092 1.75125 20.4484C1.45877 21.1264 1.25391 21.4863 1.25391 22.115C1.25025 26.1793 6.40885 24.3422 7.52393 24.3422Z" fill="url(#paint4_linear_351_4774)"/>
<path d="M16.2076 31.1828L10.8296 24.3156C10.8296 24.3156 4.19765 24.308 2.98385 24.2966C1.66038 24.2815 0.687921 22.7436 1.74817 20.4482C1.34235 21.4709 0.055431 23.9406 0.0115589 25.2398C-0.0213453 26.1716 -0.00664263 26.6791 0.366271 27.7359C0.973169 29.4669 2.94371 31.1828 5.25065 31.1828C8.44967 31.1828 16.2076 31.1828 16.2076 31.1828Z" fill="url(#paint5_linear_351_4774)"/>
<path d="M266.425 31.2322L269.499 13.0093H275.185L272.04 31.2322H266.425ZM276.384 6.89588C276.384 7.3845 276.3 7.83523 276.135 8.24809C275.971 8.66474 275.74 9.03593 275.448 9.36546C275.155 9.695 274.808 9.95258 274.406 10.1344C274.004 10.3162 273.569 10.4071 273.101 10.4071C272.205 10.4071 271.47 10.1344 270.892 9.58518C270.315 9.03596 270.026 8.3352 270.026 7.47916C270.026 6.4792 270.348 5.6421 270.998 4.97167C271.646 4.30124 272.439 3.96411 273.382 3.96411C274.252 3.96411 274.973 4.24444 275.536 4.80503C276.102 5.37319 276.384 6.06636 276.384 6.89588Z" fill="#54EDC1"/>
<path d="M284.226 15.6418C284.793 14.7403 285.546 13.9941 286.486 13.4108C287.425 12.8237 288.511 12.532 289.736 12.532C290.727 12.532 291.571 12.6797 292.28 12.9714C292.986 13.263 293.571 13.6683 294.028 14.1797C294.489 14.691 294.821 15.2819 295.033 15.9561C295.245 16.6266 295.351 17.3273 295.351 18.0622C295.351 18.403 295.341 18.7401 295.315 19.0697C295.289 19.3992 295.245 19.7212 295.172 20.0394L293.264 31.2359H287.612L289.271 21.3802C289.388 20.8196 289.447 20.3083 289.447 19.8462C289.447 19.1644 289.275 18.5887 288.935 18.1114C288.595 17.6379 287.988 17.3993 287.118 17.3993C286.599 17.3993 286.135 17.5015 285.721 17.7099C285.308 17.9182 284.943 18.2023 284.625 18.5659C284.307 18.9295 284.047 19.3575 283.85 19.8424C283.648 20.3272 283.502 20.8386 283.407 21.3764L281.711 31.2322H276.059L278.497 16.7781C278.592 16.316 278.691 15.7175 278.797 14.9865C278.903 14.2555 278.98 13.5963 279.027 13.0092H284.431C284.409 13.3009 284.365 13.7176 284.307 14.2516C284.248 14.7895 284.193 15.2516 284.146 15.6418H284.226Z" fill="#54EDC1"/>
<path d="M263.723 17.1266C263.262 16.138 262.633 15.2972 261.833 14.6002C261.032 13.9033 260.078 13.3729 258.97 13.0093C257.862 12.6419 256.663 12.4601 255.369 12.4601C253.698 12.4601 252.203 12.7669 250.883 13.3768C249.563 13.9866 248.441 14.8047 247.508 15.8274C247.402 15.9449 247.3 16.0623 247.201 16.1835L247.198 16.1683C247.198 16.1683 241.187 22.2098 241.125 22.2818L239.831 23.5848C238.898 24.4635 237.813 25.3764 237.217 25.6718C236.226 26.1604 235.18 26.4029 234.073 26.4029C233.082 26.4029 232.208 26.2324 231.44 25.8915C230.673 25.5506 230.033 25.0847 229.514 24.5014C228.994 23.9143 228.599 23.2249 228.329 22.4333C228.058 21.6416 227.923 20.8045 227.923 19.9258C227.923 18.6569 228.128 17.4334 228.541 16.2479C228.954 15.0661 229.532 14.0169 230.27 13.1002C231.012 12.1836 231.894 11.4526 232.921 10.9033C233.945 10.3541 235.082 10.0814 236.328 10.0814C237.505 10.0814 238.489 10.3238 239.279 10.8124C240.068 11.3011 240.661 11.8616 241.063 12.4942L245.406 8.4678C244.606 7.34662 243.417 6.42623 241.838 5.70655C240.8 5.23308 239.677 4.91869 238.467 4.75582L239.334 0.672603L237.166 0.180176L236.222 4.63459C234.211 4.66868 232.34 5.08155 230.607 5.87319C228.793 6.70271 227.221 7.84284 225.89 9.29355C224.56 10.7443 223.518 12.4487 222.765 14.3994C222.011 16.3501 221.635 18.4372 221.635 20.6568C221.635 22.3386 221.905 23.8764 222.446 25.2666C222.988 26.6567 223.752 27.846 224.742 28.8346C225.733 29.8232 226.932 30.5846 228.344 31.1224C229.016 31.3762 229.733 31.5694 230.486 31.7057L229.572 36.02L231.74 36.5124L232.713 31.9178C232.844 31.9216 232.976 31.9254 233.111 31.9254C234.31 31.9254 235.411 31.808 236.412 31.5769C237.414 31.3459 238.332 31.0277 239.169 30.6262C240.006 30.2247 240.745 29.7588 241.396 29.2361C242.043 28.7134 244.079 26.668 244.576 26.1074L244.869 25.7855C244.979 26.2362 245.128 26.668 245.319 27.0771C245.779 28.0657 246.401 28.9066 247.19 29.6035C247.98 30.3005 248.92 30.8307 250.016 31.1944C251.113 31.5618 252.294 31.7436 253.567 31.7436C255.263 31.7436 256.776 31.4444 258.107 30.8459C259.438 30.2475 260.575 29.4369 261.515 28.4142C262.454 27.3877 263.174 26.1945 263.668 24.8272C264.162 23.4598 264.41 22.0091 264.41 20.4712C264.41 19.2289 264.18 18.1114 263.723 17.1266ZM258.476 23.3272C258.239 24.0355 257.906 24.6567 257.471 25.1946C257.036 25.7324 256.51 26.1528 255.899 26.4559C255.285 26.7627 254.605 26.9142 253.852 26.9142C252.674 26.9142 251.768 26.5544 251.132 25.8347C250.495 25.115 250.177 24.206 250.177 23.1075C250.177 22.3272 250.294 21.5848 250.532 20.8765C250.766 20.1682 251.099 19.547 251.523 19.0092C251.947 18.4713 252.466 18.0471 253.076 17.7289C253.687 17.4107 254.371 17.2516 255.124 17.2516C256.301 17.2516 257.215 17.6191 257.862 18.3501C258.509 19.0811 258.835 19.9978 258.835 21.0962C258.831 21.8765 258.71 22.6189 258.476 23.3272Z" fill="#54EDC1"/>
<defs>
<linearGradient id="paint0_linear_351_4774" x1="20.2982" y1="26.6169" x2="7.35992" y2="14.0086" gradientUnits="userSpaceOnUse">
<stop stop-color="#093493"/>
<stop offset="0.6446" stop-color="#54EDC1"/>
</linearGradient>
<linearGradient id="paint1_linear_351_4774" x1="18.0819" y1="31.7746" x2="36.025" y2="10.8441" gradientUnits="userSpaceOnUse">
<stop stop-color="#54EDC1"/>
<stop offset="1" stop-color="#093493"/>
</linearGradient>
<linearGradient id="paint2_linear_351_4774" x1="35.8853" y1="10.1414" x2="17.9174" y2="5.05929" gradientUnits="userSpaceOnUse">
<stop stop-color="#54EDC1"/>
<stop offset="1" stop-color="#093493"/>
</linearGradient>
<linearGradient id="paint3_linear_351_4774" x1="13.2832" y1="5.68791" x2="24.778" y2="18.3507" gradientUnits="userSpaceOnUse">
<stop stop-color="#093493"/>
<stop offset="1" stop-color="#54EDC1"/>
</linearGradient>
<linearGradient id="paint4_linear_351_4774" x1="17.1365" y1="3.21939" x2="-0.182427" y2="23.4222" gradientUnits="userSpaceOnUse">
<stop stop-color="#54EDC1"/>
<stop offset="1" stop-color="#093493"/>
</linearGradient>
<linearGradient id="paint5_linear_351_4774" x1="-0.269615" y1="25.8624" x2="12.9266" y2="25.8014" gradientUnits="userSpaceOnUse">
<stop stop-color="#54EDC1"/>
<stop offset="1" stop-color="#093493"/>
</linearGradient>
</defs>
</svg>
