<svg width="28" height="22" viewBox="0 0 28 22" fill="none" xmlns="http://www.w3.org/2000/svg">
<path d="M11.0348 8.63342L8.68115 13.7039L12.9943 18.8059C14.2423 19.9444 15.5012 19.4911 15.9282 18.5951C16.1252 18.1523 17.1761 15.907 17.1761 15.907L11.0348 8.63342Z" fill="url(#paint0_linear_1648_112)"/>
<path d="M21.9054 5.86101C19.497 11.0052 16.2347 17.8993 15.9392 18.6056C15.6874 19.217 14.7459 19.8073 12.9287 18.7216C13.7279 19.7019 14.2971 20.3239 14.8992 20.8193C15.8406 21.6099 16.793 21.8418 17.6907 21.8418C19.5079 21.8418 20.9092 20.8088 21.5769 19.3119C22.1024 18.1207 24.4232 13.2084 26.4703 8.73882C28.3423 4.58549 26.1528 5.13365 21.9054 5.86101Z" fill="url(#paint1_linear_1648_112)"/>
<path d="M15.0305 0.864377L19.278 5.90319C19.278 5.90319 24.5107 5.90319 25.4741 5.91373C26.5141 5.92427 27.2913 7.05221 26.4484 8.73884C26.7659 7.9904 27.7839 6.17727 27.8168 5.218C27.8387 4.5328 27.8277 4.16385 27.5322 3.38378C27.0505 2.10827 25.496 0.853836 23.6788 0.853836C21.1609 0.864378 15.0305 0.864377 15.0305 0.864377Z" fill="url(#paint2_linear_1648_112)"/>
<path d="M16.7932 13.2084L19.1468 8.13799L14.8337 3.03593C13.5857 1.89746 12.3268 2.35074 11.8998 3.24676C11.7028 3.6895 10.6519 5.93483 10.6519 5.93483L16.7932 13.2084Z" fill="url(#paint3_linear_1648_112)"/>
<path d="M5.94465 15.9492C8.35302 10.8155 11.6043 3.9425 11.8999 3.24677C12.1517 2.63536 13.0931 2.04504 14.9104 3.13081C14.1112 2.15046 13.542 1.52851 12.9399 1.03306C11.9984 0.242453 11.057 0 10.1484 0C8.33113 0 6.92989 1.03306 6.27306 2.52995C5.7476 3.71059 3.39397 8.73886 1.37969 13.0925C1.1498 13.5985 0.985596 13.862 0.985596 14.3258C0.985596 17.2985 5.05793 15.9492 5.94465 15.9492Z" fill="url(#paint4_linear_1648_112)"/>
<path d="M12.7974 20.9775L8.54987 15.9386C8.54987 15.9386 3.31714 15.9386 2.35379 15.9281C1.31381 15.9176 0.536566 14.7896 1.3795 13.103C1.06203 13.8514 0.0439447 15.6646 0.0111033 16.6238C-0.010791 17.309 0.000156121 17.678 0.295729 18.4581C0.766456 19.7125 2.32095 20.9775 4.13818 20.9775C6.66696 20.9775 12.7974 20.9775 12.7974 20.9775Z" fill="url(#paint5_linear_1648_112)"/>
<defs>
<linearGradient id="paint0_linear_1648_112" x1="8.86859" y1="10.9968" x2="17.2373" y2="18.8258" gradientUnits="userSpaceOnUse">
<stop stop-color="#77C8B0"/>
<stop offset="1" stop-color="#253E89"/>
</linearGradient>
<linearGradient id="paint1_linear_1648_112" x1="14.2742" y1="21.4067" x2="27.2589" y2="5.11009" gradientUnits="userSpaceOnUse">
<stop stop-color="#77C8B0"/>
<stop offset="1" stop-color="#253E89"/>
</linearGradient>
<linearGradient id="paint2_linear_1648_112" x1="28.3762" y1="5.6367" x2="14.3562" y2="1.37023" gradientUnits="userSpaceOnUse">
<stop stop-color="#77C8B0"/>
<stop offset="0.9102" stop-color="#253E89"/>
</linearGradient>
<linearGradient id="paint3_linear_1648_112" x1="10.6392" y1="7.78034" x2="19.1433" y2="7.78034" gradientUnits="userSpaceOnUse">
<stop offset="0.1475" stop-color="#253E89"/>
<stop offset="0.2335" stop-color="#2E528F"/>
<stop offset="0.3859" stop-color="#41719A"/>
<stop offset="0.5333" stop-color="#548DA2"/>
<stop offset="0.672" stop-color="#62A5A9"/>
<stop offset="0.7999" stop-color="#6EB7AC"/>
<stop offset="0.9132" stop-color="#75C2AE"/>
<stop offset="1" stop-color="#77C8B0"/>
</linearGradient>
<linearGradient id="paint4_linear_1648_112" x1="0.989055" y1="8.12894" x2="14.9081" y2="8.12894" gradientUnits="userSpaceOnUse">
<stop offset="0.1475" stop-color="#253E89"/>
<stop offset="0.1668" stop-color="#27458B"/>
<stop offset="0.2527" stop-color="#366094"/>
<stop offset="0.3429" stop-color="#46789C"/>
<stop offset="0.4356" stop-color="#548EA3"/>
<stop offset="0.5314" stop-color="#60A2A8"/>
<stop offset="0.6315" stop-color="#6AB1AB"/>
<stop offset="0.7377" stop-color="#72BDAD"/>
<stop offset="0.8541" stop-color="#76C4AF"/>
<stop offset="1" stop-color="#77C8B0"/>
</linearGradient>
<linearGradient id="paint5_linear_1648_112" x1="0.000156117" y1="17.0352" x2="12.7937" y2="17.0352" gradientUnits="userSpaceOnUse">
<stop stop-color="#77C8B0"/>
<stop offset="1" stop-color="#253E89"/>
</linearGradient>
</defs>
</svg>
