<svg width="181" height="22" viewBox="0 0 181 22" fill="none" xmlns="http://www.w3.org/2000/svg">
<g clip-path="url(#clip0_331_4942)">
<path d="M11.0343 8.63342L8.68066 13.7039L12.9938 18.8059C14.2418 19.9444 15.5007 19.4911 15.9277 18.5951C16.1247 18.1523 17.1756 15.907 17.1756 15.907L11.0343 8.63342Z" fill="url(#paint0_linear_331_4942)"/>
<path d="M21.9044 5.86102C19.496 11.0052 16.2338 17.8994 15.9382 18.6056C15.6864 19.217 14.745 19.8074 12.9277 18.7216C13.7269 19.7019 14.2961 20.3239 14.8982 20.8193C15.8397 21.6099 16.7921 21.8419 17.6897 21.8419C19.507 21.8419 20.9082 20.8088 21.576 19.3119C22.1014 18.1207 24.4222 13.2084 26.4693 8.73884C28.3413 4.58551 26.1519 5.13366 21.9044 5.86102Z" fill="url(#paint1_linear_331_4942)"/>
<path d="M15.0303 0.864423L19.2778 5.90324C19.2778 5.90324 24.5105 5.90323 25.4738 5.91378C26.5138 5.92432 27.2911 7.05225 26.4481 8.73888C26.7656 7.99044 27.7837 6.17731 27.8165 5.21804C27.8384 4.53285 27.8275 4.1639 27.5319 3.38383C27.0502 2.10831 25.4957 0.853882 23.6785 0.853882C21.1607 0.864423 15.0303 0.864423 15.0303 0.864423Z" fill="url(#paint2_linear_331_4942)"/>
<path d="M16.7927 13.2084L19.1463 8.13796L14.8332 3.0359C13.5852 1.89743 12.3263 2.35071 11.8993 3.24673C11.7023 3.68947 10.6514 5.9348 10.6514 5.9348L16.7927 13.2084Z" fill="url(#paint3_linear_331_4942)"/>
<path d="M5.94441 15.9492C8.35278 10.8155 11.6041 3.9425 11.8997 3.24677C12.1514 2.63536 13.0929 2.04504 14.9101 3.13081C14.111 2.15046 13.5417 1.52851 12.9396 1.03306C11.9982 0.242453 11.0567 0 10.1481 0C8.33088 0 6.92965 1.03306 6.27282 2.52995C5.74736 3.71059 3.39372 8.73886 1.37945 13.0925C1.14956 13.5985 0.985352 13.862 0.985352 14.3258C0.985352 17.2985 5.05769 15.9492 5.94441 15.9492Z" fill="url(#paint4_linear_331_4942)"/>
<path d="M12.7974 20.9775L8.54987 15.9387C8.54987 15.9387 3.31714 15.9387 2.35379 15.9281C1.31381 15.9176 0.536566 14.7897 1.3795 13.103C1.06203 13.8515 0.0439447 15.6646 0.0111033 16.6239C-0.010791 17.3091 0.000156121 17.678 0.295729 18.4581C0.766456 19.7125 2.32095 20.9775 4.13818 20.9775C6.66696 20.9775 12.7974 20.9775 12.7974 20.9775Z" fill="url(#paint5_linear_331_4942)"/>
<path d="M94.1126 12.8079L90.3906 0.969849H83.7785L79.8485 12.6603L76.1265 0.969849H71.4411H68.7153H59.5306H54.0899H52.5245V10.3096L44.5549 1.13851C44.4674 1.0331 44.3251 0.969849 44.1827 0.969849H38.9719C38.7092 0.969849 38.4902 1.18068 38.4902 1.43367V21.5257H45.5073V12.1859L53.6192 21.5257H54.0899H59.5306H71.8352V16.2971H61.1618V13.5985H70.1822V8.6124H61.1618V6.20895H70.4559L75.5463 21.5362H83.264L86.8875 10.552L90.3359 21.5362H98.0536L107.282 0.98039H99.9693L94.1126 12.8079Z" fill="#77C8B0"/>
<path d="M179.446 5.71346C178.406 4.07953 176.972 2.80402 175.143 1.88691C173.315 0.969805 171.246 0.505981 168.958 0.505981C166.659 0.505981 164.601 0.969805 162.773 1.88691C161 2.78293 159.598 4.01628 158.569 5.57642C158.416 5.23909 158.241 4.92285 158.033 4.61715C157.245 3.44705 156.117 2.54048 154.65 1.91854C153.183 1.29659 151.465 0.980347 149.494 0.980347H139.215V2.89889C138.481 2.35074 137.671 1.88691 136.763 1.5285C135.11 0.853849 133.227 0.516523 131.136 0.516523C128.815 0.516523 126.735 0.969805 124.896 1.87637C123.057 2.78293 121.623 4.05845 120.594 5.69237C119.565 7.3263 119.05 9.18159 119.05 11.2583C119.05 11.6905 119.072 12.1227 119.116 12.5338L113.883 0.969805H106.811L97.0137 21.5256H104.118L105.826 17.9415H114.343L115.777 21.5256H123.221L121.776 18.3316C122.63 19.2592 123.659 20.0182 124.863 20.6296C126.669 21.5362 128.717 22 130.994 22C132.603 22 134.234 21.7786 135.898 21.3253C137.113 20.9986 138.219 20.5664 139.215 20.0287V21.5256H146.407V16.3603H148.356L151.979 21.5256H159.664L155.187 15.1797C155.975 14.7896 156.643 14.3153 157.201 13.7671C157.453 14.8424 157.88 15.8438 158.471 16.782C159.511 18.4159 160.945 19.6914 162.773 20.6085C164.601 21.5256 166.67 21.9895 168.958 21.9895C171.257 21.9895 173.315 21.5256 175.143 20.6085C176.972 19.6914 178.406 18.4159 179.446 16.782C180.486 15.1481 181 13.3033 181 11.2477C181 9.19213 180.486 7.34738 179.446 5.71346ZM108.191 12.9765L110.522 8.12745L112.362 12.966L108.191 12.9765ZM134.037 10.689V15.886C133.205 16.2233 132.329 16.3814 131.41 16.3814C129.866 16.3814 128.629 15.907 127.709 14.9689C126.779 14.0307 126.319 12.7868 126.319 11.2372C126.319 9.65596 126.79 8.40153 127.72 7.47388C128.651 6.55677 129.921 6.09295 131.497 6.09295C133.347 6.09295 134.945 6.85193 136.281 8.34882L139.204 5.87158V10.6679H134.037V10.689ZM151.224 10.4993C150.731 10.9209 150.009 11.1318 149.024 11.1318H146.396V6.31432H149.024C149.998 6.31432 150.731 6.52515 151.224 6.94681C151.716 7.36847 151.957 7.95879 151.957 8.72831C151.957 9.4873 151.706 10.0776 151.224 10.4993ZM173.107 13.9674C172.68 14.7369 172.111 15.3378 171.388 15.7595C170.666 16.1811 169.856 16.3919 168.969 16.3919C168.072 16.3919 167.261 16.1811 166.55 15.7595C165.827 15.3378 165.258 14.7369 164.831 13.9674C164.404 13.1979 164.185 12.2913 164.185 11.2477C164.185 10.2041 164.404 9.30809 164.831 8.52802C165.258 7.7585 165.827 7.15764 166.55 6.73598C167.272 6.31432 168.082 6.10349 168.969 6.10349C169.867 6.10349 170.666 6.31432 171.388 6.73598C172.111 7.15764 172.68 7.7585 173.107 8.52802C173.534 9.29755 173.742 10.2041 173.742 11.2477C173.742 12.2913 173.534 13.1979 173.107 13.9674Z" fill="white"/>
</g>
<defs>
<linearGradient id="paint0_linear_331_4942" x1="8.8681" y1="10.9968" x2="17.2368" y2="18.8258" gradientUnits="userSpaceOnUse">
<stop stop-color="#77C8B0"/>
<stop offset="1" stop-color="#253E89"/>
</linearGradient>
<linearGradient id="paint1_linear_331_4942" x1="14.2732" y1="21.4067" x2="27.2579" y2="5.11011" gradientUnits="userSpaceOnUse">
<stop stop-color="#77C8B0"/>
<stop offset="1" stop-color="#253E89"/>
</linearGradient>
<linearGradient id="paint2_linear_331_4942" x1="28.3759" y1="5.63675" x2="14.3559" y2="1.37028" gradientUnits="userSpaceOnUse">
<stop stop-color="#77C8B0"/>
<stop offset="0.9102" stop-color="#253E89"/>
</linearGradient>
<linearGradient id="paint3_linear_331_4942" x1="10.6387" y1="7.78031" x2="19.1429" y2="7.78031" gradientUnits="userSpaceOnUse">
<stop offset="0.1475" stop-color="#253E89"/>
<stop offset="0.2335" stop-color="#2E528F"/>
<stop offset="0.3859" stop-color="#41719A"/>
<stop offset="0.5333" stop-color="#548DA2"/>
<stop offset="0.672" stop-color="#62A5A9"/>
<stop offset="0.7999" stop-color="#6EB7AC"/>
<stop offset="0.9132" stop-color="#75C2AE"/>
<stop offset="1" stop-color="#77C8B0"/>
</linearGradient>
<linearGradient id="paint4_linear_331_4942" x1="0.988811" y1="8.12894" x2="14.9078" y2="8.12894" gradientUnits="userSpaceOnUse">
<stop offset="0.1475" stop-color="#253E89"/>
<stop offset="0.1668" stop-color="#27458B"/>
<stop offset="0.2527" stop-color="#366094"/>
<stop offset="0.3429" stop-color="#46789C"/>
<stop offset="0.4356" stop-color="#548EA3"/>
<stop offset="0.5314" stop-color="#60A2A8"/>
<stop offset="0.6315" stop-color="#6AB1AB"/>
<stop offset="0.7377" stop-color="#72BDAD"/>
<stop offset="0.8541" stop-color="#76C4AF"/>
<stop offset="1" stop-color="#77C8B0"/>
</linearGradient>
<linearGradient id="paint5_linear_331_4942" x1="0.000156117" y1="17.0353" x2="12.7937" y2="17.0353" gradientUnits="userSpaceOnUse">
<stop stop-color="#77C8B0"/>
<stop offset="1" stop-color="#253E89"/>
</linearGradient>
<clipPath id="clip0_331_4942">
<rect width="181" height="22" fill="white"/>
</clipPath>
</defs>
</svg>
