<?xml version="1.0" encoding="utf-8"?>
<!-- Generator: Adobe Illustrator 25.0.1, SVG Export Plug-In . SVG Version: 6.00 Build 0)  -->
<svg version="1.1" id="Capa_1" xmlns="http://www.w3.org/2000/svg" xmlns:xlink="http://www.w3.org/1999/xlink" x="0px" y="0px"
	 viewBox="0 0 32 32" style="enable-background:new 0 0 32 32;" xml:space="preserve">
<style type="text/css">
	.st0{fill:#FFFFFF;}
	.st1{fill:#662E91;}
</style>
<circle class="st0" cx="16" cy="16" r="16"/>
<path class="st1" d="M11,15c0-0.1,0-0.3,0.1-0.4c0-0.1,0.1-0.2,0.2-0.3c0.1-0.1,0.2-0.2,0.3-0.2S11.9,14,12,14c0.1,0,0.3,0,0.4,0.1
	c0.1,0.1,0.2,0.1,0.3,0.2l3.3,3.3l3.3-3.2c0.2-0.2,0.4-0.3,0.7-0.3c0.3,0,0.5,0.1,0.7,0.3c0.1,0.1,0.2,0.2,0.2,0.3
	C21,14.9,21,15,21,15.1c0,0.1,0,0.3-0.1,0.4c-0.1,0.1-0.1,0.2-0.2,0.3l-4,3.9C16.5,19.9,16.3,20,16,20c-0.3,0-0.5-0.1-0.7-0.3l-4-4
	c-0.1-0.1-0.2-0.2-0.2-0.3C11,15.3,11,15.1,11,15z"/>
</svg>
