<svg width="13" height="21" viewBox="0 0 13 21" fill="none" xmlns="http://www.w3.org/2000/svg">
<path d="M2.99988 21.0003C2.73666 21.0019 2.47574 20.9514 2.23207 20.8519C1.98839 20.7524 1.76676 20.6057 1.57988 20.4203C1.39242 20.2344 1.24363 20.0132 1.1421 19.7695C1.04056 19.5258 0.988281 19.2644 0.988281 19.0003C0.988281 18.7363 1.04056 18.4749 1.1421 18.2312C1.24363 17.9875 1.39242 17.7663 1.57988 17.5803L8.19988 11.0003L1.83988 4.38035C1.46738 4.00562 1.25829 3.49872 1.25829 2.97035C1.25829 2.44197 1.46738 1.93507 1.83988 1.56035C2.0258 1.37289 2.24701 1.2241 2.49072 1.12256C2.73444 1.02103 2.99585 0.96875 3.25988 0.96875C3.5239 0.96875 3.78531 1.02103 4.02903 1.12256C4.27275 1.2241 4.49395 1.37289 4.67988 1.56035L12.3999 9.56035C12.7663 9.9342 12.9716 10.4368 12.9716 10.9603C12.9716 11.4839 12.7663 11.9865 12.3999 12.3603L4.39988 20.3603C4.22036 20.5542 4.00421 20.7106 3.76392 20.8204C3.52362 20.9303 3.26394 20.9914 2.99988 21.0003Z" fill="#093493"/>
</svg>
