<?xml version="1.0" encoding="utf-8"?>
<!-- Generator: Adobe Illustrator 25.0.1, SVG Export Plug-In . SVG Version: 6.00 Build 0)  -->
<svg version="1.1" id="Capa_1" xmlns="http://www.w3.org/2000/svg" xmlns:xlink="http://www.w3.org/1999/xlink" x="0px" y="0px"
	 viewBox="0 0 60 60" style="enable-background:new 0 0 60 60;" xml:space="preserve">
<style type="text/css">
	.st0{fill:none;stroke:#59C19C;stroke-width:2.1473;stroke-miterlimit:10;}
	.st1{fill:#59C19C;}
	.st2{fill:#FFFFFF;}
</style>
<path class="st0" d="M30,58c15.5,0,28-12.5,28-28S45.5,2,30,2S2,14.5,2,30S14.5,58,30,58z"/>
<path class="st1" d="M30,55.4C44,55.4,55.4,44,55.4,30C55.4,16,44,4.6,30,4.6C16,4.6,4.6,16,4.6,30C4.6,44,16,55.4,30,55.4z"/>
<path class="st2" d="M42.7,33.7c-0.5,0.2-1,0.4-1.6,0.4c-0.5,0-1-0.1-1.3-0.3c-0.4-0.2-0.7-0.4-1-0.7c-0.3-0.3-0.5-0.6-0.6-1
	c-0.1-0.4-0.2-0.8-0.2-1.2c0-0.6,0.1-1.2,0.3-1.8c0.2-0.6,0.5-1.1,0.9-1.6c0.4-0.4,0.8-0.8,1.3-1.1c0.5-0.3,1.1-0.4,1.7-0.4
	c0.6,0,1.1,0.1,1.5,0.4c0.4,0.2,0.7,0.5,0.9,0.8l2.2-2c-0.4-0.6-1-1-1.8-1.4c-0.5-0.2-1-0.3-1.5-0.4l0.5-2.2L42.8,21l-0.5,2.3
	c-1.1,0-2.1,0.2-3,0.6c-0.9,0.4-1.7,1-2.4,1.7c-0.4,0.4-0.7,0.9-1,1.3l-1.8-4.2h-4.6l-2.6,5.6v-5.6h-4.6v6.4l-5.2-6.3
	c-0.1-0.1-0.2-0.1-0.2-0.1h-3.4c-0.2,0-0.3,0.1-0.3,0.3v13.7h4.6v-6.4l5.3,6.4l4.7,0l1.1-2.4h5.6l0.9,2.4h4l-0.5,2.4l1.2,0.3
	l0.6-2.7c0.6,0,1.2-0.1,1.7-0.2c0.5-0.1,1-0.3,1.4-0.5c0.4-0.2,0.8-0.4,1.1-0.7c0.3-0.3,0.6-0.5,0.9-0.8l-1.7-2
	C43.6,33.1,43.2,33.4,42.7,33.7z M30.4,30.9l1.5-3.3l1.2,3.3L30.4,30.9z"/>
</svg>
