<svg width="60" height="60" viewBox="0 0 60 60" fill="none" xmlns="http://www.w3.org/2000/svg">
<path d="M30 58C45.464 58 58 45.464 58 30C58 14.536 45.464 2 30 2C14.536 2 2 14.536 2 30C2 45.464 14.536 58 30 58Z" stroke="#33CCFF" stroke-width="2.1473" stroke-miterlimit="10"/>
<path d="M30 55.3676C44.01 55.3676 55.3674 44.0102 55.3674 30.0001C55.3674 15.9901 44.01 4.63263 30 4.63263C15.9899 4.63263 4.63251 15.9901 4.63251 30.0001C4.63251 44.0102 15.9899 55.3676 30 55.3676Z" fill="#33CCFF"/>
<path d="M42.7313 33.6688C42.2272 33.9097 41.6951 34.0273 41.1294 34.0273C40.6253 34.0273 40.1772 33.9433 39.7852 33.7753C39.3931 33.6072 39.0682 33.3776 38.805 33.0919C38.5417 32.8063 38.3401 32.4646 38.2001 32.0725C38.06 31.6804 37.9928 31.2716 37.9928 30.8403C37.9928 30.2186 38.0992 29.6136 38.3065 29.0311C38.5137 28.4486 38.8106 27.9333 39.1914 27.4796C39.5723 27.0315 40.0204 26.6674 40.5413 26.3986C41.0622 26.1297 41.6447 25.9953 42.2777 25.9953C42.877 25.9953 43.3811 26.1129 43.7844 26.3538C44.1876 26.5946 44.4901 26.8691 44.6917 27.1827L46.9098 25.1999C46.5009 24.6454 45.896 24.1917 45.0894 23.8389C44.6189 23.6316 44.1148 23.4916 43.5771 23.4076L44.0476 21.2567L42.8434 20.9935L42.3337 23.3124C41.2639 23.318 40.2725 23.5196 39.3595 23.9229C38.4353 24.3318 37.6343 24.8919 36.9566 25.6088C36.5701 26.0121 36.2397 26.4658 35.9484 26.9531L34.1056 22.7354H29.4623L26.9082 28.2917V22.741H22.3041V29.1095L17.0726 22.8531C17.011 22.7803 16.9214 22.741 16.8318 22.741H13.4151C13.2415 22.741 13.0958 22.8811 13.0958 23.0603V36.7607H17.6999V30.3922L23.0266 36.7607L27.6923 36.7551L28.8126 34.3129H34.4081L35.3491 36.7551H39.3931L38.861 39.1803L40.0652 39.4436L40.6534 36.7551C41.2639 36.7551 41.8184 36.6991 42.3281 36.5814C42.8378 36.4694 43.3083 36.3126 43.734 36.1109C44.1597 35.9149 44.5405 35.6853 44.871 35.4276C45.2014 35.1699 45.4927 34.9011 45.7448 34.6266L44.07 32.6438C43.5771 33.1199 43.2354 33.428 42.7313 33.6688ZM30.3641 30.9131L31.8932 27.6028L33.103 30.8963L30.3641 30.9131Z" fill="white"/>
</svg>
