<svg width="55" height="55" viewBox="0 0 55 55" fill="none" xmlns="http://www.w3.org/2000/svg">
<circle cx="27.5989" cy="27.4011" r="27.4011" fill="#662E91"/>
<path d="M14.6322 33.2983C14.2692 33.2983 13.9722 33.0013 13.9722 32.6383V14.2275C13.9722 13.8645 14.2692 13.5675 14.6322 13.5675H31.6858C34.363 13.5675 37.4322 17.0863 39.4659 19.4171C40.0888 20.1307 40.7942 20.9393 41.0211 21.0671C41.4047 21.2858 42.0441 21.4714 42.6588 21.6529C43.7561 21.9746 44.8905 22.3047 45.4928 23.0018C45.732 23.2782 45.7032 23.6949 45.4268 23.9341C45.1504 24.1734 44.7338 24.1445 44.4945 23.8681C44.1439 23.468 43.1579 23.1792 42.2875 22.9235C41.5656 22.7131 40.8808 22.5109 40.3652 22.218C39.965 21.987 39.4412 21.3971 38.4717 20.2875C36.7103 18.2703 33.7649 14.8917 31.6899 14.8917H15.2964V32.6383C15.2923 33.0013 14.9953 33.2983 14.6322 33.2983Z" fill="white"/>
<path d="M35.4319 33.299C35.0689 33.299 34.7719 33.0019 34.7719 32.6389V25.226C34.7719 24.9867 34.8997 24.7681 35.106 24.6526C35.3122 24.5371 35.568 24.5371 35.7701 24.6608C39.0414 26.6079 39.0414 27.4288 39.0414 27.7011C39.0414 28.1054 39.3013 28.3652 39.3137 28.3776L42.4695 31.3437H42.8201V25.1971C42.8201 24.8341 43.1171 24.5371 43.4801 24.5371C43.8431 24.5371 44.1402 24.8341 44.1402 25.1971V32.0078C44.1402 32.3708 43.8431 32.6678 43.4801 32.6678H42.2054C42.0363 32.6678 41.8754 32.6018 41.7517 32.4863L38.4061 29.3388C38.3443 29.281 37.7502 28.7118 37.7214 27.7795C37.577 27.532 36.9128 26.9916 36.0919 26.4347V32.6431C36.0919 33.0019 35.7949 33.299 35.4319 33.299Z" fill="white"/>
<path d="M33.0393 33.2986C32.6763 33.2986 32.3793 33.0016 32.3793 32.6385V27.1768C30.2919 27.2181 25.2716 27.2511 23.1182 26.6901C22.2107 28.6413 21.0886 29.7097 18.399 29.8871V32.6385C18.399 33.0057 18.102 33.2986 17.739 33.2986C17.3759 33.2986 17.0789 33.0016 17.0789 32.6385V29.2518C17.0789 28.8888 17.3718 28.5959 17.7307 28.5918C20.4492 28.5588 21.2536 27.7791 22.1488 25.6134C22.2189 25.4401 22.3633 25.304 22.5407 25.2421C22.7181 25.1802 22.912 25.1967 23.077 25.2875C24.1248 25.865 29.7309 25.9351 33.0187 25.8444C33.196 25.8402 33.3693 25.9063 33.4972 26.03C33.6251 26.1538 33.6952 26.327 33.6952 26.5044V32.6427C33.7034 33.0016 33.4064 33.2986 33.0393 33.2986Z" fill="white"/>
<path d="M11.6829 25.8855C11.3199 25.8855 11.0228 25.5885 11.0228 25.2255V16.4595C11.0228 13.8936 12.5079 13.642 14.6076 13.5677C15.4739 13.5347 16.9879 13.4976 17.3426 13.5883C17.6974 13.675 17.9119 14.0338 17.8253 14.3886C17.7386 14.731 17.4045 14.9414 17.0621 14.8795C17.0085 14.8713 16.5423 14.8218 14.6571 14.8919C12.4295 14.9703 12.347 15.259 12.347 16.4636V25.2296C12.3429 25.5885 12.05 25.8855 11.6829 25.8855Z" fill="white"/>
<path d="M37.3911 33.2986H21.3936C21.0306 33.2986 20.7336 33.0016 20.7336 32.6385C20.7336 32.2755 21.0306 31.9785 21.3936 31.9785H37.3911C37.7541 31.9785 38.0511 32.2755 38.0511 32.6385C38.0511 33.0016 37.7541 33.2986 37.3911 33.2986Z" fill="white"/>
<path d="M43.4798 35.6297H11.6828C11.3198 35.6297 11.0228 35.3327 11.0228 34.9697C11.0228 34.6067 11.3198 34.3097 11.6828 34.3097H43.4798C43.8428 34.3097 44.1398 34.6067 44.1398 34.9697C44.1398 35.3327 43.8469 35.6297 43.4798 35.6297Z" fill="white"/>
<path d="M19.2525 33.2986H11.6828C11.3198 33.2986 11.0228 33.0016 11.0228 32.6385C11.0228 32.2755 11.3198 31.9785 11.6828 31.9785H19.2525C19.6155 31.9785 19.9125 32.2755 19.9125 32.6385C19.9125 33.0016 19.6155 33.2986 19.2525 33.2986Z" fill="white"/>
<path d="M43.4798 38.0922H11.6828C11.3198 38.0922 11.0228 37.7951 11.0228 37.4321C11.0228 37.0691 11.3198 36.7721 11.6828 36.7721H43.4798C43.8428 36.7721 44.1398 37.0691 44.1398 37.4321C44.1398 37.7951 43.8469 38.0922 43.4798 38.0922Z" fill="white"/>
<path d="M43.4798 40.555H11.6828C11.3198 40.555 11.0228 40.258 11.0228 39.895C11.0228 39.532 11.3198 39.2349 11.6828 39.2349H43.4798C43.8428 39.2349 44.1398 39.532 44.1398 39.895C44.1398 40.2621 43.8469 40.555 43.4798 40.555Z" fill="white"/>
</svg>
