<svg width="56" height="55" viewBox="0 0 56 55" fill="none" xmlns="http://www.w3.org/2000/svg">
<circle cx="27.9999" cy="27.4011" r="27.4011" fill="#1181E8"/>
<path d="M37.6825 39.9722H17.6407C17.45 39.9722 17.2953 40.224 17.2953 40.5369C17.2953 40.8498 17.45 41.1016 17.6407 41.1016H37.6825C37.8732 41.1016 38.0279 40.8498 38.0279 40.5369C38.0279 40.224 37.8732 39.9722 37.6825 39.9722Z" fill="white"/>
<path d="M37.682 37.7169H33.8801C33.6895 37.7169 33.5348 37.9687 33.5348 38.2816C33.5348 38.591 33.6895 38.8464 33.8801 38.8464H37.682C37.8727 38.8464 38.0273 38.5946 38.0273 38.2816C38.0273 37.9687 37.8727 37.7169 37.682 37.7169Z" fill="white"/>
<path d="M17.6407 38.8464H21.4426C21.6332 38.8464 21.7879 38.5946 21.7879 38.2816C21.7879 37.9687 21.6332 37.7169 21.4426 37.7169H17.6407C17.45 37.7169 17.2953 37.9687 17.2953 38.2816C17.2953 38.591 17.45 38.8464 17.6407 38.8464Z" fill="white"/>
<path d="M32.4989 38.8464C32.6896 38.8464 32.8442 38.5946 32.8442 38.2816C32.8442 37.9723 32.6896 37.7169 32.4989 37.7169H22.8233C22.6327 37.7169 22.478 37.9687 22.478 38.2816C22.478 38.591 22.6327 38.8464 22.8233 38.8464H32.4989Z" fill="white"/>
<path d="M37.5454 35.3969H17.5791C17.2805 35.3969 17.0396 35.6379 17.0396 35.9365C17.0396 36.235 17.2805 36.476 17.5791 36.476H37.5454C37.844 36.476 38.0849 36.235 38.0849 35.9365C38.0849 35.6379 37.844 35.3969 37.5454 35.3969Z" fill="white"/>
<path d="M37.869 33.0806H33.7361V20.3404L36.236 18.4664C36.423 18.3261 36.459 18.06 36.3223 17.8729C36.182 17.6859 35.9159 17.6499 35.7288 17.7866L33.3225 19.5887L30.4666 17.3046L31.3838 14.2437C31.4233 14.1178 31.3982 13.9775 31.319 13.8696C31.2399 13.7617 31.114 13.7005 30.9809 13.7005H24.3123C24.1792 13.7005 24.0533 13.7653 23.9742 13.8696C23.895 13.9775 23.8699 14.1178 23.9095 14.2437L24.8266 17.3046L21.9707 19.5887L19.5644 17.7866C19.4745 17.7183 19.363 17.6931 19.2515 17.7075C19.1399 17.7219 19.0392 17.783 18.9709 17.8729C18.8306 18.06 18.8702 18.3261 19.0572 18.4664L21.5571 20.3404V33.077H17.5645C17.3343 33.077 17.1509 33.264 17.1509 33.4906C17.1509 33.7173 17.3343 33.9043 17.5645 33.9043H23.6325C23.6613 33.9043 23.6864 33.8935 23.7116 33.8899H23.7296V33.8863C23.9095 33.8431 24.0461 33.6849 24.0461 33.4906C24.0461 33.2928 23.9022 33.1346 23.7152 33.095V33.041H22.4059V20.5526H23.985C24.2188 20.5526 24.4094 20.362 24.4094 20.1282C24.4094 19.8944 24.2188 19.7038 23.985 19.7038H23.1901L25.4669 17.8837H29.8371L32.1139 19.7038H25.3194C25.0856 19.7038 24.895 19.8944 24.895 20.1282C24.895 20.362 25.0856 20.5526 25.3194 20.5526H32.8981V33.0446H25.6359V33.0806H25.0568C24.8266 33.0806 24.6432 33.2676 24.6432 33.4942C24.6432 33.7208 24.8266 33.9079 25.0568 33.9079H37.8798C38.11 33.9079 38.2934 33.7208 38.2934 33.4942C38.2934 33.2676 38.0956 33.0806 37.869 33.0806ZM30.409 14.5494L29.6609 17.0385H25.6215L24.8734 14.5494H30.409Z" fill="white"/>
<path d="M25.8152 24.9912C25.6246 24.8653 25.3692 24.912 25.2361 25.1027C24.5599 26.1242 24.2182 26.9767 24.2182 27.6277C24.1751 29.5592 25.7109 31.1706 27.6389 31.221H27.6425H27.646C29.5776 31.1706 31.1134 29.5592 31.0667 27.6313C31.0667 25.7141 28.0741 22.6316 27.9446 22.4985C27.7756 22.3367 27.5094 22.3331 27.3403 22.4985C27.3331 22.5057 26.7864 23.0668 26.1498 23.8617C26.0491 23.9804 26.0202 24.1423 26.0742 24.2862C26.1282 24.4301 26.2577 24.5344 26.4123 24.5559C26.567 24.5811 26.7181 24.5128 26.808 24.3941C27.1281 23.9948 27.4302 23.6531 27.646 23.4157C28.851 24.7358 30.225 26.599 30.225 27.6349C30.2682 29.0988 29.11 30.3326 27.6496 30.3793C26.1857 30.3326 25.0275 29.1024 25.0707 27.6349C25.0707 27.1565 25.3728 26.4407 25.9483 25.5703C26.0634 25.3724 26.0059 25.1171 25.8152 24.9912Z" fill="white"/>
</svg>
