<svg width="55" height="55" viewBox="0 0 55 55" fill="none" xmlns="http://www.w3.org/2000/svg">
<circle cx="27.4011" cy="27.4011" r="27.4011" fill="#C4C4C4"/>
<g clip-path="url(#clip0_440_1547)">
<path d="M53.9825 34.0275C50.3215 48.7145 35.4412 57.6425 20.7752 53.9813C6.08773 50.3202 -2.84033 35.4405 0.820934 20.7747C4.48198 6.08773 19.3407 -2.84033 34.0281 0.820936C48.6941 4.46058 57.6438 19.3402 53.9825 34.0275Z" fill="#5EBF9C"/>
<path d="M41.968 40.0945H12.8373C12.5586 40.0945 12.3337 40.3194 12.3337 40.598C12.3337 40.8766 12.5586 41.1015 12.8373 41.1015H41.968C42.2466 41.1015 42.4715 40.8766 42.4715 40.598C42.4715 40.3194 42.2432 40.0945 41.968 40.0945Z" fill="white"/>
<path d="M41.9672 36.0764H36.4418C36.1632 36.0764 35.9383 36.3013 35.9383 36.5799C35.9383 36.8585 36.1632 37.0834 36.4418 37.0834H41.9672C42.2458 37.0834 42.4707 36.8585 42.4707 36.5799C42.4674 36.3013 42.2425 36.0764 41.9672 36.0764Z" fill="white"/>
<path d="M41.9672 38.0873H36.4418C36.1632 38.0873 35.9383 38.3122 35.9383 38.5908C35.9383 38.8694 36.1632 39.0943 36.4418 39.0943H41.9672C42.2458 39.0943 42.4707 38.8694 42.4707 38.5908C42.4707 38.3122 42.2425 38.0873 41.9672 38.0873Z" fill="white"/>
<path d="M34.432 36.0764H12.834C12.5554 36.0764 12.3305 36.3013 12.3305 36.5799C12.3305 36.8585 12.5554 37.0834 12.834 37.0834H34.432C34.7106 37.0834 34.9355 36.8585 34.9355 36.5799C34.9355 36.3013 34.7106 36.0764 34.432 36.0764Z" fill="white"/>
<path d="M12.8373 39.0909H18.3626C18.6413 39.0909 18.8662 38.8659 18.8662 38.5873C18.8662 38.3087 18.6413 38.0838 18.3626 38.0838H12.8373C12.5586 38.0838 12.3337 38.3087 12.3337 38.5873C12.3337 38.8659 12.5586 39.0909 12.8373 39.0909Z" fill="white"/>
<path d="M34.4319 38.0873H20.3667C20.0881 38.0873 19.8632 38.3122 19.8632 38.5908C19.8632 38.8694 20.0881 39.0943 20.3667 39.0943H34.4285C34.7071 39.0943 34.932 38.8694 34.932 38.5908C34.932 38.3122 34.7105 38.0873 34.4319 38.0873Z" fill="white"/>
<path d="M42.2268 32.6323L39.8133 31.1822L38.9573 29.8965V27.5366C39.1721 27.5366 39.3668 27.399 39.4339 27.1942L40.827 23.0183H41.4682C41.7468 23.0183 41.9717 22.7934 41.9717 22.5148C41.9717 22.2362 41.7468 22.0113 41.4682 22.0113H35.4426V20.0005C35.4426 19.7219 35.2177 19.497 34.9391 19.497H31.4245C31.4245 18.3859 30.5249 17.4896 29.4171 17.4896C28.3093 17.4896 27.4064 18.3892 27.4064 19.497H23.8917C23.6131 19.497 23.3882 19.7219 23.3882 20.0005V22.0079H19.8736C19.595 22.0079 19.3701 22.2328 19.3701 22.5114V23.5151H12.841C12.5624 23.5151 12.3375 23.74 12.3375 24.0187V27.5333C12.3375 27.8119 12.5624 28.0368 12.841 28.0368C13.1196 28.0368 13.3445 27.8119 13.3445 27.5333V24.5188H19.3701V25.5225H14.8484C14.5698 25.5225 14.3449 25.7474 14.3449 26.026C14.3449 26.3047 14.5698 26.5296 14.8484 26.5296H19.3701V28.537C19.3701 28.6712 19.4238 28.7988 19.5178 28.8928L21.2432 30.6182C20.6356 31.7361 20.8001 33.1191 21.6527 34.0624H12.8444C12.5657 34.0624 12.3408 34.2873 12.3408 34.5659C12.3408 34.8445 12.5657 35.0694 12.8444 35.0694H41.9751C42.2537 35.0694 42.4786 34.8445 42.4786 34.5659V33.0586C42.4685 32.8874 42.3779 32.723 42.2268 32.6323ZM35.9395 23.0183H39.7629L38.5914 26.5329H35.9395V23.0183ZM29.4104 18.4967C29.9643 18.4967 30.4141 18.9465 30.4141 19.5004H28.4067C28.4067 18.9465 28.8565 18.4967 29.4104 18.4967ZM24.3886 20.5074H34.4322V22.0146H24.3886V20.5074ZM20.3704 28.3356V25.5292H30.9176C31.1962 25.5292 31.4211 25.3043 31.4211 25.0257C31.4211 24.7471 31.1962 24.5222 30.9176 24.5222H20.3704V23.015H34.9358V24.5222H32.9284C32.6497 24.5222 32.4248 24.7471 32.4248 25.0257C32.4248 25.3043 32.6497 25.5292 32.9284 25.5292H34.9358V27.0365C34.9358 27.3151 35.1607 27.54 35.4393 27.54H37.9502V29.5474H35.0935C34.0865 28.8794 32.7773 28.8794 31.7669 29.5474H29.9139C29.6353 29.5474 29.4104 29.7723 29.4104 30.0509C29.4104 30.3295 29.6353 30.5544 29.9139 30.5544H30.8236C30.6424 30.8633 30.5215 31.2057 30.4611 31.5581H26.8558C26.7954 31.2057 26.6746 30.8633 26.4933 30.5544H27.9065C28.1851 30.5544 28.4101 30.3295 28.4101 30.0509C28.4101 29.7723 28.1851 29.5474 27.9065 29.5474H25.55C24.402 28.7854 22.8847 28.8995 21.8676 29.8293L20.3704 28.3356ZM23.885 34.069C22.7739 34.069 21.8776 33.1694 21.8776 32.0617C21.8776 30.9505 22.7773 30.0543 23.885 30.0543C24.9928 30.0543 25.8924 30.9539 25.8924 32.0617C25.8958 33.1694 24.9961 34.069 23.885 34.069ZM26.1274 34.069C26.5067 33.6461 26.7618 33.1224 26.8558 32.5618H30.4611C30.5551 33.1224 30.8102 33.6461 31.1895 34.069H26.1274ZM33.4285 34.069C32.3174 34.069 31.4211 33.1694 31.4211 32.0617C31.4211 30.9505 32.3208 30.0543 33.4285 30.0543C34.5363 30.0543 35.4359 30.9539 35.4359 32.0617C35.4393 33.1694 34.5397 34.069 33.4285 34.069ZM38.9539 34.069H35.6676C36.5437 33.1023 36.6914 31.679 36.0334 30.5544H38.1818L38.9539 31.7092V34.069ZM41.4648 34.069H39.9576V32.4443L41.4648 33.3474V34.069Z" fill="white"/>
<path d="M17.8592 19.5036C19.5242 19.5036 20.8737 18.1541 20.8737 16.4891C20.8737 14.8241 19.5242 13.4781 17.8592 13.4747C16.1942 13.4747 14.8448 14.8241 14.8448 16.4891C14.8448 18.1541 16.1942 19.5036 17.8592 19.5036ZM17.8592 14.4784C18.9704 14.4784 19.8666 15.378 19.8666 16.4858C19.8666 17.0195 19.6552 17.5298 19.2792 17.9058C18.9032 18.2817 18.393 18.4932 17.8592 18.4932C16.7481 18.4932 15.8518 17.5935 15.8518 16.4858C15.8485 15.378 16.7481 14.4784 17.8592 14.4784Z" fill="white"/>
<path d="M17.8593 12.4707C18.1379 12.4707 18.3627 12.2458 18.3627 11.9673V11.4639C18.3627 11.1853 18.1379 10.9604 17.8593 10.9604C17.5808 10.9604 17.3559 11.1853 17.3559 11.4639V11.9673C17.3559 12.2458 17.5808 12.4707 17.8593 12.4707Z" fill="white"/>
<path d="M14.3075 13.6458C14.4014 13.7397 14.529 13.7935 14.6632 13.7935C14.8679 13.7935 15.0491 13.6726 15.1263 13.4847C15.2035 13.2967 15.1599 13.082 15.019 12.9376L14.6632 12.5819C14.4652 12.3906 14.1531 12.3939 13.9584 12.5886C13.7638 12.7832 13.7604 13.0954 13.9517 13.2934L14.3075 13.6458Z" fill="white"/>
<path d="M12.8372 16.9894H13.3406C13.6191 16.9894 13.844 16.7645 13.844 16.486C13.844 16.2074 13.6191 15.9825 13.3406 15.9825H12.8372C12.5586 15.9825 12.3337 16.2074 12.3337 16.486C12.3337 16.7645 12.5586 16.9894 12.8372 16.9894Z" fill="white"/>
<path d="M14.794 19.1911C14.6195 19.1441 14.4315 19.1978 14.304 19.3287L13.9482 19.6844C13.7536 19.8791 13.7536 20.1979 13.9482 20.3959C14.1429 20.5906 14.4617 20.5906 14.6597 20.3959L15.0155 20.0402C15.1464 19.9127 15.1967 19.7281 15.1531 19.5502C15.1061 19.3757 14.9718 19.2381 14.794 19.1911Z" fill="white"/>
<path d="M17.3559 21.0074V21.5108C17.3559 21.7894 17.5808 22.0142 17.8593 22.0142C18.1379 22.0142 18.3627 21.7894 18.3627 21.5108V21.0074C18.3627 20.7289 18.1379 20.504 17.8593 20.504C17.5808 20.5074 17.3559 20.7322 17.3559 21.0074Z" fill="white"/>
<path d="M21.4102 19.3289C21.2122 19.1376 20.9001 19.1409 20.7054 19.3356C20.5108 19.5302 20.5074 19.8424 20.6987 20.0404L21.0545 20.3961C21.2525 20.5874 21.5646 20.584 21.7592 20.3894C21.9539 20.1947 21.9572 19.8826 21.766 19.6846L21.4102 19.3289Z" fill="white"/>
<path d="M22.3773 16.9894H22.8807C23.1592 16.9894 23.3841 16.7645 23.3841 16.486C23.3841 16.2074 23.1592 15.9825 22.8807 15.9825H22.3773C22.0987 15.9825 21.8738 16.2074 21.8738 16.486C21.8772 16.7645 22.1021 16.9894 22.3773 16.9894Z" fill="white"/>
<path d="M20.9206 13.7835C21.0951 13.8305 21.283 13.7768 21.4105 13.6459L21.7663 13.2902C21.9576 13.0922 21.9542 12.78 21.7596 12.5854C21.5649 12.3907 21.2528 12.3874 21.0548 12.5787L20.699 12.9344C20.5682 13.0619 20.5178 13.2465 20.5614 13.4244C20.6084 13.6023 20.746 13.7365 20.9206 13.7835Z" fill="white"/>
</g>
<defs>
<clipPath id="clip0_440_1547">
<rect width="54.8022" height="54.8022" fill="white"/>
</clipPath>
</defs>
</svg>
