<svg width="33" height="33" viewBox="0 0 33 33" fill="none" xmlns="http://www.w3.org/2000/svg">
<circle cx="16.5" cy="16.5" r="15.9677" fill="#54EDC1" stroke="#54EDC1" stroke-width="1.06452"/>
<path d="M16.9916 29.4839V29.2784H16.9879V27.0475L16.9916 27.0485V25.9778L16.9869 25.9769V24.2352L20.9086 22.3662C21.0924 22.2786 21.2093 22.0938 21.2093 21.8903V10.8057C21.2093 10.6276 21.1197 10.4617 20.9699 10.3637C20.821 10.2657 20.6325 10.2506 20.4694 10.3222L19.0981 10.9226V7.11117C19.0981 6.81994 18.8615 6.58337 18.5703 6.58337C18.2791 6.58337 18.0425 6.819 18.0425 7.11117V11.3335C18.0425 11.3505 18.0501 11.3637 18.0519 11.3797L16.9869 11.8453V5.52779C16.9869 5.23656 16.7504 5 16.4591 5C16.1679 5 15.9314 5.23562 15.9314 5.52779V11.8462L14.8663 11.3806C14.8682 11.3646 14.8767 11.3505 14.8767 11.3335V7.11117C14.8767 6.81994 14.6401 6.58337 14.3489 6.58337C14.0577 6.58337 13.8211 6.819 13.8211 7.11117V10.9226L12.4498 10.3222C12.2868 10.2496 12.0983 10.2657 11.9494 10.3637C11.8004 10.4617 11.71 10.6276 11.71 10.8057V21.8893C11.71 22.0929 11.8268 22.2786 12.0106 22.3653L15.9323 24.2342V24.4802L15.8927 29.4839H16.9916ZM16.9879 12.9979L20.1546 11.6125V14.1544L16.9879 15.5398V12.9979ZM16.9879 16.6925L20.1546 15.307V17.8611L16.9879 19.3701V16.6925ZM16.9879 20.5397L20.1546 19.0308V21.5566L16.9879 23.0655V20.5397ZM15.9323 23.0655L12.7655 21.5566V19.0308L15.9323 20.5397V23.0655ZM15.9323 19.371L12.7655 17.8621V15.307L15.9323 16.6925V19.371ZM15.9323 15.5407L12.7655 14.1553V11.6134L15.9323 12.9989V15.5407Z" fill="white"/>
</svg>
