<svg width="627" height="627" viewBox="0 0 627 627" fill="none" xmlns="http://www.w3.org/2000/svg">
<g opacity="0.4">
<path d="M313.29 620.58C483.001 620.58 620.58 483.001 620.58 313.29C620.58 143.578 483.001 6 313.29 6C143.578 6 6 143.578 6 313.29C6 483.001 143.578 620.58 313.29 620.58Z" stroke="#093493" stroke-width="11.7599" stroke-miterlimit="10"/>
<path d="M313.291 591.69C467.047 591.69 591.69 467.047 591.69 313.292C591.69 159.536 467.047 34.8923 313.291 34.8923C159.536 34.8923 34.8926 159.536 34.8926 313.292C34.8926 467.047 159.536 591.69 313.291 591.69Z" fill="#093493"/>
<path d="M453.013 353.554C447.48 356.197 441.641 357.488 435.432 357.488C429.9 357.488 424.982 356.566 420.679 354.722C416.376 352.877 412.811 350.357 409.922 347.222C407.033 344.087 404.82 340.337 403.283 336.034C401.747 331.731 401.009 327.244 401.009 322.511C401.009 315.688 402.177 309.049 404.451 302.656C406.726 296.263 409.983 290.608 414.163 285.629C418.343 280.711 423.261 276.716 428.978 273.765C434.695 270.815 441.087 269.339 448.033 269.339C454.611 269.339 460.143 270.63 464.569 273.273C468.995 275.917 472.314 278.929 474.527 282.371L498.869 260.611C494.382 254.525 487.743 249.546 478.892 245.673C473.728 243.399 468.196 241.862 462.295 240.94L467.458 217.335L454.242 214.446L448.648 239.895C436.908 239.957 426.027 242.169 416.008 246.595C405.865 251.082 397.075 257.23 389.637 265.098C385.395 269.524 381.769 274.503 378.572 279.851L358.349 233.563H307.389L279.359 294.542V233.625H228.831V303.517L171.417 234.854C170.741 234.055 169.758 233.625 168.774 233.625H131.277C129.372 233.625 127.773 235.162 127.773 237.129V387.485H178.302V317.593L236.76 387.485L287.965 387.424L300.259 360.622H361.668L371.995 387.424H416.376L410.537 414.04L423.753 416.929L430.207 387.424C436.908 387.424 442.993 386.809 448.587 385.518C454.181 384.289 459.344 382.567 464.016 380.355C468.688 378.203 472.867 375.683 476.494 372.855C480.121 370.028 483.317 367.077 486.084 364.065L467.704 342.304C462.295 347.529 458.545 350.91 453.013 353.554ZM317.286 323.31L334.068 286.981L347.345 323.126L317.286 323.31Z" fill="white"/>
</g>
</svg>
