<?xml version="1.0" encoding="utf-8"?>
<!-- Generator: Adobe Illustrator 25.0.1, SVG Export Plug-In . SVG Version: 6.00 Build 0)  -->
<svg version="1.1" id="Capa_1" xmlns="http://www.w3.org/2000/svg" xmlns:xlink="http://www.w3.org/1999/xlink" x="0px" y="0px"
	 viewBox="0 0 962.5 627" style="enable-background:new 0 0 962.5 627;" xml:space="preserve">
<style type="text/css">
	.st0{opacity:0.4;}
	.st1{fill:none;stroke:#093493;stroke-width:11.7599;stroke-miterlimit:10;}
	.st2{fill:#093493;}
	.st3{fill:#FFFFFF;}
	.st4{fill:#54EDC1;stroke:#54EDC1;stroke-width:1.0645;}
	.st5{fill:none;stroke:#FFFFFF;stroke-width:1.0645;stroke-linecap:round;stroke-linejoin:round;}
	.st6{fill:none;stroke:#FFFFFF;stroke-width:0.9758;stroke-linecap:round;}
	.st7{fill:none;stroke:#FFFFFF;stroke-width:1.0645;stroke-linecap:round;}
</style>
<g id="Capa_1_1_">
	<g class="st0">
		<path class="st1" d="M481.7,620.6C651.4,620.6,789,483,789,313.3S651.5,6,481.7,6C312,6,174.5,143.6,174.5,313.3
			S312,620.6,481.7,620.6z"/>
		<path class="st2" d="M481.8,591.7c153.8,0,278.4-124.6,278.4-278.4S635.6,34.9,481.8,34.9S203.4,159.5,203.4,313.3
			C203.4,467,328,591.7,481.8,591.7z"/>
		<path class="st3" d="M621.5,353.6c-5.5,2.6-11.4,3.9-17.6,3.9c-5.5,0-10.5-0.9-14.8-2.8c-4.3-1.8-7.9-4.4-10.8-7.5
			c-2.9-3.1-5.1-6.9-6.6-11.2c-1.5-4.3-2.3-8.8-2.3-13.5c0-6.8,1.2-13.5,3.4-19.9c2.3-6.4,5.5-12,9.7-17c4.2-4.9,9.1-8.9,14.8-11.9
			s12.1-4.4,19.1-4.4c6.6,0,12.1,1.3,16.5,3.9s7.7,5.7,10,9.1l24.3-21.8c-4.5-6.1-11.1-11.1-20-14.9c-5.2-2.3-10.7-3.8-16.6-4.7
			l5.2-23.6l-13.2-2.9l-5.6,25.4c-11.7,0.1-22.6,2.3-32.6,6.7c-10.1,4.5-18.9,10.6-26.4,18.5c-4.2,4.4-7.9,9.4-11.1,14.8l-20.2-46.3
			h-51l-28,61v-60.9h-50.5v69.9l-57.4-68.7c-0.7-0.8-1.7-1.2-2.6-1.2h-37.5c-1.9,0-3.5,1.5-3.5,3.5v150.4h50.5v-69.9l58.5,69.9
			l51.2-0.1l12.3-26.8h61.4l10.3,26.8h44.4L579,414l13.2,2.9l6.5-29.5c6.7,0,12.8-0.6,18.4-1.9c5.6-1.2,10.8-3,15.4-5.2
			c4.7-2.2,8.9-4.7,12.5-7.5s6.8-5.8,9.6-8.8l-18.4-21.8C630.8,347.5,627,350.9,621.5,353.6z M485.7,323.3l16.8-36.3l13.3,36.1
			L485.7,323.3z"/>
	</g>
</g>
<g id="lock">
	<g>
		<g>
			<circle class="st4" cx="756.6" cy="449.4" r="20.8"/>
			<path class="st5" d="M749.7,448.5h12.5c0.5,0,1,0.5,1,1v8.3c0,0.5-0.5,1-1,1h-12.5c-0.5,0-1-0.5-1-1v-8.3
				C748.7,449,749.1,448.5,749.7,448.5z"/>
			<path class="st5" d="M750.8,445.4c0-2.9,2.3-5.2,5.2-5.2l0,0c2.9,0,5.2,2.3,5.2,5.2v3.1h-10.4V445.4z"/>
		</g>
		<path class="st3" d="M785.8,428.5v13.9h-1.2v-13.9H785.8z M792.3,434.8v1h-6.9v-1H792.3z M793.2,428.5v1h-7.8v-1H793.2z M797,432
			v10.3h-1.2V432H797z M795.7,429c0-0.3,0.1-0.4,0.3-0.5c0.1-0.1,0.4-0.3,0.5-0.3c0.3,0,0.4,0.1,0.5,0.3c0.1,0.1,0.3,0.4,0.3,0.5
			c0,0.3-0.1,0.4-0.3,0.5c-0.1,0.1-0.4,0.3-0.5,0.3c-0.3,0-0.4-0.1-0.5-0.3C795.7,429.4,795.7,429.3,795.7,429z M800.6,432h1.2v11.6
			c0,0.6-0.1,1.2-0.3,1.6c-0.3,0.4-0.5,0.8-0.9,1c-0.4,0.3-0.9,0.4-1.4,0.4c-0.1,0-0.4,0-0.5,0c-0.1,0-0.4-0.1-0.5-0.1v-0.9
			c0.1,0,0.3,0,0.4,0.1c0.1,0,0.3,0,0.4,0c0.4,0,0.6-0.1,0.9-0.3c0.3-0.1,0.4-0.4,0.5-0.6c0.1-0.3,0.3-0.6,0.3-1V432z M800.4,429
			c0-0.3,0.1-0.4,0.3-0.5c0.1-0.1,0.4-0.3,0.5-0.3c0.3,0,0.4,0.1,0.5,0.3c0.1,0.1,0.3,0.4,0.3,0.5c0,0.3-0.1,0.4-0.3,0.5
			c-0.1,0.1-0.4,0.3-0.5,0.3c-0.3,0-0.4-0.1-0.5-0.3S800.4,429.3,800.4,429z M811.5,440.4v-5.3c0-0.5-0.1-0.9-0.3-1.3
			c-0.3-0.4-0.5-0.6-0.9-0.8c-0.4-0.1-0.9-0.3-1.4-0.3c-0.5,0-1,0.1-1.4,0.3c-0.4,0.1-0.8,0.4-1,0.8c-0.3,0.3-0.4,0.6-0.4,1h-1.2
			c0-0.4,0.1-0.8,0.3-1.2c0.1-0.4,0.5-0.6,0.8-0.9c0.4-0.3,0.8-0.5,1.3-0.6c0.5-0.1,1-0.3,1.6-0.3c0.8,0,1.4,0.1,1.9,0.4
			c0.5,0.3,1,0.6,1.3,1.2c0.3,0.5,0.5,1.2,0.5,1.8v4.9c0,0.4,0,0.8,0.1,1c0,0.4,0.1,0.6,0.3,0.9v0.1h-1.2c-0.1-0.3-0.1-0.5-0.1-0.9
			C811.5,441.1,811.5,440.8,811.5,440.4z M811.8,436.3v0.9h-2.2c-0.5,0-1.2,0-1.6,0.1c-0.5,0.1-0.8,0.3-1.2,0.5
			c-0.3,0.3-0.5,0.4-0.8,0.6c-0.1,0.3-0.3,0.6-0.3,0.9c0,0.4,0.1,0.6,0.3,1c0.1,0.3,0.5,0.5,0.8,0.8c0.4,0.1,0.8,0.3,1.3,0.3
			c0.6,0,1.2-0.1,1.7-0.4c0.5-0.3,0.9-0.5,1.2-0.9c0.3-0.4,0.5-0.8,0.6-1.3l0.5,0.6c-0.1,0.3-0.3,0.6-0.5,1
			c-0.3,0.4-0.5,0.6-0.9,0.9c-0.4,0.3-0.8,0.5-1.3,0.6c-0.5,0.1-1,0.3-1.6,0.3c-0.6,0-1.3-0.1-1.8-0.4c-0.5-0.3-0.9-0.6-1.2-1
			c-0.3-0.4-0.4-0.9-0.4-1.6c0-0.5,0.1-0.9,0.3-1.3c0.3-0.4,0.5-0.8,0.9-1c0.4-0.3,0.9-0.5,1.4-0.6c0.5-0.1,1.3-0.3,1.9-0.3h2.7
			V436.3z M817.2,440.6v1.3c0,0.5-0.1,1.2-0.4,1.7c-0.3,0.5-0.5,1-1,1.4l-0.6-0.5c0.3-0.3,0.4-0.5,0.5-0.8c0.1-0.3,0.3-0.5,0.3-0.8
			c0.1-0.3,0.1-0.6,0.1-0.9v-1.3h1.2V440.6z M832.2,440.3v-12.6h1.2v14.7h-1L832.2,440.3z M825,437.3V437c0-0.8,0.1-1.6,0.3-2.2
			c0.1-0.6,0.4-1.2,0.8-1.7c0.4-0.5,0.8-0.8,1.3-1c0.5-0.3,1-0.4,1.7-0.4c0.6,0,1.2,0.1,1.6,0.3c0.4,0.1,0.9,0.5,1.2,0.9
			c0.4,0.4,0.6,0.8,0.8,1.3c0.3,0.5,0.4,1,0.5,1.7v2.6c-0.1,0.5-0.3,1.2-0.4,1.6c-0.3,0.5-0.5,0.9-0.8,1.3c-0.4,0.4-0.8,0.6-1.2,0.8
			c-0.5,0.1-1,0.3-1.7,0.3c-0.6,0-1.2-0.1-1.7-0.4c-0.5-0.3-0.9-0.6-1.3-1c-0.4-0.5-0.6-1-0.8-1.7C825,438.7,825,438.1,825,437.3z
			 M826.1,437v0.3c0,0.6,0,1.2,0.1,1.7c0.1,0.5,0.3,0.9,0.5,1.3s0.5,0.6,0.9,0.9c0.4,0.3,0.8,0.3,1.3,0.3c0.6,0,1.2-0.1,1.7-0.4
			c0.4-0.3,0.8-0.6,1-1c0.3-0.4,0.5-0.9,0.5-1.4v-2.7c-0.1-0.4-0.1-0.6-0.4-1s-0.4-0.6-0.6-0.9c-0.3-0.3-0.5-0.5-0.9-0.6
			s-0.8-0.3-1.4-0.3c-0.5,0-1,0.1-1.3,0.3c-0.4,0.3-0.6,0.5-0.9,0.9s-0.4,0.8-0.5,1.3C826.2,435.9,826.1,436.5,826.1,437z
			 M837.9,432v10.3h-1.2V432H837.9z M836.6,429c0-0.3,0.1-0.4,0.3-0.5c0.1-0.1,0.4-0.3,0.5-0.3c0.3,0,0.4,0.1,0.5,0.3
			c0.1,0.1,0.3,0.4,0.3,0.5c0,0.3-0.1,0.4-0.3,0.5c-0.1,0.1-0.4,0.3-0.5,0.3c-0.3,0-0.4-0.1-0.5-0.3
			C836.6,429.4,836.6,429.3,836.6,429z M842.6,433.8v8.6h-1.2V432h1L842.6,433.8z M846.2,432v1c-0.1,0-0.3,0-0.4,0s-0.3,0-0.4,0
			c-0.5,0-0.9,0.1-1.3,0.3c-0.4,0.1-0.6,0.4-0.9,0.8c-0.3,0.3-0.4,0.6-0.5,1.2c-0.1,0.4-0.3,0.9-0.3,1.4l-0.4,0.1
			c0-0.6,0.1-1.3,0.3-1.8c0.1-0.5,0.4-1,0.6-1.6c0.3-0.4,0.6-0.8,1-1c0.4-0.3,0.9-0.4,1.6-0.4c0.1,0,0.3,0,0.4,0
			C845.9,431.9,846.1,432,846.2,432z M852.2,442.5c-0.6,0-1.3-0.1-1.8-0.4c-0.5-0.3-1-0.6-1.4-1c-0.4-0.4-0.8-1-0.9-1.6
			c-0.3-0.6-0.4-1.3-0.4-2.1V437c0-0.8,0.1-1.6,0.4-2.2s0.5-1.2,0.9-1.7c0.4-0.5,0.9-0.8,1.4-1c0.5-0.3,1-0.4,1.7-0.4
			s1.2,0.1,1.7,0.4c0.5,0.3,0.9,0.5,1.3,1c0.4,0.4,0.6,0.9,0.8,1.4c0.1,0.5,0.3,1.2,0.3,1.9v0.6h-7.8v-0.9h6.6v-0.1
			c0-0.5-0.1-1.2-0.4-1.6c-0.3-0.5-0.5-0.9-0.9-1.3c-0.4-0.3-0.9-0.5-1.6-0.5c-0.5,0-0.9,0.1-1.3,0.3c-0.4,0.3-0.8,0.5-1,0.9
			c-0.3,0.4-0.5,0.8-0.6,1.3c-0.1,0.5-0.3,1-0.3,1.7v0.4c0,0.5,0.1,1,0.3,1.6c0.1,0.5,0.4,0.9,0.8,1.3c0.3,0.4,0.6,0.6,1.2,0.9
			c0.4,0.3,0.9,0.3,1.4,0.3c0.6,0,1.2-0.1,1.6-0.4c0.5-0.3,0.9-0.6,1.3-1l0.6,0.5c-0.3,0.4-0.5,0.6-0.8,0.9
			c-0.4,0.3-0.8,0.5-1.2,0.6C853.3,442.4,852.8,442.5,852.2,442.5z M862.4,441.6c0.5,0,0.9-0.1,1.3-0.3s0.8-0.4,1-0.8
			c0.3-0.4,0.4-0.8,0.5-1.3h1c0,0.6-0.3,1.3-0.6,1.7c-0.4,0.5-0.8,0.9-1.4,1.2c-0.5,0.3-1.2,0.4-1.9,0.4s-1.3-0.1-1.9-0.4
			c-0.5-0.3-1-0.6-1.4-1c-0.4-0.5-0.6-1-0.8-1.7s-0.3-1.3-0.3-2.1v-0.4c0-0.8,0.1-1.4,0.3-2.1c0.1-0.6,0.5-1.2,0.8-1.7
			c0.4-0.5,0.8-0.8,1.4-1c0.5-0.3,1.2-0.4,1.9-0.4s1.4,0.1,1.9,0.4c0.6,0.3,1,0.8,1.4,1.3c0.4,0.5,0.5,1.2,0.5,1.9h-0.9
			c0-0.5-0.1-1-0.4-1.4c-0.3-0.4-0.6-0.6-1-0.9c-0.4-0.3-0.9-0.3-1.4-0.3c-0.5,0-1,0.1-1.4,0.4c-0.4,0.3-0.8,0.5-1,0.9
			c-0.3,0.4-0.4,0.8-0.5,1.3c-0.1,0.5-0.1,1-0.1,1.6v0.4c0,0.5,0,1,0.1,1.6s0.3,0.9,0.5,1.3s0.6,0.6,1,0.9
			C861.4,441.5,861.8,441.6,862.4,441.6z M872.9,432v0.9h-5.2V432H872.9z M869.7,429.4h1.2v10.4c0,0.5,0,0.8,0.1,1
			c0.1,0.3,0.3,0.4,0.5,0.5c0.3,0.1,0.4,0.1,0.6,0.1c0.1,0,0.4,0,0.5,0c0.1,0,0.3,0,0.4-0.1v0.9c-0.1,0-0.3,0.1-0.5,0.1
			s-0.4,0-0.6,0c-0.4,0-0.8-0.1-1.2-0.3c-0.4-0.1-0.6-0.4-0.8-0.8c-0.1-0.4-0.3-0.9-0.3-1.7V429.4z M882,440.4v-5.3
			c0-0.5-0.1-0.9-0.3-1.3c-0.3-0.4-0.5-0.6-0.9-0.8c-0.4-0.1-0.9-0.3-1.4-0.3c-0.5,0-1,0.1-1.4,0.3c-0.4,0.1-0.8,0.4-1,0.8
			c-0.3,0.3-0.4,0.6-0.4,1h-1.2c0-0.4,0.1-0.8,0.3-1.2c0.1-0.4,0.5-0.6,0.8-0.9c0.4-0.3,0.8-0.5,1.3-0.6c0.5-0.1,1-0.3,1.6-0.3
			c0.8,0,1.4,0.1,1.9,0.4c0.5,0.3,1,0.6,1.3,1.2c0.3,0.5,0.5,1.2,0.5,1.8v4.9c0,0.4,0,0.8,0.1,1c0,0.4,0.1,0.6,0.3,0.9v0.1h-1.2
			c-0.1-0.3-0.1-0.5-0.1-0.9C882,441.1,882,440.8,882,440.4z M882.3,436.3v0.9h-2.2c-0.5,0-1.2,0-1.6,0.1c-0.5,0.1-0.8,0.3-1.2,0.5
			c-0.3,0.3-0.5,0.4-0.8,0.6c-0.1,0.3-0.3,0.6-0.3,0.9c0,0.4,0.1,0.6,0.3,1c0.1,0.3,0.5,0.5,0.8,0.8c0.4,0.1,0.8,0.3,1.3,0.3
			c0.6,0,1.2-0.1,1.7-0.4c0.5-0.3,0.9-0.5,1.2-0.9c0.3-0.4,0.5-0.8,0.6-1.3l0.5,0.6c-0.1,0.3-0.3,0.6-0.5,1
			c-0.3,0.4-0.5,0.6-0.9,0.9c-0.4,0.3-0.8,0.5-1.3,0.6c-0.5,0.1-1,0.3-1.6,0.3c-0.6,0-1.3-0.1-1.8-0.4c-0.5-0.3-0.9-0.6-1.2-1
			c-0.3-0.4-0.4-0.9-0.4-1.6c0-0.5,0.1-0.9,0.3-1.3c0.3-0.4,0.5-0.8,0.9-1c0.4-0.3,0.9-0.5,1.4-0.6c0.5-0.1,1.3-0.3,1.9-0.3h2.7
			V436.3z M887.6,440.6v1.3c0,0.5-0.1,1.2-0.4,1.7c-0.3,0.5-0.5,1-1,1.4l-0.6-0.5c0.3-0.3,0.4-0.5,0.5-0.8c0.1-0.3,0.3-0.5,0.3-0.8
			c0.1-0.3,0.1-0.6,0.1-0.9v-1.3h1.2V440.6z M790.6,465.1v-5.3c0-0.5-0.1-0.9-0.3-1.3c-0.3-0.4-0.5-0.6-0.9-0.8
			c-0.4-0.1-0.9-0.3-1.4-0.3c-0.5,0-1,0.1-1.4,0.3c-0.4,0.1-0.8,0.4-1,0.8c-0.3,0.3-0.4,0.6-0.4,1H784c0-0.4,0.1-0.8,0.3-1.2
			c0.1-0.4,0.5-0.6,0.8-0.9s0.8-0.5,1.3-0.6c0.5-0.1,1-0.3,1.6-0.3c0.8,0,1.4,0.1,1.9,0.4c0.5,0.3,1,0.6,1.3,1.2
			c0.3,0.5,0.5,1.2,0.5,1.8v4.9c0,0.4,0,0.8,0.1,1c0,0.4,0.1,0.6,0.3,0.9v0.1h-1.2c-0.1-0.3-0.1-0.5-0.1-0.9
			C790.6,465.7,790.6,465.5,790.6,465.1z M790.9,460.9v0.9h-2.2c-0.5,0-1.2,0-1.6,0.1c-0.5,0.1-0.8,0.3-1.2,0.5
			c-0.3,0.3-0.5,0.4-0.8,0.6c-0.1,0.3-0.3,0.6-0.3,0.9c0,0.4,0.1,0.6,0.3,1c0.1,0.3,0.5,0.5,0.8,0.8c0.4,0.1,0.8,0.3,1.3,0.3
			c0.6,0,1.2-0.1,1.7-0.4c0.5-0.3,0.9-0.5,1.2-0.9c0.3-0.4,0.5-0.8,0.6-1.3l0.5,0.6c-0.1,0.3-0.3,0.6-0.5,1
			c-0.3,0.4-0.5,0.6-0.9,0.9c-0.4,0.3-0.8,0.5-1.3,0.6c-0.5,0.1-1,0.3-1.6,0.3c-0.6,0-1.3-0.1-1.8-0.4c-0.5-0.3-0.9-0.6-1.2-1
			c-0.3-0.4-0.4-0.9-0.4-1.6c0-0.5,0.1-0.9,0.3-1.3c0.3-0.4,0.5-0.8,0.9-1c0.4-0.3,0.9-0.5,1.4-0.6c0.5-0.1,1.3-0.3,1.9-0.3h2.7
			V460.9z M801.8,464.6v-7.9h1.2v10.3h-1L801.8,464.6z M802,462.8h0.6c0,0.6-0.1,1.3-0.3,1.8c-0.1,0.5-0.4,1-0.6,1.4
			c-0.3,0.4-0.8,0.8-1.3,0.9c-0.5,0.1-1.2,0.4-1.8,0.4c-0.5,0-0.9-0.1-1.4-0.3c-0.4-0.1-0.8-0.4-1-0.6c-0.3-0.3-0.5-0.6-0.6-1.2
			c-0.1-0.5-0.3-1-0.3-1.8v-6.8h1.2v6.6c0,0.5,0,1,0.1,1.4c0.1,0.4,0.3,0.6,0.5,0.9s0.5,0.4,0.8,0.5c0.3,0.1,0.6,0.1,0.9,0.1
			c0.8,0,1.6-0.1,1.9-0.5c0.5-0.3,0.8-0.8,1-1.3C801.9,463.9,802,463.3,802,462.8z M810.2,456.7v0.9H805v-0.9H810.2z M807,454.1h1.2
			v10.4c0,0.5,0,0.8,0.1,1c0.1,0.3,0.3,0.4,0.5,0.5s0.4,0.1,0.6,0.1c0.1,0,0.4,0,0.5,0c0.1,0,0.3,0,0.4-0.1v0.9
			c-0.1,0-0.3,0.1-0.5,0.1c-0.3,0-0.4,0-0.6,0c-0.4,0-0.8-0.1-1.2-0.3c-0.4-0.1-0.6-0.4-0.8-0.8c-0.1-0.4-0.3-0.9-0.3-1.7V454.1z
			 M812.2,462v-0.3c0-0.8,0.1-1.4,0.3-2.1c0.3-0.6,0.5-1.2,0.9-1.7c0.4-0.5,0.9-0.8,1.4-1c0.5-0.3,1.2-0.4,1.9-0.4
			c0.6,0,1.3,0.1,1.9,0.4c0.5,0.3,1,0.6,1.4,1c0.4,0.5,0.8,1,0.9,1.7c0.3,0.6,0.3,1.3,0.3,2.1v0.3c0,0.8-0.1,1.4-0.3,2.1
			c-0.3,0.6-0.5,1.2-0.9,1.7c-0.4,0.5-0.9,0.8-1.4,1c-0.5,0.3-1.2,0.4-1.9,0.4c-0.6,0-1.3-0.1-1.9-0.4c-0.5-0.3-1-0.6-1.4-1
			c-0.4-0.5-0.8-1-0.9-1.7C812.3,463.4,812.2,462.8,812.2,462z M813.2,461.7v0.3c0,0.5,0.1,1,0.3,1.6c0.1,0.5,0.4,0.9,0.6,1.3
			s0.6,0.6,1,0.9c0.4,0.3,0.9,0.4,1.4,0.4c0.5,0,1-0.1,1.4-0.4c0.4-0.3,0.8-0.5,1-0.9c0.3-0.4,0.5-0.8,0.6-1.3
			c0.1-0.5,0.3-1,0.3-1.6v-0.3c0-0.5-0.1-1-0.3-1.6c-0.1-0.5-0.4-0.9-0.6-1.3c-0.3-0.4-0.6-0.6-1-0.9c-0.4-0.3-0.9-0.4-1.4-0.4
			c-0.5,0-1,0.1-1.4,0.4c-0.4,0.3-0.8,0.5-1,0.9c-0.3,0.4-0.5,0.8-0.6,1.3C813.3,460.6,813.2,461.2,813.2,461.7z M825.2,458.9v8.2
			H824v-10.4h1L825.2,458.9z M824.9,461.2l-0.5-0.3c0-0.6,0.1-1.2,0.4-1.7c0.3-0.5,0.5-1,0.8-1.4c0.4-0.4,0.8-0.8,1.3-0.9
			c0.5-0.1,1-0.4,1.7-0.4c0.5,0,0.9,0.1,1.3,0.3c0.4,0.1,0.8,0.4,1,0.6c0.3,0.3,0.5,0.6,0.6,1.2c0.1,0.5,0.3,1,0.3,1.7v6.9h-1.2
			v-6.8c0-0.6-0.1-1.2-0.3-1.6c-0.3-0.4-0.5-0.6-0.9-0.8c-0.4-0.1-0.8-0.3-1.3-0.3c-0.5,0-1,0.1-1.4,0.4c-0.4,0.3-0.8,0.5-1,0.9
			c-0.3,0.4-0.4,0.8-0.5,1.2C825,460.4,824.9,460.8,824.9,461.2z M831.8,460.3H831c0-0.5,0.1-1,0.4-1.4c0.3-0.5,0.5-0.9,0.8-1.2
			c0.4-0.4,0.8-0.6,1.3-0.9c0.5-0.3,1-0.3,1.7-0.3c0.5,0,1,0.1,1.4,0.3s0.8,0.4,1,0.6c0.3,0.3,0.5,0.6,0.6,1.2
			c0.1,0.5,0.3,1,0.3,1.7v6.8h-1.2v-6.8c0-0.8-0.1-1.3-0.3-1.7c-0.3-0.4-0.5-0.6-0.9-0.9c-0.4-0.1-0.8-0.3-1.3-0.3
			c-0.5,0-0.9,0.1-1.3,0.3s-0.6,0.4-0.9,0.6c-0.3,0.3-0.4,0.5-0.5,0.9C831.9,459.6,831.8,460,831.8,460.3z M848,465.1v-5.3
			c0-0.5-0.1-0.9-0.3-1.3c-0.3-0.4-0.5-0.6-0.9-0.8c-0.4-0.1-0.9-0.3-1.4-0.3c-0.5,0-1,0.1-1.4,0.3c-0.4,0.1-0.8,0.4-1,0.8
			c-0.3,0.3-0.4,0.6-0.4,1h-1.2c0-0.4,0.1-0.8,0.3-1.2c0.1-0.4,0.5-0.6,0.8-0.9c0.4-0.3,0.8-0.5,1.3-0.6c0.5-0.1,1-0.3,1.6-0.3
			c0.8,0,1.4,0.1,1.9,0.4c0.5,0.3,1,0.6,1.3,1.2c0.3,0.5,0.5,1.2,0.5,1.8v4.9c0,0.4,0,0.8,0.1,1c0,0.4,0.1,0.6,0.3,0.9v0.1h-1.2
			c-0.1-0.3-0.1-0.5-0.1-0.9C848,465.7,848,465.5,848,465.1z M848.3,460.9v0.9h-2.2c-0.5,0-1.2,0-1.6,0.1c-0.5,0.1-0.8,0.3-1.2,0.5
			c-0.3,0.3-0.5,0.4-0.8,0.6c-0.1,0.3-0.3,0.6-0.3,0.9c0,0.4,0.1,0.6,0.3,1c0.1,0.3,0.5,0.5,0.8,0.8c0.4,0.1,0.8,0.3,1.3,0.3
			c0.6,0,1.2-0.1,1.7-0.4c0.5-0.3,0.9-0.5,1.2-0.9c0.3-0.4,0.5-0.8,0.6-1.3l0.5,0.6c-0.1,0.3-0.3,0.6-0.5,1
			c-0.3,0.4-0.5,0.6-0.9,0.9c-0.4,0.3-0.8,0.5-1.3,0.6c-0.5,0.1-1,0.3-1.6,0.3c-0.6,0-1.3-0.1-1.8-0.4c-0.5-0.3-0.9-0.6-1.2-1
			c-0.3-0.4-0.4-0.9-0.4-1.6c0-0.5,0.1-0.9,0.3-1.3c0.3-0.4,0.5-0.8,0.9-1c0.4-0.3,0.9-0.5,1.4-0.6c0.5-0.1,1.3-0.3,1.9-0.3h2.7
			V460.9z M845,455.1l1.8-2.7h1.4l-2.2,2.7H845z M856.5,456.7v0.9h-5.2v-0.9H856.5z M853.2,454.1h1.2v10.4c0,0.5,0,0.8,0.1,1
			c0.1,0.3,0.3,0.4,0.5,0.5s0.4,0.1,0.6,0.1c0.1,0,0.4,0,0.5,0c0.1,0,0.3,0,0.4-0.1v0.9c-0.1,0-0.3,0.1-0.5,0.1c-0.3,0-0.4,0-0.6,0
			c-0.4,0-0.8-0.1-1.2-0.3c-0.4-0.1-0.6-0.4-0.8-0.8c-0.1-0.4-0.3-0.9-0.3-1.7V454.1z M860.5,456.7v10.3h-1.2v-10.3H860.5z
			 M859.2,453.7c0-0.3,0.1-0.4,0.3-0.5c0.1-0.1,0.4-0.3,0.5-0.3c0.1,0,0.4,0.1,0.5,0.3c0.1,0.1,0.3,0.4,0.3,0.5
			c0,0.3-0.1,0.4-0.3,0.5c-0.1,0.1-0.4,0.3-0.5,0.3c-0.1,0-0.4-0.1-0.5-0.3C859.2,454.1,859.2,453.9,859.2,453.7z M867.7,466.3
			c0.5,0,0.9-0.1,1.3-0.3s0.8-0.4,1-0.8c0.3-0.4,0.4-0.8,0.5-1.3h1c0,0.6-0.3,1.3-0.6,1.7c-0.4,0.5-0.8,0.9-1.4,1.2
			c-0.5,0.3-1.2,0.4-1.9,0.4c-0.8,0-1.3-0.1-1.9-0.4c-0.5-0.3-1-0.6-1.4-1c-0.4-0.5-0.6-1-0.8-1.7c-0.1-0.6-0.3-1.3-0.3-2.1v-0.4
			c0-0.8,0.1-1.4,0.3-2.1c0.1-0.6,0.5-1.2,0.8-1.7c0.4-0.5,0.8-0.8,1.4-1c0.5-0.3,1.2-0.4,1.9-0.4c0.8,0,1.4,0.1,1.9,0.4
			c0.6,0.3,1,0.8,1.4,1.3s0.5,1.2,0.5,1.9h-1c0-0.5-0.1-1-0.4-1.4s-0.6-0.6-1-0.9c-0.4-0.3-0.9-0.3-1.4-0.3c-0.5,0-1,0.1-1.4,0.4
			c-0.4,0.3-0.8,0.5-1,0.9c-0.3,0.4-0.4,0.8-0.5,1.3c-0.1,0.5-0.1,1-0.1,1.6v0.4c0,0.5,0,1,0.1,1.6c0.1,0.5,0.3,0.9,0.5,1.3
			c0.3,0.4,0.6,0.6,1,0.9C866.7,466.1,867.2,466.3,867.7,466.3z M880.7,465.1v-5.3c0-0.5-0.1-0.9-0.3-1.3c-0.3-0.4-0.5-0.6-0.9-0.8
			c-0.4-0.1-0.9-0.3-1.4-0.3c-0.5,0-1,0.1-1.4,0.3c-0.4,0.1-0.8,0.4-1,0.8c-0.3,0.3-0.4,0.6-0.4,1h-1.2c0-0.4,0.1-0.8,0.3-1.2
			c0.1-0.4,0.5-0.6,0.8-0.9c0.4-0.3,0.8-0.5,1.3-0.6c0.5-0.1,1-0.3,1.6-0.3c0.8,0,1.4,0.1,1.9,0.4c0.5,0.3,1,0.6,1.3,1.2
			c0.3,0.5,0.5,1.2,0.5,1.8v4.9c0,0.4,0,0.8,0.1,1c0,0.4,0.1,0.6,0.3,0.9v0.1h-1.3c-0.1-0.3-0.1-0.5-0.1-0.9
			C880.7,465.7,880.7,465.5,880.7,465.1z M881,460.9v0.9h-2.2c-0.5,0-1.2,0-1.6,0.1c-0.5,0.1-0.8,0.3-1.2,0.5
			c-0.3,0.3-0.5,0.4-0.8,0.6c-0.1,0.3-0.3,0.6-0.3,0.9c0,0.4,0.1,0.6,0.3,1c0.1,0.3,0.5,0.5,0.8,0.8c0.4,0.1,0.8,0.3,1.3,0.3
			c0.6,0,1.2-0.1,1.7-0.4c0.5-0.3,0.9-0.5,1.2-0.9c0.3-0.4,0.5-0.8,0.6-1.3l0.5,0.6c-0.1,0.3-0.3,0.6-0.5,1
			c-0.3,0.4-0.5,0.6-0.9,0.9c-0.4,0.3-0.8,0.5-1.3,0.6c-0.5,0.1-1,0.3-1.6,0.3c-0.6,0-1.3-0.1-1.8-0.4c-0.5-0.3-0.9-0.6-1.2-1
			c-0.3-0.4-0.4-0.9-0.4-1.6c0-0.5,0.1-0.9,0.3-1.3c0.3-0.4,0.5-0.8,0.9-1c0.4-0.3,0.9-0.5,1.4-0.6s1.3-0.3,1.9-0.3h2.7V460.9z
			 M893.5,466l3.2-9.2h1.2l-4.4,11.9c-0.1,0.3-0.3,0.5-0.4,0.8c-0.1,0.3-0.3,0.5-0.5,0.8c-0.3,0.3-0.5,0.5-0.8,0.6
			c-0.3,0.1-0.8,0.3-1.2,0.3c-0.1,0-0.3,0-0.5,0c-0.1,0-0.3,0-0.4-0.1v-0.9c0.1,0,0.1,0,0.3,0c0.1,0,0.3,0,0.3,0
			c0.4,0,0.8-0.1,1-0.3s0.5-0.4,0.6-0.6s0.4-0.6,0.5-1L893.5,466z M890.5,456.7l3.2,8.8l0.3,1.2l-0.8,0.5l-4-10.5L890.5,456.7
			L890.5,456.7z M911.4,464.3c0-0.3-0.1-0.5-0.3-0.8c-0.1-0.3-0.4-0.5-0.8-0.8c-0.4-0.3-0.9-0.4-1.7-0.5c-0.5-0.1-1-0.3-1.6-0.4
			c-0.4-0.1-0.8-0.4-1.2-0.5c-0.3-0.3-0.5-0.5-0.6-0.8c-0.1-0.3-0.3-0.6-0.3-1c0-0.4,0.1-0.8,0.3-1c0.1-0.4,0.4-0.6,0.8-0.9
			c0.3-0.3,0.6-0.5,1.2-0.6c0.4-0.1,0.9-0.3,1.6-0.3c0.8,0,1.4,0.1,2.1,0.4c0.5,0.3,1,0.6,1.3,1c0.3,0.5,0.5,1,0.5,1.6h-1.2
			c0-0.4-0.1-0.6-0.3-1c-0.3-0.3-0.5-0.5-0.9-0.8c-0.4-0.3-0.9-0.3-1.4-0.3c-0.6,0-1,0.1-1.4,0.3c-0.4,0.1-0.6,0.4-0.8,0.6
			c-0.1,0.3-0.3,0.5-0.3,0.9c0,0.3,0,0.4,0.1,0.6c0.1,0.1,0.3,0.4,0.4,0.5c0.3,0.1,0.5,0.3,0.8,0.4c0.4,0.1,0.8,0.3,1.4,0.4
			c0.8,0.1,1.6,0.4,2.1,0.6c0.5,0.3,0.9,0.5,1.2,0.9s0.4,0.8,0.4,1.4c0,0.4-0.1,0.8-0.3,1.2c-0.1,0.4-0.4,0.6-0.8,0.9
			c-0.4,0.3-0.8,0.4-1.2,0.6c-0.5,0.1-1,0.3-1.6,0.3c-0.9,0-1.6-0.1-2.2-0.4c-0.6-0.3-1-0.6-1.3-1.2c-0.3-0.5-0.5-1-0.5-1.6h1.2
			c0,0.5,0.3,0.9,0.5,1.3c0.3,0.3,0.6,0.5,1,0.6c0.4,0.1,0.9,0.1,1.3,0.1c0.5,0,1-0.1,1.4-0.3c0.4-0.1,0.6-0.4,0.9-0.6
			C911.2,465,911.4,464.7,911.4,464.3z M919.4,467.2c-0.6,0-1.3-0.1-1.8-0.4c-0.5-0.3-1-0.6-1.4-1c-0.4-0.4-0.8-1-0.9-1.6
			c-0.3-0.6-0.4-1.3-0.4-2.1v-0.4c0-0.8,0.1-1.6,0.4-2.2c0.3-0.6,0.5-1.2,0.9-1.7c0.4-0.5,0.9-0.8,1.4-1c0.5-0.3,1-0.4,1.7-0.4
			s1.3,0.1,1.7,0.4c0.5,0.3,0.9,0.5,1.3,1c0.4,0.4,0.6,0.9,0.8,1.4c0.1,0.5,0.3,1.2,0.3,1.9v0.6h-7.8v-0.9h6.6v-0.1
			c0-0.5-0.1-1.2-0.4-1.6c-0.3-0.5-0.5-0.9-0.9-1.3c-0.4-0.3-0.9-0.5-1.6-0.5c-0.5,0-0.9,0.1-1.3,0.3c-0.4,0.3-0.8,0.5-1,0.9
			c-0.3,0.4-0.5,0.8-0.6,1.3c-0.1,0.5-0.3,1-0.3,1.7v0.4c0,0.5,0.1,1,0.3,1.6c0.1,0.5,0.4,0.9,0.8,1.3c0.3,0.4,0.6,0.6,1.2,0.9
			c0.4,0.3,0.9,0.3,1.4,0.3c0.6,0,1.2-0.1,1.6-0.4c0.5-0.3,0.9-0.6,1.3-1l0.6,0.5c-0.3,0.4-0.5,0.6-0.8,0.9
			c-0.4,0.3-0.8,0.5-1.2,0.6C920.6,467,920.1,467.2,919.4,467.2z M932.7,456.7h1v10.1c0,0.9-0.1,1.7-0.5,2.3
			c-0.4,0.6-0.8,1.2-1.4,1.4c-0.6,0.4-1.3,0.5-2.2,0.5c-0.4,0-0.9-0.1-1.3-0.3c-0.4-0.1-0.9-0.3-1.3-0.6c-0.4-0.3-0.8-0.5-1-0.9
			l0.6-0.6c0.4,0.5,0.9,0.9,1.3,1.2c0.5,0.3,1,0.4,1.6,0.4c0.6,0,1.2-0.1,1.7-0.4c0.5-0.3,0.8-0.6,1-1.2c0.3-0.5,0.4-1,0.4-1.8v-7.9
			L932.7,456.7z M925.5,462v-0.3c0-0.8,0.1-1.6,0.3-2.2c0.1-0.6,0.4-1.2,0.8-1.7c0.4-0.5,0.8-0.8,1.3-1c0.5-0.3,1-0.4,1.7-0.4
			c0.6,0,1.2,0.1,1.6,0.3c0.5,0.3,0.9,0.5,1.2,0.9c0.4,0.4,0.6,0.8,0.8,1.3c0.3,0.5,0.4,1,0.5,1.7v2.6c-0.1,0.5-0.3,1.2-0.4,1.6
			c-0.3,0.5-0.5,0.9-0.8,1.3c-0.4,0.4-0.8,0.6-1.2,0.8c-0.5,0.1-1,0.3-1.7,0.3c-0.6,0-1.2-0.1-1.7-0.4c-0.5-0.3-0.9-0.6-1.3-1
			c-0.4-0.5-0.6-1-0.8-1.7C925.5,463.4,925.5,462.8,925.5,462z M926.6,461.7v0.3c0,0.6,0,1.2,0.1,1.7c0.1,0.5,0.3,0.9,0.5,1.3
			s0.5,0.6,0.9,0.9c0.4,0.3,0.8,0.3,1.3,0.3c0.6,0,1.2-0.1,1.7-0.4c0.4-0.3,0.8-0.6,1-1c0.3-0.4,0.4-0.9,0.5-1.4v-2.7
			c-0.1-0.4-0.1-0.6-0.3-1c-0.1-0.4-0.4-0.6-0.6-0.9c-0.3-0.3-0.5-0.5-0.9-0.6s-0.8-0.3-1.4-0.3c-0.5,0-1,0.1-1.3,0.3
			c-0.4,0.3-0.6,0.5-0.9,0.9c-0.3,0.4-0.4,0.8-0.5,1.3C926.7,460.6,926.6,461.2,926.6,461.7z M943.7,464.6v-7.9h1.2v10.3h-1
			L943.7,464.6z M944,462.8h0.6c0,0.6-0.1,1.3-0.3,1.8c-0.1,0.5-0.4,1-0.6,1.4c-0.3,0.4-0.8,0.8-1.3,0.9c-0.5,0.3-1.2,0.4-1.8,0.4
			c-0.5,0-0.9-0.1-1.4-0.3c-0.4-0.1-0.8-0.4-1-0.6c-0.3-0.3-0.5-0.6-0.6-1.2c-0.1-0.5-0.3-1-0.3-1.8v-6.8h1.2v6.6c0,0.5,0,1,0.1,1.4
			c0.1,0.4,0.3,0.6,0.5,0.9c0.3,0.3,0.5,0.4,0.8,0.5c0.3,0.1,0.6,0.1,0.9,0.1c0.8,0,1.6-0.1,1.9-0.5c0.5-0.3,0.8-0.8,1-1.3
			C943.8,463.9,944,463.3,944,462.8z M949.4,458.5v8.6h-1.2v-10.4h1L949.4,458.5z M953.1,456.7v1c-0.1,0-0.3,0-0.4,0s-0.3,0-0.4,0
			c-0.5,0-0.9,0.1-1.3,0.3c-0.4,0.1-0.6,0.4-0.9,0.8c-0.3,0.3-0.4,0.6-0.5,1.2c-0.1,0.4-0.3,0.9-0.3,1.4l-0.4,0.1
			c0-0.6,0.1-1.3,0.3-1.8c0.1-0.5,0.4-1,0.6-1.6c0.3-0.4,0.6-0.8,1-1c0.4-0.3,0.9-0.4,1.6-0.4c0.1,0,0.3,0,0.4,0
			C952.8,456.5,952.9,456.7,953.1,456.7z M961.1,465.1v-5.3c0-0.5-0.1-0.9-0.3-1.3c-0.3-0.4-0.5-0.6-0.9-0.8
			c-0.4-0.1-0.9-0.3-1.4-0.3c-0.5,0-1,0.1-1.4,0.3c-0.4,0.1-0.8,0.4-1,0.8c-0.3,0.3-0.4,0.6-0.4,1h-1.2c0-0.4,0.1-0.8,0.3-1.2
			c0.1-0.4,0.5-0.6,0.8-0.9c0.4-0.3,0.8-0.5,1.3-0.6s1-0.3,1.6-0.3c0.8,0,1.4,0.1,1.9,0.4c0.5,0.3,1,0.6,1.3,1.2
			c0.3,0.5,0.5,1.2,0.5,1.8v4.9c0,0.4,0,0.8,0.1,1c0,0.4,0.1,0.6,0.3,0.9v0.1h-1.2c-0.1-0.3-0.1-0.5-0.1-0.9
			C961.1,465.7,961.1,465.5,961.1,465.1z M961.4,460.9v0.9h-2.2c-0.5,0-1.2,0-1.6,0.1c-0.5,0.1-0.9,0.3-1.2,0.5
			c-0.3,0.3-0.5,0.4-0.8,0.6c-0.1,0.3-0.3,0.6-0.3,0.9c0,0.4,0.1,0.6,0.3,1c0.1,0.3,0.5,0.5,0.8,0.8c0.4,0.1,0.8,0.3,1.3,0.3
			c0.6,0,1.2-0.1,1.7-0.4c0.5-0.3,0.9-0.5,1.2-0.9c0.3-0.4,0.5-0.8,0.6-1.3l0.5,0.6c-0.1,0.3-0.3,0.6-0.5,1
			c-0.3,0.4-0.5,0.6-0.9,0.9c-0.4,0.3-0.8,0.5-1.3,0.6c-0.5,0.1-1,0.3-1.6,0.3c-0.6,0-1.3-0.1-1.8-0.4c-0.5-0.3-0.9-0.6-1.2-1
			c-0.3-0.4-0.4-0.9-0.4-1.6c0-0.5,0.1-0.9,0.3-1.3c0.3-0.4,0.5-0.8,0.9-1c0.4-0.3,0.9-0.5,1.4-0.6c0.5-0.1,1.3-0.3,1.9-0.3h2.7
			V460.9z"/>
	</g>
</g>
<g id="renta">
	<g>
		<path class="st3" d="M234.7,12.8h4.6c0.9,0,1.8,0.1,2.5,0.5c0.7,0.3,1.3,0.8,1.7,1.4s0.5,1.3,0.5,2.2c0,0.7-0.1,1.3-0.4,1.8
			s-0.7,1-1.2,1.3c-0.5,0.4-1.1,0.7-1.7,0.8l-0.4,0.1h-4.9v-1h4.1c0.8,0,1.3-0.1,1.8-0.4c0.5-0.3,0.8-0.7,1.1-1
			c0.3-0.5,0.4-0.9,0.4-1.4c0-0.7-0.1-1.2-0.4-1.7c-0.3-0.5-0.7-0.8-1.2-1.1s-1.2-0.4-2-0.4h-3.4v13h-1.2V12.8z M243.4,26.7
			l-3.7-6.3h1.3l3.7,6.2v0.1H243.4z M251.4,27c-0.7,0-1.3-0.1-1.8-0.4c-0.5-0.3-1.1-0.7-1.4-1c-0.4-0.4-0.8-1-0.9-1.6
			c-0.3-0.7-0.4-1.3-0.4-2.1v-0.4c0-0.8,0.1-1.6,0.4-2.2s0.5-1.2,0.9-1.7s0.9-0.8,1.4-1c0.5-0.3,1.1-0.4,1.7-0.4s1.2,0.1,1.7,0.4
			c0.5,0.3,0.9,0.5,1.3,1c0.4,0.4,0.7,0.9,0.8,1.4s0.3,1.2,0.3,2v0.7h-7.9v-0.9h6.7v-0.1c0-0.5-0.1-1.2-0.4-1.6
			c-0.3-0.5-0.5-0.9-0.9-1.3c-0.4-0.3-0.9-0.5-1.6-0.5c-0.5,0-0.9,0.1-1.3,0.3c-0.4,0.3-0.8,0.5-1.1,0.9s-0.5,0.8-0.7,1.3
			s-0.3,1-0.3,1.7v0.4c0,0.5,0.1,1,0.3,1.6c0.1,0.5,0.4,0.9,0.8,1.3c0.3,0.4,0.7,0.7,1.2,0.9c0.4,0.3,0.9,0.3,1.4,0.3
			c0.7,0,1.2-0.1,1.6-0.4c0.5-0.3,0.9-0.7,1.3-1l0.7,0.5c-0.3,0.4-0.5,0.7-0.8,0.9c-0.4,0.3-0.8,0.5-1.2,0.7
			C252.5,26.8,252,27,251.4,27z M259.1,18.6v8.1h-1.2V16.3h1L259.1,18.6z M258.8,20.9l-0.5-0.3c0-0.7,0.1-1.2,0.4-1.7
			c0.3-0.5,0.5-1,0.9-1.4c0.4-0.4,0.8-0.8,1.3-0.9c0.5-0.3,1-0.4,1.6-0.4c0.5,0,0.9,0.1,1.4,0.3c0.4,0.1,0.8,0.4,1,0.7
			c0.3,0.3,0.5,0.7,0.7,1.2c0.1,0.5,0.3,1,0.3,1.7v6.8h-1.3V20c0-0.7-0.1-1.3-0.3-1.7c-0.3-0.4-0.5-0.7-0.8-0.9
			c-0.4-0.1-0.8-0.3-1.3-0.3s-1,0.1-1.4,0.4c-0.4,0.3-0.8,0.5-1,0.9c-0.3,0.4-0.5,0.8-0.7,1.2C259,20.1,258.8,20.5,258.8,20.9z
			 M273.1,16.3v0.9h-5.2v-0.9H273.1z M269.9,13.7h1.2v10.5c0,0.5,0,0.8,0.1,1c0.1,0.3,0.3,0.4,0.5,0.5c0.3,0.1,0.4,0.1,0.7,0.1
			c0.1,0,0.4,0,0.5,0s0.3,0,0.4-0.1v0.9c-0.1,0-0.3,0.1-0.5,0.1c-0.3,0-0.4,0-0.7,0c-0.4,0-0.8-0.1-1.2-0.3s-0.7-0.4-0.8-0.8
			c-0.1-0.4-0.3-0.9-0.3-1.7L269.9,13.7L269.9,13.7z M282.2,24.9v-5.4c0-0.5-0.1-0.9-0.3-1.3c-0.3-0.4-0.5-0.7-0.9-0.8
			c-0.4-0.1-0.9-0.3-1.4-0.3s-1,0.1-1.4,0.3c-0.4,0.1-0.8,0.4-1,0.8c-0.3,0.3-0.4,0.7-0.4,1h-1.2c0-0.4,0.1-0.8,0.3-1.2
			s0.5-0.7,0.8-0.9c0.4-0.3,0.8-0.5,1.3-0.7c0.5-0.1,1-0.3,1.6-0.3c0.8,0,1.4,0.1,2,0.4c0.5,0.3,1,0.7,1.3,1.2
			c0.3,0.5,0.5,1.2,0.5,1.8v5c0,0.4,0,0.8,0.1,1c0,0.4,0.1,0.7,0.3,0.9v0.1h-1.2c-0.1-0.3-0.1-0.5-0.1-0.9
			C282.2,25.5,282.2,25.2,282.2,24.9z M282.5,20.7v0.9h-2.2c-0.5,0-1.2,0-1.6,0.1c-0.5,0.1-0.8,0.3-1.2,0.5
			c-0.3,0.3-0.5,0.4-0.8,0.7c-0.1,0.3-0.3,0.7-0.3,0.9c0,0.4,0.1,0.7,0.3,1c0.1,0.3,0.5,0.5,0.8,0.8c0.4,0.1,0.8,0.3,1.3,0.3
			c0.7,0,1.2-0.1,1.7-0.4c0.5-0.3,0.9-0.5,1.2-0.9c0.3-0.4,0.5-0.8,0.7-1.3l0.5,0.7c-0.1,0.3-0.3,0.7-0.5,1
			c-0.3,0.4-0.5,0.7-0.9,0.9c-0.4,0.3-0.8,0.5-1.3,0.7s-1,0.3-1.6,0.3c-0.7,0-1.3-0.1-1.8-0.4c-0.5-0.3-0.9-0.7-1.2-1
			c-0.3-0.4-0.4-0.9-0.4-1.6c0-0.5,0.1-0.9,0.3-1.3c0.3-0.4,0.5-0.8,0.9-1c0.4-0.3,0.9-0.5,1.4-0.7s1.3-0.3,2-0.3h2.8V20.7z
			 M295.9,25.9c0.5,0,0.9-0.1,1.3-0.3s0.8-0.4,1-0.8c0.3-0.4,0.4-0.8,0.5-1.3h1c0,0.7-0.3,1.3-0.7,1.7c-0.4,0.5-0.8,0.9-1.4,1.2
			c-0.5,0.3-1.2,0.4-2,0.4s-1.3-0.1-2-0.4c-0.5-0.3-1-0.7-1.4-1c-0.4-0.5-0.7-1-0.8-1.7s-0.3-1.3-0.3-2.1v-0.3
			c0-0.8,0.1-1.4,0.3-2.1s0.5-1.2,0.8-1.7c0.4-0.5,0.8-0.8,1.4-1c0.5-0.3,1.2-0.4,2-0.4s1.4,0.1,2,0.4c0.7,0.3,1,0.8,1.4,1.3
			c0.4,0.5,0.5,1.2,0.5,2h-0.9c0-0.5-0.1-1-0.4-1.4c-0.3-0.4-0.7-0.7-1-0.9c-0.4-0.3-0.9-0.3-1.4-0.3s-1,0.1-1.4,0.4
			c-0.4,0.3-0.8,0.5-1,0.9c-0.3,0.4-0.4,0.8-0.5,1.3s-0.1,1-0.1,1.6v0.4c0,0.5,0,1,0.1,1.6c0.1,0.5,0.3,0.9,0.5,1.3
			c0.3,0.4,0.7,0.7,1,0.9C294.8,25.9,295.3,25.9,295.9,25.9z M309,24.9v-5.4c0-0.5-0.1-0.9-0.3-1.3c-0.3-0.4-0.5-0.7-0.9-0.8
			c-0.4-0.1-0.9-0.3-1.4-0.3s-1,0.1-1.4,0.3c-0.4,0.1-0.8,0.4-1,0.8c-0.3,0.3-0.4,0.7-0.4,1h-1.2c0-0.4,0.1-0.8,0.3-1.2
			s0.5-0.7,0.8-0.9c0.4-0.3,0.8-0.5,1.3-0.7c0.5-0.1,1-0.3,1.6-0.3c0.8,0,1.4,0.1,2,0.4c0.5,0.3,1,0.7,1.3,1.2
			c0.3,0.5,0.5,1.2,0.5,1.8v5c0,0.4,0,0.8,0.1,1c0,0.4,0.1,0.7,0.3,0.9v0.1h-1.2c-0.1-0.3-0.1-0.5-0.1-0.9
			C309,25.5,309,25.2,309,24.9z M309.2,20.7v0.9H307c-0.5,0-1.2,0-1.6,0.1c-0.5,0.1-0.8,0.3-1.2,0.5c-0.3,0.3-0.5,0.4-0.8,0.7
			c-0.1,0.3-0.3,0.7-0.3,0.9c0,0.4,0.1,0.7,0.3,1c0.1,0.3,0.5,0.5,0.8,0.8c0.4,0.1,0.8,0.3,1.3,0.3c0.7,0,1.2-0.1,1.7-0.4
			c0.5-0.3,0.9-0.5,1.2-0.9c0.3-0.4,0.5-0.8,0.7-1.3l0.5,0.7c-0.1,0.3-0.3,0.7-0.5,1c-0.3,0.4-0.5,0.7-0.9,0.9
			c-0.4,0.3-0.8,0.5-1.3,0.7s-1,0.3-1.6,0.3c-0.7,0-1.3-0.1-1.8-0.4c-0.5-0.3-0.9-0.7-1.2-1c-0.3-0.4-0.4-0.9-0.4-1.6
			c0-0.5,0.1-0.9,0.3-1.3c0.3-0.4,0.5-0.8,0.9-1c0.4-0.3,0.9-0.5,1.4-0.7s1.3-0.3,2-0.3h2.8V20.7z M320.3,24.7V12h1.2v14.7h-1
			L320.3,24.7z M313,21.7v-0.3c0-0.8,0.1-1.6,0.3-2.2c0.1-0.7,0.4-1.2,0.8-1.7c0.4-0.5,0.8-0.8,1.3-1.1c0.5-0.3,1-0.4,1.7-0.4
			s1.2,0.1,1.6,0.3c0.5,0.3,0.9,0.5,1.2,0.9c0.4,0.4,0.7,0.8,0.8,1.3c0.3,0.5,0.4,1,0.5,1.7v2.6c-0.1,0.5-0.3,1.2-0.4,1.6
			c-0.3,0.5-0.5,0.9-0.8,1.3c-0.4,0.4-0.8,0.7-1.2,0.8c-0.5,0.1-1,0.3-1.7,0.3s-1.2-0.1-1.7-0.4c-0.5-0.3-0.9-0.7-1.3-1
			c-0.4-0.5-0.7-1-0.8-1.7C313.2,23,313,22.5,313,21.7z M314.2,21.4v0.3c0,0.7,0,1.2,0.1,1.7s0.3,0.9,0.5,1.3
			c0.3,0.4,0.5,0.7,0.9,0.9c0.4,0.3,0.8,0.3,1.3,0.3c0.7,0,1.2-0.1,1.7-0.4c0.4-0.3,0.8-0.7,1-1c0.3-0.4,0.5-0.9,0.5-1.4v-3
			c-0.1-0.4-0.1-0.7-0.4-1c-0.1-0.4-0.4-0.7-0.7-0.9s-0.5-0.5-0.9-0.7c-0.4-0.1-0.8-0.3-1.4-0.3c-0.5,0-1,0.1-1.3,0.3
			c-0.4,0.3-0.7,0.5-0.9,0.9c-0.3,0.4-0.4,0.8-0.5,1.3C314.4,20.3,314.2,20.8,314.2,21.4z M331.2,24.9v-5.4c0-0.5-0.1-0.9-0.3-1.3
			c-0.3-0.4-0.5-0.7-0.9-0.8c-0.4-0.1-0.9-0.3-1.4-0.3s-1,0.1-1.4,0.3c-0.4,0.1-0.8,0.4-1,0.8c-0.3,0.3-0.4,0.7-0.4,1h-1.2
			c0-0.4,0.1-0.8,0.3-1.2s0.5-0.7,0.8-0.9c0.4-0.3,0.8-0.5,1.3-0.7s1-0.3,1.6-0.3c0.8,0,1.4,0.1,2,0.4c0.5,0.3,1,0.7,1.3,1.2
			s0.5,1.2,0.5,1.8v5c0,0.4,0,0.8,0.1,1c0,0.4,0.1,0.7,0.3,0.9v0.1h-1.2c-0.1-0.3-0.1-0.5-0.1-0.9C331.3,25.5,331.2,25.2,331.2,24.9
			z M331.4,20.7v0.9h-2.2c-0.5,0-1.2,0-1.6,0.1c-0.5,0.1-0.8,0.3-1.2,0.5c-0.3,0.3-0.5,0.4-0.8,0.7c-0.1,0.3-0.3,0.7-0.3,0.9
			c0,0.4,0.1,0.7,0.3,1c0.1,0.3,0.5,0.5,0.8,0.8c0.4,0.1,0.8,0.3,1.3,0.3c0.7,0,1.2-0.1,1.7-0.4c0.5-0.3,0.9-0.5,1.2-0.9
			c0.3-0.4,0.5-0.8,0.7-1.3l0.5,0.7c-0.1,0.3-0.3,0.7-0.5,1c-0.3,0.4-0.5,0.7-0.9,0.9c-0.4,0.3-0.8,0.5-1.3,0.7s-1,0.3-1.6,0.3
			c-0.7,0-1.3-0.1-1.8-0.4c-0.5-0.3-0.9-0.7-1.2-1c-0.3-0.4-0.4-0.9-0.4-1.6c0-0.5,0.1-0.9,0.3-1.3c0.3-0.4,0.5-0.8,0.9-1
			c0.4-0.3,0.9-0.5,1.4-0.7s1.3-0.3,2-0.3h2.8V20.7z M234.3,41.4h1.2c0.7,0,1.3-0.1,1.8-0.4s0.8-0.5,1.1-1c0.3-0.4,0.4-0.9,0.4-1.3
			c0-0.5-0.1-1-0.3-1.4c-0.3-0.4-0.5-0.8-0.9-1c-0.4-0.3-0.9-0.4-1.7-0.4c-0.5,0-1.1,0.1-1.6,0.4c-0.5,0.3-0.8,0.5-1.1,1
			c-0.3,0.4-0.4,0.9-0.4,1.6h-1.2c0-0.8,0.1-1.4,0.5-2c0.4-0.5,0.9-1,1.4-1.3c0.5-0.3,1.3-0.5,2.1-0.5s1.6,0.1,2.1,0.4
			c0.7,0.3,1.1,0.8,1.4,1.3c0.4,0.5,0.5,1.3,0.5,2.1c0,0.4-0.1,0.8-0.3,1.3c-0.1,0.4-0.4,0.8-0.8,1s-0.8,0.5-1.3,0.8
			c-0.5,0.3-1.2,0.3-1.8,0.3h-1.3L234.3,41.4L234.3,41.4z M234.3,42.4v-0.8h1.3c0.8,0,1.4,0.1,2.1,0.3c0.5,0.1,1.1,0.4,1.4,0.8
			c0.4,0.3,0.7,0.7,0.8,1.2c0.1,0.4,0.3,0.9,0.3,1.4c0,0.7-0.1,1.2-0.3,1.7c-0.3,0.5-0.5,0.9-0.9,1.3s-0.8,0.7-1.3,0.8
			s-1.1,0.3-1.7,0.3c-0.5,0-1.1-0.1-1.7-0.3c-0.5-0.1-1.1-0.4-1.4-0.8s-0.8-0.8-1.1-1.3c-0.3-0.5-0.4-1-0.4-1.7h1.2
			c0,0.5,0.1,1,0.4,1.6c0.3,0.4,0.7,0.8,1.2,1c0.5,0.3,1.1,0.4,1.7,0.4s1.2-0.1,1.7-0.4c0.5-0.3,0.8-0.5,1.1-1
			c0.3-0.4,0.4-0.9,0.4-1.6s-0.1-1.2-0.4-1.7c-0.3-0.4-0.7-0.8-1.2-0.9c-0.5-0.3-1.2-0.3-1.8-0.3H234.3z M254.6,46.4
			c0-0.3-0.1-0.5-0.3-0.8c-0.1-0.3-0.4-0.5-0.8-0.8c-0.4-0.3-0.9-0.4-1.7-0.5c-0.5-0.1-1.1-0.3-1.6-0.4c-0.4-0.1-0.8-0.4-1.2-0.5
			c-0.3-0.3-0.5-0.5-0.7-0.8c-0.1-0.3-0.3-0.7-0.3-1s0.1-0.8,0.3-1c0.1-0.4,0.4-0.7,0.8-0.9c0.3-0.3,0.7-0.5,1.2-0.7
			c0.4-0.1,0.9-0.3,1.6-0.3c0.8,0,1.4,0.1,2.1,0.4c0.5,0.3,1.1,0.7,1.3,1c0.3,0.5,0.5,1,0.5,1.6h-1.2c0-0.4-0.1-0.7-0.3-1
			c-0.3-0.3-0.5-0.5-0.9-0.8c-0.4-0.3-0.9-0.3-1.4-0.3c-0.7,0-1.1,0.1-1.4,0.3c-0.4,0.1-0.7,0.4-0.8,0.7c-0.1,0.3-0.3,0.5-0.3,0.9
			c0,0.3,0,0.4,0.1,0.7c0.1,0.1,0.3,0.4,0.4,0.5c0.3,0.1,0.5,0.3,0.8,0.4c0.4,0.1,0.8,0.3,1.4,0.4c0.8,0.1,1.6,0.4,2.1,0.7
			c0.5,0.3,0.9,0.5,1.2,0.9s0.4,0.8,0.4,1.4c0,0.4-0.1,0.8-0.3,1.2c-0.1,0.4-0.4,0.7-0.8,0.9s-0.8,0.4-1.2,0.7
			c-0.5,0.1-1.1,0.3-1.6,0.3c-0.9,0-1.6-0.1-2.2-0.4s-1.1-0.7-1.3-1.2s-0.5-1-0.5-1.6h1.2c0,0.5,0.3,0.9,0.5,1.3
			c0.3,0.3,0.7,0.5,1.1,0.7s0.9,0.1,1.3,0.1c0.5,0,1.1-0.1,1.4-0.3c0.4-0.1,0.7-0.4,0.9-0.7C254.5,47,254.6,46.8,254.6,46.4z
			 M262.8,49.3c-0.7,0-1.3-0.1-1.8-0.4c-0.5-0.3-1-0.7-1.4-1c-0.4-0.4-0.8-1-0.9-1.6c-0.3-0.7-0.4-1.3-0.4-2.1v-0.4
			c0-0.8,0.1-1.6,0.4-2.2c0.3-0.7,0.5-1.2,0.9-1.7c0.4-0.5,0.9-0.8,1.4-1c0.5-0.3,1-0.4,1.7-0.4s1.2,0.1,1.7,0.4s0.9,0.5,1.3,1
			c0.4,0.4,0.7,0.9,0.8,1.4c0.1,0.5,0.3,1.2,0.3,2v0.7h-7.9V43h6.7v-0.1c0-0.5-0.1-1.2-0.4-1.6c-0.3-0.5-0.5-0.9-0.9-1.3
			c-0.4-0.3-0.9-0.5-1.6-0.5c-0.5,0-0.9,0.1-1.3,0.3c-0.4,0.3-0.8,0.5-1,0.9c-0.3,0.4-0.5,0.8-0.7,1.3c-0.1,0.5-0.3,1-0.3,1.7V44
			c0,0.5,0.1,1,0.3,1.6c0.1,0.5,0.4,0.9,0.8,1.3c0.3,0.4,0.7,0.7,1.2,0.9c0.4,0.3,0.9,0.3,1.4,0.3c0.7,0,1.2-0.1,1.6-0.4
			c0.5-0.3,0.9-0.7,1.3-1l0.7,0.5c-0.3,0.4-0.5,0.7-0.8,0.9c-0.4,0.3-0.8,0.5-1.2,0.7C264,49.1,263.4,49.3,262.8,49.3z M276.2,38.6
			h1v10.2c0,0.9-0.1,1.7-0.5,2.4s-0.8,1.2-1.4,1.4c-0.7,0.4-1.3,0.5-2.2,0.5c-0.4,0-0.9-0.1-1.3-0.3c-0.4-0.1-0.9-0.3-1.3-0.7
			c-0.4-0.3-0.8-0.5-1-0.9l0.7-0.7c0.4,0.5,0.9,0.9,1.3,1.2c0.5,0.3,1,0.4,1.6,0.4c0.7,0,1.2-0.1,1.7-0.4c0.5-0.3,0.8-0.7,1-1.2
			c0.3-0.5,0.4-1,0.4-1.8V41L276.2,38.6z M268.8,44v-0.3c0-0.8,0.1-1.6,0.3-2.2s0.4-1.2,0.8-1.7c0.4-0.5,0.8-0.8,1.3-1
			s1-0.4,1.7-0.4s1.2,0.1,1.6,0.3c0.5,0.3,0.9,0.5,1.2,0.9c0.4,0.4,0.7,0.8,0.8,1.3c0.3,0.5,0.4,1,0.5,1.7v2.6
			c-0.1,0.5-0.3,1.2-0.4,1.6c-0.3,0.5-0.5,0.9-0.8,1.3c-0.4,0.4-0.8,0.7-1.2,0.8c-0.5,0.1-1,0.3-1.7,0.3s-1.2-0.1-1.7-0.4
			s-0.9-0.7-1.3-1c-0.4-0.5-0.7-1-0.8-1.7C268.9,45.5,268.8,44.8,268.8,44z M270,43.8V44c0,0.7,0,1.2,0.1,1.7
			c0.1,0.5,0.3,0.9,0.5,1.3c0.3,0.4,0.5,0.7,0.9,0.9c0.4,0.3,0.8,0.3,1.3,0.3c0.7,0,1.2-0.1,1.7-0.4c0.4-0.3,0.8-0.7,1-1
			c0.3-0.4,0.4-0.9,0.5-1.4v-3c-0.1-0.4-0.1-0.7-0.3-1s-0.4-0.7-0.7-0.9s-0.5-0.5-0.9-0.7c-0.4-0.1-0.8-0.3-1.4-0.3
			c-0.5,0-0.9,0.1-1.3,0.3c-0.4,0.3-0.7,0.5-0.9,0.9s-0.4,0.8-0.5,1.3C270.1,42.6,270,43.1,270,43.8z M287.3,46.6v-8h1.2V49h-1
			L287.3,46.6z M287.6,44.8h0.7c0,0.7-0.1,1.3-0.3,1.8s-0.4,1-0.7,1.4s-0.8,0.8-1.3,0.9c-0.5,0.3-1.2,0.4-1.8,0.4
			c-0.5,0-0.9-0.1-1.4-0.3c-0.4-0.1-0.8-0.4-1-0.7c-0.3-0.3-0.5-0.7-0.7-1.2c-0.1-0.5-0.3-1-0.3-1.8v-6.7h1.2v6.7c0,0.5,0,1,0.1,1.4
			s0.3,0.7,0.5,0.9c0.3,0.3,0.5,0.4,0.8,0.5c0.3,0.1,0.7,0.1,0.9,0.1c0.8,0,1.6-0.1,2-0.5c0.5-0.3,0.8-0.8,1-1.3
			C287.5,46,287.6,45.3,287.6,44.8z M293,40.9V49h-1.2V38.6h1L293,40.9z M292.7,43.2l-0.5-0.3c0-0.7,0.1-1.2,0.4-1.7
			c0.3-0.5,0.5-1,0.9-1.4c0.4-0.4,0.8-0.8,1.3-0.9c0.5-0.3,1-0.4,1.6-0.4c0.5,0,0.9,0.1,1.4,0.3c0.4,0.1,0.8,0.4,1,0.7
			c0.3,0.3,0.5,0.7,0.7,1.2c0.1,0.5,0.3,1,0.3,1.7v6.8h-1.2v-6.8c0-0.7-0.1-1.3-0.3-1.7c-0.3-0.4-0.5-0.7-0.8-0.9
			c-0.4-0.1-0.8-0.3-1.3-0.3c-0.5,0-1,0.1-1.4,0.4c-0.4,0.3-0.8,0.5-1,0.9c-0.3,0.4-0.5,0.8-0.7,1.2
			C292.8,42.4,292.8,42.8,292.7,43.2z M309.9,47V34.3h1.2V49h-1L309.9,47z M302.7,44v-0.3c0-0.8,0.1-1.6,0.3-2.2s0.4-1.2,0.8-1.7
			c0.4-0.5,0.8-0.8,1.3-1s1-0.4,1.7-0.4s1.2,0.1,1.6,0.3c0.5,0.3,0.9,0.5,1.2,0.9c0.4,0.4,0.7,0.8,0.8,1.3c0.3,0.5,0.4,1,0.5,1.7
			v2.6c-0.1,0.5-0.3,1.2-0.4,1.6c-0.3,0.5-0.5,0.9-0.8,1.3c-0.4,0.4-0.8,0.7-1.2,0.8c-0.5,0.1-1,0.3-1.7,0.3s-1.2-0.1-1.7-0.4
			s-0.9-0.7-1.3-1c-0.4-0.5-0.7-1-0.8-1.7C302.7,45.5,302.7,44.8,302.7,44z M303.7,43.8V44c0,0.7,0,1.2,0.1,1.7
			c0.1,0.5,0.3,0.9,0.5,1.3c0.3,0.4,0.5,0.7,0.9,0.9c0.4,0.3,0.8,0.3,1.3,0.3c0.7,0,1.2-0.1,1.7-0.4c0.4-0.3,0.8-0.7,1-1
			c0.3-0.4,0.5-0.9,0.5-1.4v-3c-0.1-0.4-0.1-0.7-0.4-1c-0.1-0.4-0.4-0.7-0.7-0.9s-0.5-0.5-0.9-0.7c-0.4-0.1-0.8-0.3-1.4-0.3
			c-0.5,0-1,0.1-1.3,0.3c-0.4,0.3-0.7,0.5-0.9,0.9s-0.4,0.8-0.5,1.3S303.7,43.1,303.7,43.8z M313.8,44v-0.3c0-0.8,0.1-1.4,0.3-2.1
			c0.3-0.7,0.5-1.2,0.9-1.7c0.4-0.5,0.9-0.8,1.4-1c0.5-0.3,1.2-0.4,2-0.4c0.7,0,1.3,0.1,2,0.4c0.5,0.3,1,0.7,1.4,1
			c0.4,0.5,0.8,1,0.9,1.7c0.3,0.7,0.3,1.3,0.3,2.1V44c0,0.8-0.1,1.4-0.3,2.1c-0.3,0.7-0.5,1.2-0.9,1.7c-0.4,0.5-0.9,0.8-1.4,1
			s-1.2,0.4-2,0.4c-0.7,0-1.3-0.1-2-0.4c-0.5-0.3-1-0.7-1.4-1c-0.4-0.5-0.8-1-0.9-1.7C313.8,45.5,313.8,44.8,313.8,44z M314.9,43.8
			V44c0,0.5,0.1,1,0.3,1.6c0.1,0.5,0.4,0.9,0.7,1.3c0.3,0.4,0.7,0.7,1,0.9s0.9,0.4,1.4,0.4s1-0.1,1.4-0.4c0.4-0.3,0.8-0.5,1-0.9
			c0.3-0.4,0.5-0.8,0.7-1.3c0.1-0.5,0.3-1,0.3-1.6v-0.3c0-0.5-0.1-1-0.3-1.6s-0.4-0.9-0.7-1.3c-0.3-0.4-0.7-0.7-1-0.9
			c-0.4-0.3-0.9-0.4-1.4-0.4s-1,0.1-1.4,0.4c-0.4,0.3-0.8,0.5-1,0.9c-0.3,0.4-0.5,0.8-0.7,1.3C315,42.6,314.9,43.1,314.9,43.8z
			 M332.1,46.4c0-0.3-0.1-0.5-0.3-0.8c-0.1-0.3-0.4-0.5-0.8-0.8c-0.4-0.3-0.9-0.4-1.7-0.5c-0.5-0.1-1-0.3-1.6-0.4
			c-0.4-0.1-0.8-0.4-1.2-0.5c-0.3-0.3-0.5-0.5-0.7-0.8c-0.1-0.3-0.3-0.7-0.3-1s0.1-0.8,0.3-1c0.1-0.4,0.4-0.7,0.8-0.9
			c0.3-0.3,0.7-0.5,1.2-0.7c0.4-0.1,0.9-0.3,1.6-0.3c0.8,0,1.4,0.1,2.1,0.4c0.5,0.3,1,0.7,1.3,1c0.3,0.5,0.5,1,0.5,1.6h-1.2
			c0-0.4-0.1-0.7-0.3-1c-0.3-0.3-0.5-0.5-0.9-0.8c-0.4-0.3-0.9-0.3-1.4-0.3c-0.7,0-1,0.1-1.4,0.3c-0.4,0.1-0.7,0.4-0.8,0.7
			s-0.3,0.5-0.3,0.9c0,0.3,0,0.4,0.1,0.7c0.1,0.1,0.3,0.4,0.4,0.5c0.3,0.1,0.5,0.3,0.8,0.4c0.4,0.1,0.8,0.3,1.4,0.4
			c0.8,0.1,1.6,0.4,2.1,0.7s0.9,0.5,1.2,0.9c0.3,0.4,0.4,0.8,0.4,1.4c0,0.4-0.1,0.8-0.3,1.2c-0.1,0.4-0.4,0.7-0.8,0.9
			c-0.4,0.3-0.8,0.4-1.2,0.7c-0.5,0.1-1,0.3-1.6,0.3c-0.9,0-1.6-0.1-2.2-0.4s-1-0.7-1.3-1.2c-0.3-0.5-0.5-1-0.5-1.6h1.2
			c0,0.5,0.3,0.9,0.5,1.3c0.3,0.3,0.7,0.5,1,0.7s0.9,0.1,1.3,0.1c0.5,0,1-0.1,1.4-0.3c0.4-0.1,0.7-0.4,0.9-0.7
			C331.9,47,332.1,46.8,332.1,46.4z"/>
		<g>
			<circle class="st4" cx="360.8" cy="32.6" r="21"/>
			<path class="st6" d="M360,20.9V25"/>
			<path class="st6" d="M360,40.3V43"/>
			<path class="st7" d="M364.5,27.5c0,0-0.7-2.6-4.5-2.6s-4.5,2.5-4.5,3.8c0,5.2,8.9,2.5,8.9,7.7c0,1.3-0.7,3.8-4.5,3.8
				s-4.5-2.6-4.5-2.6"/>
		</g>
	</g>
</g>
<g id="agropecuario">
	<g>
		<path class="st3" d="M106.9,498.5v1H99v-1H106.9z M99.4,485.5v14h-1.2v-14H99.4z M105.8,491.8v1h-7v-1H105.8z M106.8,485.5v1h-7.9
			v-1H106.8z M110.7,491.4v8.1h-1.2v-10.4h1.1L110.7,491.4z M110.4,493.8l-0.5-0.3c0-0.7,0.1-1.2,0.4-1.7c0.3-0.5,0.5-1,0.9-1.4
			c0.4-0.4,0.8-0.8,1.3-0.9c0.5-0.3,1.1-0.4,1.6-0.4c0.5,0,0.9,0.1,1.4,0.3s0.8,0.4,1.1,0.7c0.3,0.3,0.5,0.7,0.7,1.2s0.3,1,0.3,1.7
			v6.8h-1.2v-6.8c0-0.7-0.1-1.3-0.3-1.7c-0.3-0.4-0.5-0.7-0.8-0.9s-0.8-0.3-1.3-0.3s-1.1,0.1-1.4,0.4c-0.4,0.3-0.8,0.5-1.1,0.9
			c-0.3,0.4-0.5,0.8-0.7,1.2C110.4,492.9,110.4,493.4,110.4,493.8z M127.1,491.1v12.3h-1.2V489h1.1L127.1,491.1z M134.3,494.3v0.3
			c0,0.8-0.1,1.4-0.3,2.1c-0.1,0.7-0.4,1.2-0.8,1.7c-0.4,0.5-0.8,0.8-1.2,1c-0.5,0.3-1.1,0.4-1.7,0.4s-1.2-0.1-1.7-0.3
			c-0.5-0.1-0.9-0.5-1.3-0.8c-0.4-0.4-0.7-0.8-0.8-1.3c-0.3-0.5-0.4-1-0.4-1.6v-2.6c0.1-0.7,0.3-1.2,0.5-1.7s0.5-0.9,0.8-1.3
			c0.4-0.4,0.8-0.7,1.2-0.9c0.4-0.3,1.1-0.3,1.6-0.3c0.7,0,1.2,0.1,1.7,0.4c0.5,0.3,0.9,0.7,1.3,1c0.4,0.5,0.7,1,0.8,1.7
			C134.2,492.7,134.3,493.5,134.3,494.3z M133.1,494.4v-0.3c0-0.7,0-1.2-0.1-1.7c-0.1-0.5-0.3-0.9-0.5-1.3s-0.5-0.7-0.9-0.9
			c-0.4-0.3-0.8-0.3-1.3-0.3c-0.5,0-1.1,0.1-1.4,0.3s-0.7,0.4-0.9,0.7c-0.3,0.3-0.4,0.7-0.7,0.9c-0.3,0.3-0.3,0.7-0.3,1v3
			c0.1,0.5,0.3,0.9,0.5,1.3c0.3,0.4,0.7,0.8,1.1,1c0.4,0.3,1.1,0.4,1.7,0.4c0.5,0,0.9-0.1,1.3-0.3c0.4-0.3,0.7-0.5,0.9-0.9
			c0.3-0.4,0.4-0.8,0.5-1.3C133,495.6,133.1,495.1,133.1,494.4z M138.4,490.9v8.7h-1.2v-10.4h1.1L138.4,490.9z M142.1,489v1
			c-0.1,0-0.3,0-0.4,0c-0.1,0-0.3,0-0.4,0c-0.5,0-0.9,0.1-1.3,0.3s-0.7,0.4-0.9,0.8c-0.3,0.3-0.4,0.7-0.5,1.2
			c-0.1,0.4-0.3,0.9-0.3,1.4l-0.4,0.1c0-0.7,0.1-1.3,0.3-1.8c0.1-0.5,0.4-1,0.7-1.6c0.3-0.4,0.7-0.8,1.1-1c0.4-0.3,0.9-0.4,1.6-0.4
			c0.1,0,0.3,0,0.4,0C141.9,489,141.9,489,142.1,489z M143.4,494.6v-0.3c0-0.8,0.1-1.4,0.3-2.1s0.5-1.2,0.9-1.7
			c0.4-0.5,0.9-0.8,1.4-1c0.5-0.3,1.2-0.4,2-0.4c0.7,0,1.3,0.1,2,0.4c0.5,0.3,1.1,0.7,1.4,1c0.4,0.4,0.8,1,0.9,1.7
			c0.1,0.7,0.3,1.3,0.3,2.1v0.3c0,0.8-0.1,1.4-0.3,2.1c-0.3,0.7-0.5,1.2-0.9,1.7c-0.4,0.5-0.9,0.8-1.4,1c-0.5,0.3-1.2,0.4-2,0.4
			c-0.7,0-1.3-0.1-2-0.4c-0.5-0.3-1.1-0.7-1.4-1c-0.4-0.5-0.8-1-0.9-1.7S143.4,495.2,143.4,494.6z M144.6,494.2v0.3
			c0,0.5,0.1,1,0.3,1.6c0.1,0.5,0.4,0.9,0.7,1.3c0.3,0.4,0.7,0.7,1.1,0.9c0.4,0.3,0.9,0.4,1.4,0.4c0.5,0,1.1-0.1,1.4-0.4
			c0.4-0.3,0.8-0.5,1.1-0.9c0.3-0.4,0.5-0.8,0.7-1.3c0.1-0.5,0.3-1,0.3-1.6v-0.3c0-0.5-0.1-1-0.3-1.6c-0.1-0.5-0.4-0.9-0.7-1.3
			s-0.7-0.7-1.1-0.9c-0.4-0.3-0.9-0.4-1.4-0.4c-0.5,0-1.1,0.1-1.4,0.4c-0.4,0.3-0.8,0.5-1.1,0.9c-0.3,0.4-0.5,0.8-0.7,1.3
			C144.7,493.1,144.6,493.6,144.6,494.2z M162.3,497.6v-12.7h1.2v14.7h-1.1L162.3,497.6z M155.1,494.4v-0.3c0-0.8,0.1-1.6,0.3-2.2
			c0.1-0.7,0.4-1.2,0.8-1.7c0.4-0.5,0.8-0.8,1.3-1c0.5-0.3,1.1-0.4,1.7-0.4s1.2,0.1,1.6,0.3c0.5,0.3,0.9,0.5,1.2,0.9
			c0.4,0.4,0.7,0.8,0.8,1.3c0.3,0.5,0.4,1,0.5,1.7v2.6c-0.1,0.5-0.3,1.2-0.4,1.6c-0.3,0.5-0.5,0.9-0.8,1.3c-0.4,0.4-0.8,0.7-1.2,0.8
			c-0.5,0.1-1.1,0.3-1.7,0.3s-1.2-0.1-1.7-0.4c-0.5-0.3-0.9-0.7-1.3-1c-0.4-0.5-0.7-1-0.8-1.7C155.2,496,155.1,495.2,155.1,494.4z
			 M156.2,494.3v0.3c0,0.7,0,1.2,0.1,1.7c0.1,0.5,0.3,0.9,0.5,1.3s0.5,0.7,0.9,0.9c0.4,0.3,0.8,0.3,1.3,0.3c0.7,0,1.2-0.1,1.7-0.4
			c0.4-0.3,0.8-0.7,1.1-1c0.3-0.4,0.5-0.9,0.5-1.4v-3c-0.1-0.4-0.1-0.7-0.4-1c-0.1-0.4-0.4-0.7-0.7-0.9c-0.3-0.3-0.5-0.5-0.9-0.7
			c-0.4-0.1-0.8-0.3-1.4-0.3c-0.5,0-1.1,0.1-1.3,0.3c-0.3,0.1-0.7,0.5-0.9,0.9c-0.3,0.4-0.4,0.8-0.5,1.3
			C156.2,493.1,156.2,493.6,156.2,494.3z M173.4,497.2v-8h1.2v10.4h-1.1L173.4,497.2z M173.7,495.2h0.7c0,0.7-0.1,1.3-0.3,1.8
			c-0.1,0.5-0.4,1-0.7,1.4c-0.3,0.4-0.8,0.8-1.3,0.9c-0.5,0.3-1.2,0.4-1.8,0.4c-0.5,0-0.9-0.1-1.4-0.3c-0.4-0.1-0.8-0.4-1.1-0.7
			s-0.5-0.7-0.7-1.2s-0.3-1-0.3-1.8v-6.7h1.2v6.7c0,0.5,0,1,0.1,1.4c0.1,0.4,0.3,0.7,0.5,0.9s0.5,0.4,0.8,0.5
			c0.3,0.1,0.7,0.1,0.9,0.1c0.8,0,1.6-0.1,2-0.5c0.5-0.3,0.8-0.8,1.1-1.3C173.6,496.4,173.7,495.9,173.7,495.2z M181.8,498.8
			c0.5,0,0.9-0.1,1.3-0.3s0.8-0.4,1.1-0.8c0.3-0.4,0.4-0.8,0.5-1.3h1.1c0,0.7-0.3,1.3-0.7,1.7c-0.4,0.5-0.8,0.9-1.4,1.2
			c-0.5,0.3-1.2,0.4-2,0.4s-1.3-0.1-2-0.4c-0.5-0.3-1.1-0.7-1.4-1c-0.4-0.5-0.7-1-0.8-1.7s-0.3-1.3-0.3-2.1V494
			c0-0.8,0.1-1.4,0.3-2.1c0.1-0.7,0.5-1.2,0.8-1.7c0.4-0.5,0.8-0.8,1.4-1c0.5-0.3,1.2-0.4,2-0.4s1.4,0.1,2,0.4
			c0.7,0.3,1.1,0.8,1.4,1.3s0.5,1.2,0.5,2h-1.1c0-0.5-0.1-1-0.4-1.4c-0.3-0.4-0.7-0.7-1.1-0.9s-0.9-0.3-1.4-0.3
			c-0.5,0-1.1,0.1-1.4,0.4c-0.4,0.3-0.8,0.5-1.1,0.9c-0.3,0.4-0.4,0.8-0.5,1.3c-0.1,0.5-0.1,1-0.1,1.6v0.4c0,0.5,0,1,0.1,1.6
			c0.1,0.5,0.3,0.9,0.5,1.3c0.3,0.4,0.7,0.7,1.1,0.9C180.8,498.6,181.3,498.8,181.8,498.8z M192.5,489.2v0.9h-5.2v-0.9H192.5z
			 M189.2,486.4h1.2v10.5c0,0.5,0,0.8,0.1,1c0.1,0.3,0.3,0.4,0.5,0.5s0.4,0.1,0.7,0.1c0.1,0,0.4,0,0.5,0c0.1,0,0.3,0,0.4-0.1v0.9
			c-0.1,0-0.3,0.1-0.5,0.1s-0.4,0-0.7,0c-0.4,0-0.8-0.1-1.2-0.3c-0.4-0.1-0.7-0.4-0.8-0.8c-0.1-0.4-0.3-0.9-0.3-1.7V486.4z
			 M194.6,494.6v-0.3c0-0.8,0.1-1.4,0.3-2.1s0.5-1.2,0.9-1.7s0.9-0.8,1.4-1c0.5-0.3,1.2-0.4,2-0.4c0.7,0,1.3,0.1,2,0.4
			c0.5,0.3,1.1,0.7,1.4,1s0.8,1,0.9,1.7c0.3,0.7,0.3,1.3,0.3,2.1v0.3c0,0.8-0.1,1.4-0.3,2.1c-0.3,0.7-0.5,1.2-0.9,1.7
			s-0.9,0.8-1.4,1c-0.5,0.3-1.2,0.4-2,0.4c-0.7,0-1.3-0.1-2-0.4c-0.5-0.3-1.1-0.7-1.4-1c-0.4-0.5-0.8-1-0.9-1.7
			C194.6,496,194.6,495.2,194.6,494.6z M195.6,494.2v0.3c0,0.5,0.1,1,0.3,1.6c0.1,0.5,0.4,0.9,0.7,1.3c0.3,0.4,0.7,0.7,1.1,0.9
			c0.4,0.3,0.9,0.4,1.4,0.4c0.5,0,1.1-0.1,1.4-0.4c0.4-0.3,0.8-0.5,1.1-0.9c0.3-0.4,0.5-0.8,0.7-1.3c0.1-0.5,0.3-1,0.3-1.6v-0.3
			c0-0.5-0.1-1-0.3-1.6c-0.1-0.5-0.4-0.9-0.7-1.3s-0.7-0.7-1.1-0.9s-0.9-0.4-1.4-0.4s-1.1,0.1-1.4,0.4c-0.4,0.3-0.8,0.5-1.1,0.9
			c-0.3,0.4-0.5,0.8-0.7,1.3C195.7,493.1,195.6,493.6,195.6,494.2z M212.8,496.9c0-0.3-0.1-0.5-0.3-0.8c-0.1-0.3-0.4-0.5-0.8-0.8
			s-0.9-0.4-1.7-0.5c-0.5-0.1-1.1-0.3-1.6-0.4c-0.4-0.1-0.8-0.4-1.2-0.5c-0.3-0.3-0.5-0.5-0.7-0.8s-0.3-0.7-0.3-1s0.1-0.8,0.3-1
			c0.1-0.4,0.4-0.7,0.8-0.9c0.3-0.3,0.7-0.5,1.2-0.7c0.4-0.1,0.9-0.3,1.6-0.3c0.8,0,1.4,0.1,2.1,0.4c0.5,0.3,1.1,0.7,1.3,1
			c0.3,0.5,0.5,1,0.5,1.6h-1.4c0-0.4-0.1-0.7-0.3-1c-0.3-0.3-0.5-0.5-0.9-0.8s-0.9-0.3-1.4-0.3c-0.7,0-1.1,0.1-1.4,0.3
			s-0.7,0.4-0.8,0.7s-0.3,0.5-0.3,0.9c0,0.3,0,0.4,0.1,0.7c0.1,0.1,0.3,0.4,0.4,0.5c0.3,0.1,0.5,0.3,0.8,0.4s0.8,0.3,1.4,0.4
			c0.8,0.1,1.6,0.4,2.1,0.7c0.5,0.3,0.9,0.5,1.2,0.9c0.3,0.4,0.4,0.8,0.4,1.4c0,0.4-0.1,0.8-0.3,1.2c-0.1,0.4-0.4,0.7-0.8,0.9
			s-0.8,0.4-1.2,0.7c-0.5,0.1-1.1,0.3-1.6,0.3c-0.9,0-1.6-0.1-2.2-0.4c-0.7-0.3-1.1-0.7-1.3-1.2s-0.5-1-0.5-1.6h1.2
			c0,0.5,0.3,0.9,0.5,1.3c0.3,0.3,0.7,0.5,1.1,0.7c0.4,0.1,0.9,0.1,1.3,0.1c0.5,0,1.1-0.1,1.4-0.3s0.7-0.4,0.9-0.7
			C212.7,497.6,212.8,497.2,212.8,496.9z M94.9,518.7v-5.4c0-0.5-0.1-0.9-0.3-1.3c-0.3-0.4-0.5-0.7-0.9-0.8
			c-0.4-0.1-0.9-0.3-1.4-0.3s-1.1,0.1-1.4,0.3c-0.4,0.1-0.8,0.4-1.1,0.8c-0.3,0.3-0.4,0.7-0.4,1h-1.2c0-0.4,0.1-0.8,0.3-1.2
			c0.1-0.4,0.5-0.7,0.8-0.9c0.4-0.3,0.8-0.5,1.3-0.7s1.1-0.3,1.6-0.3c0.8,0,1.4,0.1,2,0.4c0.5,0.3,1.1,0.7,1.3,1.2
			c0.3,0.5,0.5,1.2,0.5,1.8v5c0,0.4,0,0.8,0.1,1c0,0.4,0.1,0.7,0.3,0.9v0.1h-1.2c-0.1-0.3-0.1-0.5-0.1-0.9
			C94.9,519.4,94.9,519,94.9,518.7z M95.2,514.5v0.9H93c-0.5,0-1.2,0-1.6,0.1c-0.5,0.1-0.8,0.3-1.2,0.5c-0.3,0.3-0.5,0.4-0.8,0.7
			c-0.1,0.3-0.3,0.7-0.3,0.9c0,0.4,0.1,0.7,0.3,1c0.1,0.3,0.5,0.5,0.8,0.8c0.4,0.1,0.8,0.3,1.3,0.3c0.7,0,1.2-0.1,1.7-0.4
			c0.5-0.3,0.9-0.5,1.2-0.9c0.3-0.4,0.5-0.8,0.7-1.3l0.5,0.7c-0.1,0.3-0.3,0.7-0.5,1c-0.3,0.4-0.5,0.7-0.9,0.9
			c-0.4,0.3-0.8,0.5-1.3,0.7c-0.5,0.1-1.1,0.3-1.6,0.3c-0.7,0-1.3-0.1-1.8-0.4c-0.5-0.3-0.9-0.7-1.2-1c-0.3-0.4-0.4-0.9-0.4-1.6
			c0-0.5,0.1-0.9,0.3-1.3c0.3-0.4,0.5-0.8,0.9-1c0.4-0.3,0.9-0.5,1.4-0.7s1.3-0.3,2-0.3h2.8V514.5z M106.4,510.2h1.1v10.2
			c0,0.9-0.1,1.7-0.5,2.4s-0.8,1.2-1.4,1.4c-0.7,0.4-1.3,0.5-2.2,0.5c-0.4,0-0.9-0.1-1.3-0.3c-0.4-0.1-0.9-0.3-1.3-0.7
			c-0.4-0.3-0.8-0.5-1.1-0.9l0.7-0.7c0.4,0.5,0.9,0.9,1.3,1.2c0.5,0.3,1.1,0.4,1.6,0.4c0.7,0,1.2-0.1,1.7-0.4s0.8-0.7,1.1-1.2
			c0.3-0.5,0.4-1,0.4-1.8v-8L106.4,510.2z M99,515.4v-0.3c0-0.8,0.1-1.6,0.3-2.2s0.4-1.2,0.8-1.7c0.4-0.5,0.8-0.8,1.3-1
			c0.5-0.3,1.1-0.4,1.7-0.4s1.2,0.1,1.6,0.3c0.5,0.3,0.9,0.5,1.2,0.9c0.4,0.4,0.7,0.8,0.8,1.3c0.3,0.5,0.4,1,0.5,1.7v2.6
			c-0.1,0.5-0.3,1.2-0.4,1.6c-0.3,0.5-0.5,0.9-0.8,1.3c-0.4,0.4-0.8,0.7-1.2,0.8c-0.5,0.1-1.1,0.3-1.7,0.3s-1.2-0.1-1.7-0.4
			s-0.9-0.7-1.3-1c-0.4-0.5-0.7-1-0.8-1.7C99.1,517,99,516.2,99,515.4z M100.2,515.3v0.3c0,0.7,0,1.2,0.1,1.7s0.3,0.9,0.5,1.3
			c0.3,0.4,0.5,0.7,0.9,0.9c0.4,0.3,0.8,0.3,1.3,0.3c0.7,0,1.2-0.1,1.7-0.4c0.4-0.3,0.8-0.7,1.1-1c0.3-0.4,0.4-0.9,0.5-1.4v-3
			c-0.1-0.4-0.1-0.7-0.3-1s-0.4-0.7-0.7-0.9c-0.3-0.3-0.5-0.5-0.9-0.7c-0.4-0.1-0.8-0.3-1.4-0.3c-0.5,0-0.9,0.1-1.3,0.3
			c-0.4,0.3-0.7,0.5-0.9,0.9c-0.3,0.4-0.4,0.8-0.5,1.3C100.2,514.1,100.2,514.6,100.2,515.3z M112,511.9v8.7h-1.2v-10.4h1.1
			L112,511.9z M115.7,510v1c-0.1,0-0.3,0-0.4,0c-0.1,0-0.3,0-0.4,0c-0.5,0-0.9,0.1-1.3,0.3s-0.7,0.4-0.9,0.8
			c-0.3,0.3-0.4,0.7-0.5,1.2c-0.1,0.4-0.3,0.9-0.3,1.4l-0.4,0.1c0-0.7,0.1-1.3,0.3-1.8c0.1-0.5,0.4-1,0.7-1.6c0.3-0.4,0.7-0.8,1.1-1
			c0.4-0.3,0.9-0.4,1.6-0.4c0.1,0,0.3,0,0.4,0C115.4,510,115.6,510,115.7,510z M117,515.6v-0.3c0-0.8,0.1-1.4,0.3-2.1
			s0.5-1.2,0.9-1.7c0.4-0.5,0.9-0.8,1.4-1c0.5-0.3,1.2-0.4,2-0.4c0.7,0,1.3,0.1,2,0.4c0.5,0.3,1.1,0.7,1.4,1c0.4,0.5,0.8,1,0.9,1.7
			c0.3,0.7,0.3,1.3,0.3,2.1v0.3c0,0.8-0.1,1.4-0.3,2.1c-0.3,0.7-0.5,1.2-0.9,1.7c-0.4,0.5-0.9,0.8-1.4,1c-0.5,0.3-1.2,0.4-2,0.4
			c-0.7,0-1.3-0.1-2-0.4c-0.5-0.3-1.1-0.7-1.4-1c-0.4-0.5-0.8-1-0.9-1.7S117,516.2,117,515.6z M118.2,515.2v0.3c0,0.5,0.1,1,0.3,1.6
			s0.4,0.9,0.7,1.3s0.7,0.7,1.1,0.9s0.9,0.4,1.4,0.4s1.1-0.1,1.4-0.4c0.4-0.3,0.8-0.5,1.1-0.9c0.3-0.4,0.5-0.8,0.7-1.3
			c0.1-0.5,0.3-1,0.3-1.6v-0.3c0-0.5-0.1-1-0.3-1.6c-0.1-0.5-0.4-0.9-0.7-1.3s-0.7-0.7-1.1-0.9s-0.9-0.4-1.4-0.4s-1.1,0.1-1.4,0.4
			c-0.4,0.3-0.8,0.5-1.1,0.9c-0.3,0.4-0.5,0.8-0.7,1.3C118.2,514.1,118.2,514.6,118.2,515.2z M130.3,512.2v12.3h-1.2V510h1.1
			L130.3,512.2z M137.5,515.3v0.3c0,0.8-0.1,1.4-0.3,2.1c-0.1,0.7-0.4,1.2-0.8,1.7c-0.4,0.5-0.8,0.8-1.2,1c-0.5,0.3-1.1,0.4-1.7,0.4
			s-1.2-0.1-1.7-0.3c-0.5-0.1-0.9-0.5-1.3-0.8c-0.4-0.4-0.7-0.8-0.8-1.3c-0.3-0.5-0.4-1-0.4-1.6v-2.6c0.1-0.7,0.3-1.2,0.5-1.7
			c0.3-0.5,0.5-0.9,0.8-1.3c0.4-0.4,0.8-0.7,1.2-0.9c0.5-0.3,1.1-0.3,1.6-0.3c0.7,0,1.2,0.1,1.7,0.4c0.5,0.3,0.9,0.7,1.3,1
			c0.4,0.5,0.7,1,0.8,1.7C137.3,513.7,137.5,514.5,137.5,515.3z M136.3,515.4v-0.3c0-0.7,0-1.2-0.1-1.7c-0.1-0.5-0.3-0.9-0.5-1.3
			c-0.3-0.4-0.5-0.7-0.9-0.9s-0.8-0.3-1.3-0.3c-0.5,0-1.1,0.1-1.4,0.3c-0.4,0.1-0.7,0.4-0.9,0.7c-0.3,0.3-0.4,0.7-0.7,0.9
			c-0.1,0.4-0.3,0.7-0.3,1v3c0.1,0.5,0.3,0.9,0.5,1.3s0.7,0.8,1.1,1c0.4,0.3,1.1,0.4,1.7,0.4c0.5,0,0.9-0.1,1.3-0.3
			c0.4-0.3,0.7-0.5,0.9-0.9c0.3-0.4,0.4-0.8,0.5-1.3C136.3,516.6,136.3,516.1,136.3,515.4z M144.4,520.8c-0.7,0-1.3-0.1-1.8-0.4
			c-0.5-0.3-1.1-0.7-1.4-1s-0.8-1-0.9-1.6c-0.3-0.7-0.4-1.3-0.4-2.1v-0.4c0-0.8,0.1-1.6,0.4-2.2s0.5-1.2,0.9-1.7
			c0.4-0.5,0.9-0.8,1.4-1c0.5-0.3,1.1-0.4,1.7-0.4s1.2,0.1,1.7,0.4c0.5,0.3,0.9,0.5,1.3,1c0.4,0.4,0.7,0.9,0.8,1.4
			c0.1,0.5,0.3,1.2,0.3,2v0.7h-7.9v-0.9h6.7v-0.1c0-0.5-0.1-1.2-0.4-1.6c-0.3-0.5-0.5-0.9-0.9-1.3c-0.4-0.3-0.9-0.5-1.6-0.5
			c-0.5,0-0.9,0.1-1.3,0.3c-0.4,0.3-0.8,0.5-1.1,0.9c-0.3,0.4-0.5,0.8-0.7,1.3c-0.1,0.5-0.3,1-0.3,1.7v0.4c0,0.5,0.1,1,0.3,1.6
			c0.1,0.5,0.4,0.9,0.8,1.3c0.3,0.4,0.7,0.7,1.2,0.9c0.4,0.3,0.9,0.3,1.4,0.3c0.7,0,1.2-0.1,1.6-0.4c0.5-0.3,0.9-0.7,1.3-1l0.7,0.5
			c-0.3,0.4-0.5,0.7-0.8,0.9c-0.4,0.3-0.8,0.5-1.2,0.7C145.6,520.7,145.1,520.8,144.4,520.8z M154.8,519.8c0.5,0,0.9-0.1,1.3-0.3
			c0.4-0.1,0.8-0.4,1.1-0.8c0.3-0.4,0.4-0.8,0.5-1.3h1.1c0,0.7-0.3,1.3-0.7,1.7c-0.4,0.5-0.8,0.9-1.4,1.2c-0.5,0.3-1.2,0.4-2,0.4
			c-0.8,0-1.3-0.1-2-0.4c-0.5-0.3-1.1-0.7-1.4-1c-0.4-0.5-0.7-1-0.8-1.7c-0.1-0.7-0.3-1.3-0.3-2.1V515c0-0.8,0.1-1.4,0.3-2.1
			c0.1-0.7,0.5-1.2,0.8-1.7c0.4-0.5,0.8-0.8,1.4-1c0.7-0.3,1.2-0.4,2-0.4c0.8,0,1.4,0.1,2,0.4c0.7,0.3,1.1,0.8,1.4,1.3
			c0.4,0.5,0.5,1.2,0.5,2h-1.1c0-0.5-0.1-1-0.4-1.4c-0.3-0.4-0.7-0.7-1.1-0.9s-0.9-0.3-1.4-0.3c-0.5,0-1.1,0.1-1.4,0.4
			c-0.4,0.3-0.8,0.5-1.1,0.9c-0.3,0.4-0.4,0.8-0.5,1.3c-0.1,0.5-0.1,1-0.1,1.6v0.4c0,0.5,0,1,0.1,1.6c0.1,0.5,0.3,0.9,0.5,1.3
			c0.3,0.4,0.7,0.7,1.1,0.9C153.7,519.6,154.3,519.8,154.8,519.8z M168.2,518.2v-8h1.2v10.4h-1.1L168.2,518.2z M168.4,516.2h0.7
			c0,0.7-0.1,1.3-0.3,1.8c-0.1,0.5-0.4,1-0.7,1.4c-0.3,0.4-0.8,0.8-1.3,0.9c-0.5,0.3-1.2,0.4-1.8,0.4c-0.5,0-0.9-0.1-1.4-0.3
			c-0.4-0.1-0.8-0.4-1.1-0.7s-0.5-0.7-0.7-1.2c-0.1-0.5-0.3-1-0.3-1.8v-6.7h1.2v6.7c0,0.5,0,1,0.1,1.4c0.1,0.4,0.3,0.7,0.5,0.9
			s0.5,0.4,0.8,0.5c0.3,0.1,0.7,0.1,0.9,0.1c0.8,0,1.6-0.1,2-0.5c0.5-0.3,0.8-0.8,1.1-1.3C168.3,517.4,168.4,516.9,168.4,516.2z
			 M179.1,518.7v-5.4c0-0.5-0.1-0.9-0.3-1.3c-0.3-0.4-0.5-0.7-0.9-0.8s-0.9-0.3-1.4-0.3c-0.5,0-1.1,0.1-1.4,0.3s-0.8,0.4-1.1,0.8
			c-0.3,0.3-0.4,0.7-0.4,1h-1.2c0-0.4,0.1-0.8,0.3-1.2c0.1-0.4,0.5-0.7,0.8-0.9c0.4-0.3,0.8-0.5,1.3-0.7s1.1-0.3,1.6-0.3
			c0.8,0,1.4,0.1,2,0.4c0.5,0.3,1.1,0.7,1.3,1.2c0.3,0.5,0.5,1.2,0.5,1.8v5c0,0.4,0,0.8,0.1,1c0,0.4,0.1,0.7,0.3,0.9v0.1h-1.2
			c-0.1-0.3-0.1-0.5-0.1-0.9C179.1,519.4,179.1,519,179.1,518.7z M179.3,514.5v0.9h-2.2c-0.5,0-1.2,0-1.6,0.1
			c-0.5,0.1-0.8,0.3-1.2,0.5c-0.3,0.3-0.5,0.4-0.8,0.7c-0.1,0.3-0.3,0.7-0.3,0.9c0,0.4,0.1,0.7,0.3,1c0.1,0.3,0.5,0.5,0.8,0.8
			c0.4,0.1,0.8,0.3,1.3,0.3c0.7,0,1.2-0.1,1.7-0.4c0.5-0.3,0.9-0.5,1.2-0.9s0.5-0.8,0.7-1.3l0.5,0.7c-0.1,0.3-0.3,0.7-0.5,1
			s-0.5,0.7-0.9,0.9c-0.4,0.3-0.8,0.5-1.3,0.7c-0.5,0.1-1.1,0.3-1.6,0.3c-0.7,0-1.3-0.1-1.8-0.4c-0.5-0.3-0.9-0.7-1.2-1
			s-0.4-0.9-0.4-1.6c0-0.5,0.1-0.9,0.3-1.3c0.3-0.4,0.5-0.8,0.9-1c0.4-0.3,0.9-0.5,1.4-0.7c0.5-0.1,1.3-0.3,2-0.3h2.8V514.5z
			 M184.9,511.9v8.7h-1.2v-10.4h1.1L184.9,511.9z M188.5,510v1c-0.1,0-0.3,0-0.4,0s-0.3,0-0.4,0c-0.5,0-0.9,0.1-1.3,0.3
			s-0.7,0.4-0.9,0.8c-0.3,0.3-0.4,0.7-0.5,1.2c-0.1,0.4-0.3,0.9-0.3,1.4l-0.4,0.1c0-0.7,0.1-1.3,0.3-1.8c0.1-0.5,0.4-1,0.7-1.6
			c0.3-0.4,0.7-0.8,1.1-1c0.4-0.3,0.9-0.4,1.6-0.4c0.1,0,0.3,0,0.4,0C188.4,510,188.4,510,188.5,510z M191.9,510.2v10.4h-1.2v-10.4
			H191.9z M190.6,507.2c0-0.3,0.1-0.4,0.3-0.5c0.1-0.1,0.4-0.3,0.5-0.3c0.3,0,0.4,0.1,0.5,0.3c0.1,0.1,0.3,0.4,0.3,0.5
			c0,0.3-0.1,0.4-0.3,0.5c-0.1,0.1-0.4,0.3-0.5,0.3c-0.3,0-0.4-0.1-0.5-0.3S190.6,507.3,190.6,507.2z M195,515.6v-0.3
			c0-0.8,0.1-1.4,0.3-2.1s0.5-1.2,0.9-1.7s0.9-0.8,1.4-1c0.5-0.3,1.2-0.4,2-0.4c0.7,0,1.3,0.1,2,0.4c0.5,0.3,1.1,0.7,1.4,1
			c0.4,0.5,0.8,1,0.9,1.7c0.3,0.7,0.3,1.3,0.3,2.1v0.3c0,0.8-0.1,1.4-0.3,2.1c-0.3,0.7-0.5,1.2-0.9,1.7c-0.4,0.5-0.9,0.8-1.4,1
			c-0.5,0.3-1.2,0.4-2,0.4c-0.7,0-1.3-0.1-2-0.4c-0.5-0.3-1.1-0.7-1.4-1c-0.4-0.5-0.8-1-0.9-1.7C195,517,195,516.2,195,515.6z
			 M196,515.2v0.3c0,0.5,0.1,1,0.3,1.6c0.1,0.5,0.4,0.9,0.7,1.3s0.7,0.7,1.1,0.9s0.9,0.4,1.4,0.4c0.5,0,1.1-0.1,1.4-0.4
			s0.8-0.5,1.1-0.9c0.3-0.4,0.5-0.8,0.7-1.3c0.1-0.5,0.3-1,0.3-1.6v-0.3c0-0.5-0.1-1-0.3-1.6c-0.1-0.5-0.4-0.9-0.7-1.3
			c-0.3-0.4-0.7-0.7-1.1-0.9s-0.9-0.4-1.4-0.4c-0.5,0-1.1,0.1-1.4,0.4c-0.4,0.3-0.8,0.5-1.1,0.9c-0.3,0.4-0.5,0.8-0.7,1.3
			C196.1,514.1,196,514.6,196,515.2z M213.2,517.9c0-0.3-0.1-0.5-0.3-0.8c-0.1-0.3-0.4-0.5-0.8-0.8s-0.9-0.4-1.7-0.5
			c-0.5-0.1-1.1-0.3-1.6-0.4c-0.4-0.1-0.8-0.4-1.2-0.5c-0.3-0.3-0.5-0.5-0.7-0.8c-0.1-0.3-0.3-0.7-0.3-1s0.1-0.8,0.3-1
			c0.1-0.4,0.4-0.7,0.8-0.9c0.3-0.3,0.7-0.5,1.2-0.7c0.4-0.1,0.9-0.3,1.6-0.3c0.8,0,1.4,0.1,2.1,0.4c0.5,0.3,1.1,0.7,1.3,1
			c0.3,0.5,0.5,1,0.5,1.6h-1.2c0-0.4-0.1-0.7-0.3-1c-0.3-0.3-0.5-0.5-0.9-0.8s-0.9-0.3-1.4-0.3c-0.7,0-1.1,0.1-1.4,0.3
			s-0.7,0.4-0.8,0.7s-0.3,0.5-0.3,0.9c0,0.3,0,0.4,0.1,0.7c0.1,0.1,0.3,0.4,0.4,0.5c0.3,0.1,0.5,0.3,0.8,0.4
			c0.4,0.1,0.8,0.3,1.4,0.4c0.8,0.1,1.6,0.4,2.1,0.7c0.5,0.3,0.9,0.5,1.2,0.9s0.4,0.8,0.4,1.4c0,0.4-0.1,0.8-0.3,1.2
			c-0.1,0.4-0.4,0.7-0.8,0.9c-0.4,0.3-0.8,0.4-1.2,0.7c-0.5,0.1-1.1,0.3-1.6,0.3c-0.9,0-1.6-0.1-2.2-0.4c-0.7-0.3-1.1-0.7-1.3-1.2
			c-0.3-0.5-0.5-1-0.5-1.6h1.2c0,0.5,0.3,0.9,0.5,1.3c0.3,0.3,0.7,0.5,1.1,0.7c0.4,0.1,0.9,0.1,1.3,0.1c0.5,0,1.1-0.1,1.4-0.3
			c0.4-0.1,0.7-0.4,0.9-0.7C213.1,518.6,213.2,518.2,213.2,517.9z"/>
		<g>
			<circle class="st4" cx="241.4" cy="504.8" r="21"/>
			<path class="st3" d="M242.1,521.7v-0.3l0,0v-2.9l0,0v-1.4l0,0v-2.2l5.1-2.5c0.3-0.1,0.4-0.4,0.4-0.7v-14.6c0-0.3-0.1-0.4-0.3-0.5
				c-0.1-0.1-0.4-0.1-0.7,0l-1.8,0.8v-5c0-0.4-0.3-0.7-0.7-0.7s-0.7,0.3-0.7,0.7v5.5l0,0l-1.4,0.7v-8.3c0-0.4-0.3-0.7-0.7-0.7
				s-0.7,0.3-0.7,0.7v8.3l-1.4-0.7l0,0v-5.5c0-0.4-0.3-0.7-0.7-0.7s-0.7,0.3-0.7,0.7v5l-1.8-0.8c-0.3-0.1-0.5-0.1-0.7,0
				s-0.3,0.4-0.3,0.5v14.6c0,0.3,0.1,0.5,0.4,0.7l5.1,2.5v0.3v6.6L242.1,521.7L242.1,521.7z M242.1,500.2l4.2-1.8v3.3l-4.2,1.8
				V500.2z M242.1,505.1l4.2-1.8v3.4l-4.2,2V505.1z M242.1,510l4.2-2v3.3l-4.2,2V510z M240.6,513.3l-4.2-2v-3.3l4.2,2V513.3z
				 M240.6,508.5l-4.2-2v-3.4l4.2,1.8V508.5z M240.6,503.5l-4.2-1.8v-3.3l4.2,1.8V503.5z"/>
		</g>
	</g>
</g>
</svg>
