<?xml version="1.0" encoding="utf-8"?>
<!-- Generator: Adobe Illustrator 25.0.1, SVG Export Plug-In . SVG Version: 6.00 Build 0)  -->
<svg version="1.1" id="Capa_1" xmlns="http://www.w3.org/2000/svg" xmlns:xlink="http://www.w3.org/1999/xlink" x="0px" y="0px"
	 viewBox="0 0 246.9 36.3" style="enable-background:new 0 0 246.9 36.3;" xml:space="preserve">
<style type="text/css">
	.st0{fill:#FFFFFF;}
	.st1{fill:#093493;}
</style>
<path class="st0" d="M69.1,19.4L64.5,3.6h-8.2l-4.9,15.6L46.8,3.6h-5.8h-3.4H26.1h-6.8h-2v12.5L7.5,3.8C7.4,3.7,7.2,3.6,7.1,3.6H0.6
	C0.3,3.6,0,3.8,0,4.2v26.9h8.7V18.6l10.1,12.5h0.6h6.8h15.3v-7H28.2v-3.6h11.2v-6.7H28.2v-3.2h11.5L46,31h9.6l4.5-14.7L64.4,31H74
	L85.5,3.6h-9.1L69.1,19.4z"/>
<path class="st1" d="M175.2,9.9c-1.3-2.2-3.1-3.9-5.3-5.1c-2.3-1.2-4.8-1.8-7.7-1.8c-2.9,0-5.4,0.6-7.7,1.8c-2.2,1.2-4,2.8-5.2,4.9
	c-0.2-0.4-0.4-0.9-0.7-1.3c-1-1.6-2.4-2.8-4.2-3.6c-1.8-0.8-4-1.3-6.4-1.3h-12.8v2.6c-0.9-0.7-1.9-1.3-3-1.8c-2.1-0.9-4.4-1.4-7-1.4
	c-2.9,0-5.5,0.6-7.8,1.8c-2.3,1.2-4.1,2.9-5.3,5.1c-1.3,2.2-1.9,4.7-1.9,7.4c0,0.6,0,1.2,0.1,1.7L93.7,3.6h-8.8L72.7,31h8.8l2.1-4.8
	h10.6L96,31h9.2l-1.8-4.3c1.1,1.2,2.3,2.3,3.8,3.1c2.2,1.2,4.8,1.8,7.6,1.8c2,0,4-0.3,6.1-0.9c1.5-0.4,2.9-1,4.1-1.7v2h8.9v-6.9h2.4
	l4.5,6.9h9.5l-5.6-8.5c1-0.5,1.8-1.2,2.5-1.9c0.3,1.4,0.8,2.8,1.6,4c1.3,2.2,3.1,3.9,5.3,5.1c2.3,1.2,4.8,1.8,7.7,1.8
	c2.9,0,5.4-0.6,7.7-1.8c2.3-1.2,4.1-2.9,5.3-5.1c1.3-2.2,1.9-4.7,1.9-7.4C177.1,14.6,176.5,12.1,175.2,9.9z M86.6,19.6l2.9-6.5
	l2.3,6.5L86.6,19.6z M118.7,16.6v7c-1,0.4-2.1,0.7-3.3,0.7c-1.9,0-3.5-0.6-4.6-1.9c-1.2-1.3-1.7-2.9-1.7-5c0-2.1,0.6-3.8,1.7-5
	c1.2-1.2,2.7-1.8,4.7-1.8c2.3,0,4.3,1,5.9,3l3.6-3.3v6.4H118.7z M140.1,16.3c-0.6,0.6-1.5,0.8-2.7,0.8h-3.3v-6.4h3.3
	c1.2,0,2.1,0.3,2.7,0.8c0.6,0.6,0.9,1.4,0.9,2.4S140.7,15.7,140.1,16.3z M167.3,20.9c-0.5,1-1.2,1.8-2.1,2.4c-0.9,0.6-1.9,0.8-3,0.8
	c-1.1,0-2.1-0.3-3-0.8c-0.9-0.6-1.6-1.4-2.1-2.4c-0.5-1-0.8-2.2-0.8-3.6s0.3-2.6,0.8-3.6c0.5-1,1.2-1.8,2.1-2.4
	c0.9-0.6,1.9-0.8,3-0.8c1.1,0,2.1,0.3,3,0.8c0.9,0.6,1.6,1.4,2.1,2.4c0.5,1,0.8,2.2,0.8,3.6S167.8,19.9,167.3,20.9z"/>
<path class="st0" d="M218,31.1l3.1-18.2h5.7l-3.1,18.2H218z M227.9,6.7c0,0.5-0.1,0.9-0.2,1.4c-0.2,0.4-0.4,0.8-0.7,1.1
	c-0.3,0.3-0.6,0.6-1,0.8c-0.4,0.2-0.8,0.3-1.3,0.3c-0.9,0-1.6-0.3-2.2-0.8c-0.6-0.5-0.9-1.2-0.9-2.1c0-1,0.3-1.8,1-2.5
	c0.6-0.7,1.4-1,2.4-1c0.9,0,1.6,0.3,2.2,0.8C227.6,5.2,227.9,5.9,227.9,6.7z"/>
<path class="st0" d="M235.8,15.5c0.6-0.9,1.3-1.6,2.3-2.2c0.9-0.6,2-0.9,3.2-0.9c1,0,1.8,0.1,2.5,0.4c0.7,0.3,1.3,0.7,1.7,1.2
	c0.5,0.5,0.8,1.1,1,1.8c0.2,0.7,0.3,1.4,0.3,2.1c0,0.3,0,0.7,0,1c0,0.3-0.1,0.7-0.1,1l-1.9,11.2h-5.7l1.7-9.9
	c0.1-0.6,0.2-1.1,0.2-1.5c0-0.7-0.2-1.3-0.5-1.7c-0.3-0.5-0.9-0.7-1.8-0.7c-0.5,0-1,0.1-1.4,0.3c-0.4,0.2-0.8,0.5-1.1,0.9
	c-0.3,0.4-0.6,0.8-0.8,1.3c-0.2,0.5-0.3,1-0.4,1.5l-1.7,9.9h-5.7l2.4-14.5c0.1-0.5,0.2-1.1,0.3-1.8c0.1-0.7,0.2-1.4,0.2-2h5.4
	c0,0.3-0.1,0.7-0.1,1.2C235.8,14.6,235.7,15.1,235.8,15.5L235.8,15.5z"/>
<path class="st0" d="M215.3,16.9c-0.5-1-1.1-1.8-1.9-2.5c-0.8-0.7-1.8-1.2-2.9-1.6c-1.1-0.4-2.3-0.5-3.6-0.5c-1.7,0-3.2,0.3-4.5,0.9
	c-1.3,0.6-2.4,1.4-3.4,2.5c-0.1,0.1-0.2,0.2-0.3,0.4l0,0c0,0-6,6-6.1,6.1l-1.3,1.3c-0.9,0.9-2,1.8-2.6,2.1c-1,0.5-2,0.7-3.1,0.7
	c-1,0-1.9-0.2-2.6-0.5c-0.8-0.3-1.4-0.8-1.9-1.4c-0.5-0.6-0.9-1.3-1.2-2.1c-0.3-0.8-0.4-1.6-0.4-2.5c0-1.3,0.2-2.5,0.6-3.7
	c0.4-1.2,1-2.2,1.7-3.1c0.7-0.9,1.6-1.6,2.7-2.2c1-0.5,2.2-0.8,3.4-0.8c1.2,0,2.2,0.2,3,0.7c0.8,0.5,1.4,1,1.8,1.7l4.3-4
	c-0.8-1.1-2-2-3.6-2.8c-1-0.5-2.2-0.8-3.4-1l0.9-4.1L188.7,0l-0.9,4.5c-2,0-3.9,0.4-5.6,1.2c-1.8,0.8-3.4,2-4.7,3.4
	c-1.3,1.5-2.4,3.2-3.1,5.1c-0.8,2-1.1,4-1.1,6.3c0,1.7,0.3,3.2,0.8,4.6c0.5,1.4,1.3,2.6,2.3,3.6c1,1,2.2,1.8,3.6,2.3
	c0.7,0.3,1.4,0.4,2.1,0.6l-0.9,4.3l2.2,0.5l1-4.6c0.1,0,0.3,0,0.4,0c1.2,0,2.3-0.1,3.3-0.3c1-0.2,1.9-0.5,2.8-1
	c0.8-0.4,1.6-0.9,2.2-1.4c0.6-0.5,2.7-2.6,3.2-3.1l0.3-0.3c0.1,0.5,0.3,0.9,0.4,1.3c0.5,1,1.1,1.8,1.9,2.5c0.8,0.7,1.7,1.2,2.8,1.6
	c1.1,0.4,2.3,0.5,3.6,0.5c1.7,0,3.2-0.3,4.5-0.9c1.3-0.6,2.5-1.4,3.4-2.4c0.9-1,1.7-2.2,2.2-3.6c0.5-1.4,0.7-2.8,0.7-4.4
	C216,19,215.7,17.9,215.3,16.9z M210,23.1c-0.2,0.7-0.6,1.3-1,1.9c-0.4,0.5-1,1-1.6,1.3c-0.6,0.3-1.3,0.5-2,0.5
	c-1.2,0-2.1-0.4-2.7-1.1c-0.6-0.7-1-1.6-1-2.7c0-0.8,0.1-1.5,0.4-2.2c0.2-0.7,0.6-1.3,1-1.9c0.4-0.5,0.9-1,1.6-1.3
	c0.6-0.3,1.3-0.5,2-0.5c1.2,0,2.1,0.4,2.7,1.1c0.6,0.7,1,1.6,1,2.7C210.4,21.7,210.3,22.4,210,23.1z"/>
</svg>
