<svg width="85" height="24" viewBox="0 0 85 24" fill="none" xmlns="http://www.w3.org/2000/svg">
<path d="M23.2805 0.180481H17.2574H15.519V10.9105L6.70367 0.373176C6.60117 0.250171 6.45357 0.180481 6.29366 0.180481H0.532939C0.237728 0.180481 0 0.418309 0 0.71352V23.7972H7.76154V13.0672L16.7367 23.7972H17.2615H23.2846" fill="#54EDC1"/>
<path d="M41.2145 13.4525L35.4088 0.17218H27.5816L16.7367 23.7889H24.6008L26.491 19.6725H35.9172L37.504 23.7889H45.737L44.1339 20.1193L41.2145 13.4525ZM29.1028 13.9609L31.6817 8.38478L33.7237 13.9405L29.1028 13.9609Z" fill="white"/>
<path d="M66.2091 19.4634L68.2058 8.03624H71.9001L69.8582 19.4634H66.2091ZM72.679 4.20266C72.679 4.51017 72.6258 4.79301 72.5192 5.05132C72.4126 5.31373 72.2608 5.54332 72.0722 5.75243C71.8795 5.95744 71.6541 6.12152 71.3957 6.23632C71.1333 6.35112 70.8504 6.40849 70.547 6.40849C69.9648 6.40849 69.4892 6.23628 69.1119 5.89187C68.7388 5.54746 68.5503 5.10876 68.5503 4.57164C68.5503 3.94432 68.7594 3.41946 69.1817 3.00125C69.604 2.57894 70.1206 2.36981 70.7315 2.36981C71.2973 2.36981 71.7648 2.54613 72.1297 2.89875C72.4946 3.24726 72.679 3.68605 72.679 4.20266Z" fill="#54EDC1"/>
<path d="M77.7756 9.6886C78.1446 9.12278 78.6325 8.6554 79.2434 8.29048C79.8543 7.92147 80.5596 7.74103 81.355 7.74103C81.9988 7.74103 82.5482 7.8312 83.0074 8.01571C83.4666 8.20021 83.8438 8.45036 84.1432 8.77427C84.4425 9.09408 84.6597 9.46718 84.795 9.8854C84.9344 10.3077 85 10.7464 85 11.2056C85 11.4188 84.9919 11.6321 84.9755 11.8371C84.9591 12.0421 84.9303 12.2471 84.8852 12.4439L83.647 19.4675H79.9773L81.0557 13.2885C81.1336 12.9359 81.1705 12.6161 81.1705 12.3291C81.1705 11.9026 81.0598 11.5378 80.8384 11.2426C80.617 10.9433 80.2233 10.7956 79.6575 10.7956C79.3213 10.7956 79.0179 10.8612 78.7514 10.9883C78.4849 11.1195 78.2471 11.2958 78.0421 11.5255C77.8371 11.7551 77.669 12.0215 77.5378 12.325C77.4066 12.6284 77.3123 12.9523 77.2508 13.2844L76.1479 19.4634H72.4741L74.0568 10.3979C74.1183 10.1068 74.1839 9.73369 74.2536 9.27448C74.3233 8.81526 74.3725 8.40114 74.4012 8.03623H77.9109C77.8945 8.22073 77.8699 8.4791 77.8289 8.81531C77.792 9.15153 77.7551 9.44259 77.7264 9.6886H77.7756Z" fill="#54EDC1"/>
<path d="M64.4542 10.6193C64.1549 10.0002 63.7449 9.47125 63.2283 9.03663C62.7076 8.60202 62.0884 8.26583 61.3709 8.04033C60.6534 7.81072 59.8703 7.69588 59.0298 7.69588C57.9432 7.69588 56.9714 7.88864 56.1145 8.26996C55.2576 8.65127 54.5277 9.16379 53.925 9.80751C53.8553 9.88131 53.7897 9.95514 53.7241 10.033L53.72 10.0248C53.72 10.0248 49.8167 13.8133 49.7757 13.8584L48.9352 14.6743C48.3283 15.2237 47.6232 15.7978 47.2377 15.9824C46.594 16.2899 45.9134 16.4415 45.1959 16.4415C44.5522 16.4415 43.9822 16.3349 43.4861 16.1217C42.9899 15.9085 42.5717 15.6174 42.2355 15.2484C41.8993 14.8794 41.641 14.4488 41.4688 13.9527C41.2925 13.4566 41.2064 12.9318 41.2064 12.3824C41.2064 11.587 41.3417 10.8202 41.6083 10.0781C41.8748 9.33596 42.252 8.67991 42.7317 8.10589C43.2155 7.53187 43.7854 7.07271 44.4537 6.7283C45.118 6.38389 45.8559 6.21168 46.6678 6.21168C47.4345 6.21168 48.0701 6.36333 48.5826 6.67084C49.0951 6.97835 49.4805 7.32689 49.7429 7.72461L52.5638 5.19895C52.0431 4.49373 51.2722 3.91972 50.2472 3.4646C49.5748 3.16939 48.845 2.9726 48.0578 2.8701L48.6194 0.307511L47.209 0L46.5981 2.79212C45.2901 2.81262 44.0765 3.07099 42.949 3.5671C41.7723 4.08782 40.7512 4.80124 39.8861 5.71147C39.021 6.6217 38.3445 7.68777 37.8566 8.91371C37.3645 10.1397 37.1226 11.4475 37.1226 12.8375C37.1226 13.8912 37.2989 14.8589 37.6516 15.7281C38.0042 16.6014 38.5003 17.3476 39.1441 17.9668C39.7878 18.5859 40.5668 19.0656 41.4852 19.4018C41.9239 19.5617 42.3872 19.6848 42.8751 19.7668L42.2806 22.4728L43.6911 22.7803L44.3225 19.8979C44.4086 19.8979 44.4948 19.902 44.5809 19.902C45.3599 19.902 46.0774 19.8282 46.7252 19.6847C47.3771 19.5412 47.9716 19.3403 48.5169 19.0861C49.0582 18.8319 49.542 18.5449 49.9643 18.2128C50.3866 17.8848 51.7069 16.6014 52.0308 16.2529L52.2194 16.052C52.2932 16.3349 52.3875 16.6055 52.5105 16.8638C52.8098 17.483 53.2157 18.0119 53.7282 18.4465C54.2407 18.8812 54.8516 19.2173 55.5651 19.4428C56.2744 19.6725 57.0453 19.7872 57.8694 19.7872C58.9723 19.7872 59.9522 19.5986 60.8174 19.2255C61.6825 18.8524 62.4206 18.344 63.0315 17.7003C63.6424 17.0566 64.1098 16.3062 64.4296 15.4534C64.7494 14.5965 64.9134 13.6862 64.9134 12.7227C64.9011 11.9395 64.7495 11.2385 64.4542 10.6193ZM61.047 14.5063C60.8953 14.9491 60.6779 15.3386 60.395 15.6748C60.1121 16.0111 59.7718 16.2734 59.3741 16.4661C58.9764 16.6588 58.5336 16.7531 58.0416 16.7531C57.2748 16.7531 56.6886 16.5277 56.2745 16.0766C55.8604 15.6256 55.6553 15.0556 55.6553 14.3668C55.6553 13.8789 55.7332 13.4115 55.8849 12.9687C56.0366 12.5259 56.2539 12.1363 56.5286 11.8001C56.8033 11.4639 57.1395 11.1974 57.5373 10.9965C57.935 10.7997 58.3778 10.6972 58.8698 10.6972C59.6365 10.6972 60.227 10.9268 60.6493 11.386C61.0716 11.8452 61.2807 12.4193 61.2807 13.1081C61.2766 13.6002 61.1987 14.0634 61.047 14.5063Z" fill="#54EDC1"/>
</svg>
