<svg width="174" height="44" viewBox="0 0 174 44" fill="none" xmlns="http://www.w3.org/2000/svg">
<path d="M150.911 38.7667H23.0911C16.5194 38.7667 11.1924 33.4397 11.1924 26.868V15.9158C11.1924 9.34413 16.5194 4.01709 23.0911 4.01709H150.911C157.482 4.01709 162.81 9.34413 162.81 15.9158V26.868C162.812 33.4397 157.482 38.7667 150.911 38.7667Z" fill="white"/>
<path d="M22.7337 33.6031V19.6265L34.8654 33.6031H39.9616V9.18018H34.0237V23.7131L21.934 9.18018H16.6279V33.6031H22.7337Z" fill="#DF0A14"/>
<path d="M54.7362 27.2731L59.633 28.6311C59.633 28.6311 57.4208 33.9708 51.0086 33.9708C44.5964 33.9708 41.2465 29.3574 41.215 24.3661C41.1836 19.3749 44.8483 14.856 50.4251 14.856C56.0019 14.856 59.824 17.5719 59.9814 25.7871L46.7751 25.7556C46.7751 25.7556 46.964 29.5463 50.5972 29.5777C54.2304 29.6092 54.7362 27.2731 54.7362 27.2731Z" fill="#DF0A14"/>
<path d="M46.8066 22.2801H54.4509C54.4509 22.2801 54.071 19.499 50.7547 19.4675C47.4384 19.4361 46.8066 22.2801 46.8066 22.2801Z" fill="white"/>
<path d="M61.5605 15.3301V33.5591H66.5203L72.9954 24.049V33.5591H78.2091L89.7385 15.3301H83.8636L77.8922 25.3125V15.3301H73.4068L67.1521 24.8403V15.3301H61.5605Z" fill="#DF0A14"/>
<path d="M89.9281 33.5588V27.5454C89.9281 27.5454 89.7371 24.8274 91.5422 22.8984C93.2864 21.0367 94.6758 21.1731 94.6758 21.1731H97.5094V15.3277H95.2237C95.2237 15.3277 94.1364 15.2374 92.4951 16.1483C91.3365 16.7906 90.6207 17.8233 90.6207 17.8233L84.3975 27.1739V33.5546H89.9281V33.5588Z" fill="#0D4697"/>
<path d="M107.424 34.2853C112.9 34.2853 117.339 29.9541 117.339 24.6114C117.339 19.2687 112.9 14.9375 107.424 14.9375C101.948 14.9375 97.5088 19.2687 97.5088 24.6114C97.5088 29.9541 101.948 34.2853 107.424 34.2853Z" fill="#0D4697"/>
<path d="M107.466 29.3575C110.13 29.3575 112.289 27.1981 112.289 24.5342C112.289 21.8704 110.13 19.7109 107.466 19.7109C104.802 19.7109 102.643 21.8704 102.643 24.5342C102.643 27.1981 104.802 29.3575 107.466 29.3575Z" fill="#FCFCFC"/>
<path d="M118.897 20.4157L124.046 21.5218C124.046 21.5218 124.646 19.341 127.427 19.4061C130.208 19.4691 130.112 22.4075 130.112 22.4075H124.077C124.077 22.4075 117.915 22.5754 117.917 28.1879C117.919 32.6146 121.466 34.0544 124.012 34.1594C126.98 34.2811 130.185 32.411 130.185 32.411L130.194 33.6535L135.483 33.5906V20.8271C135.483 20.8271 135.483 14.9375 127.333 14.9375C119.972 14.9375 118.897 20.4157 118.897 20.4157Z" fill="#0D4697"/>
<path d="M129.891 25.9233H125.531C125.531 25.9233 123.634 25.9233 123.636 28.1986C123.638 30.117 126.331 29.905 126.331 29.905C126.331 29.905 128.291 29.9449 129.387 28.3812C130.058 27.4199 129.891 25.9233 129.891 25.9233Z" fill="#FCFCFC"/>
<path d="M145.53 34.1636C150.503 34.1636 154.534 29.8597 154.534 24.5505C154.534 19.2414 150.503 14.9375 145.53 14.9375C140.557 14.9375 136.525 19.2414 136.525 24.5505C136.525 29.8597 140.557 34.1636 145.53 34.1636Z" fill="#0D4697"/>
<path d="M145.507 29.3234C148.081 29.3234 150.167 27.1527 150.167 24.475C150.167 21.7972 148.081 19.6265 145.507 19.6265C142.934 19.6265 140.848 21.7972 140.848 24.475C140.848 27.1527 142.934 29.3234 145.507 29.3234Z" fill="#FCFCFC"/>
<path d="M156.997 33.6031H151.437L151.405 9.18018H156.965L156.997 33.6031Z" fill="#0D4697"/>
<g style="mix-blend-mode:color">
<rect x="11" y="4" width="152" height="35" rx="17.5" fill="#C4C4C4"/>
</g>
</svg>
